<?xml version="1.0" encoding="UTF-8"?>
<svg xmlns="http://www.w3.org/2000/svg" xmlns:xlink="http://www.w3.org/1999/xlink" width="32px" height="32px" viewBox="0 0 32 32" version="1.1">
<g id="surface1">
<path style=" stroke:none;fill-rule:nonzero;fill:rgb(23.529412%,35.294119%,60.000002%);fill-opacity:1;" d="M 31.789062 15.984375 C 31.789062 7.253906 24.710938 0.175781 15.984375 0.175781 C 7.253906 0.175781 0.175781 7.253906 0.175781 15.984375 C 0.175781 24.710938 7.253906 31.789062 15.984375 31.789062 C 24.710938 31.789062 31.789062 24.710938 31.789062 15.984375 Z M 31.789062 15.984375 "/>
<path style=" stroke:none;fill-rule:nonzero;fill:rgb(100%,100%,100%);fill-opacity:1;" d="M 13.746094 13.234375 L 13.746094 16.445312 L 10.007812 16.445312 L 10.007812 20.796875 L 13.746094 20.796875 L 13.746094 31.628906 C 14.476562 31.730469 15.222656 31.789062 15.984375 31.789062 C 16.742188 31.789062 17.484375 31.730469 18.214844 31.628906 L 18.214844 20.796875 L 21.945312 20.796875 L 22.5 16.445312 L 18.214844 16.445312 L 18.214844 13.667969 C 18.214844 12.40625 18.5625 11.546875 20.359375 11.546875 L 22.652344 11.546875 L 22.652344 7.65625 C 22.257812 7.601562 20.894531 7.484375 19.3125 7.484375 C 16.007812 7.484375 13.746094 9.511719 13.746094 13.234375 Z M 13.746094 13.234375 "/>
</g>
</svg>
