<?xml version="1.0" encoding="UTF-8"?>
<!DOCTYPE svg PUBLIC "-//W3C//DTD SVG 1.1//EN" "http://www.w3.org/Graphics/SVG/1.1/DTD/svg11.dtd">
<svg xmlns="http://www.w3.org/2000/svg" version="1.1" width="1381px" height="325px" style="shape-rendering:geometricPrecision; text-rendering:geometricPrecision; image-rendering:optimizeQuality; fill-rule:evenodd; clip-rule:evenodd" xmlns:xlink="http://www.w3.org/1999/xlink">
<g><path style="opacity:0.906" fill="#000000" d="M 69.5,56.5 C 73.5,56.5 77.5,56.5 81.5,56.5C 81.5,64.5 81.5,72.5 81.5,80.5C 97.8333,80.5 114.167,80.5 130.5,80.5C 130.5,102.167 130.5,123.833 130.5,145.5C 126.833,145.5 123.167,145.5 119.5,145.5C 119.5,142.833 119.5,140.167 119.5,137.5C 106.833,137.5 94.1667,137.5 81.5,137.5C 81.5,152.167 81.5,166.833 81.5,181.5C 77.5,181.5 73.5,181.5 69.5,181.5C 69.5,166.833 69.5,152.167 69.5,137.5C 56.8333,137.5 44.1667,137.5 31.5,137.5C 31.5,140.5 31.5,143.5 31.5,146.5C 27.8333,146.5 24.1667,146.5 20.5,146.5C 20.5,124.5 20.5,102.5 20.5,80.5C 36.8333,80.5 53.1667,80.5 69.5,80.5C 69.5,72.5 69.5,64.5 69.5,56.5 Z M 31.5,91.5 C 44.1667,91.5 56.8333,91.5 69.5,91.5C 69.5,103.167 69.5,114.833 69.5,126.5C 56.8333,126.5 44.1667,126.5 31.5,126.5C 31.5,114.833 31.5,103.167 31.5,91.5 Z M 81.5,91.5 C 94.1667,91.5 106.833,91.5 119.5,91.5C 119.5,103.167 119.5,114.833 119.5,126.5C 106.833,126.5 94.1667,126.5 81.5,126.5C 81.5,114.833 81.5,103.167 81.5,91.5 Z"/></g>
<g><path style="opacity:0.889" fill="#000000" d="M 183.5,56.5 C 187.167,56.5 190.833,56.5 194.5,56.5C 194.5,59.8333 194.5,63.1667 194.5,66.5C 199.833,66.5 205.167,66.5 210.5,66.5C 210.5,69.8333 210.5,73.1667 210.5,76.5C 205.167,76.5 199.833,76.5 194.5,76.5C 194.5,79.8333 194.5,83.1667 194.5,86.5C 190.833,86.5 187.167,86.5 183.5,86.5C 183.5,83.1667 183.5,79.8333 183.5,76.5C 173.167,76.5 162.833,76.5 152.5,76.5C 152.5,73.1667 152.5,69.8333 152.5,66.5C 162.833,66.5 173.167,66.5 183.5,66.5C 183.5,63.1667 183.5,59.8333 183.5,56.5 Z"/></g>
<g><path style="opacity:0.89" fill="#000000" d="M 229.5,56.5 C 233.167,56.5 236.833,56.5 240.5,56.5C 240.5,59.8333 240.5,63.1667 240.5,66.5C 251.167,66.5 261.833,66.5 272.5,66.5C 272.5,69.8333 272.5,73.1667 272.5,76.5C 261.833,76.5 251.167,76.5 240.5,76.5C 240.5,79.8333 240.5,83.1667 240.5,86.5C 236.833,86.5 233.167,86.5 229.5,86.5C 229.5,83.1667 229.5,79.8333 229.5,76.5C 224.5,76.5 219.5,76.5 214.5,76.5C 214.5,73.1667 214.5,69.8333 214.5,66.5C 219.5,66.5 224.5,66.5 229.5,66.5C 229.5,63.1667 229.5,59.8333 229.5,56.5 Z"/></g>
<g><path style="opacity:0.894" fill="#000000" d="M 589.5,56.5 C 593.166,56.9578 596.666,57.9578 600,59.5C 599.582,62.5214 598.415,65.3547 596.5,68C 624.165,68.5 651.831,68.6666 679.5,68.5C 679.5,71.5 679.5,74.5 679.5,77.5C 649.826,77.1668 620.159,77.5002 590.5,78.5C 584.291,88.3801 576.625,97.0467 567.5,104.5C 564.5,102.167 561.833,99.5 559.5,96.5C 572.903,85.683 582.903,72.3496 589.5,56.5 Z"/></g>
<g><path style="opacity:0.892" fill="#000000" d="M 774.5,56.5 C 778.167,56.5 781.833,56.5 785.5,56.5C 785.5,64.5 785.5,72.5 785.5,80.5C 797.167,80.5 808.833,80.5 820.5,80.5C 820.5,83.8333 820.5,87.1667 820.5,90.5C 808.833,90.5 797.167,90.5 785.5,90.5C 785.622,101.314 787.789,111.648 792,121.5C 798.115,114.104 803.615,106.271 808.5,98C 812.58,98.04 815.914,99.7067 818.5,103C 811.42,113.252 803.754,123.085 795.5,132.5C 802.149,144.984 811.149,155.484 822.5,164C 820.347,166.822 818.181,169.656 816,172.5C 802.438,163.037 792.438,150.704 786,135.5C 785.667,147.167 785.333,158.833 785,170.5C 785.081,174.846 783.247,178.013 779.5,180C 772.642,182.155 765.642,182.822 758.5,182C 757.268,178.81 755.935,175.643 754.5,172.5C 761.055,171.816 767.555,171.149 774,170.5C 774.667,159.833 774.667,149.167 774,138.5C 763.954,149.048 753.454,159.048 742.5,168.5C 740.667,166.167 738.833,163.833 737,161.5C 736.219,160.056 736.386,158.723 737.5,157.5C 738.646,156.855 739.646,156.022 740.5,155C 740,154.833 739.5,154.667 739,154.5C 724.97,159.381 710.803,163.714 696.5,167.5C 696.308,164.399 695.642,161.399 694.5,158.5C 694.709,157.914 695.043,157.414 695.5,157C 701.1,155.188 706.767,153.688 712.5,152.5C 712.5,140.167 712.5,127.833 712.5,115.5C 707.5,115.5 702.5,115.5 697.5,115.5C 697.5,111.833 697.5,108.167 697.5,104.5C 702.5,104.5 707.5,104.5 712.5,104.5C 712.5,95.1667 712.5,85.8333 712.5,76.5C 707.167,76.5 701.833,76.5 696.5,76.5C 696.5,72.8333 696.5,69.1667 696.5,65.5C 710.5,65.5 724.5,65.5 738.5,65.5C 738.5,69.1667 738.5,72.8333 738.5,76.5C 733.5,76.5 728.5,76.5 723.5,76.5C 723.5,85.8333 723.5,95.1667 723.5,104.5C 727.833,104.5 732.167,104.5 736.5,104.5C 736.5,108.167 736.5,111.833 736.5,115.5C 732.167,115.5 727.833,115.5 723.5,115.5C 723.168,126.52 723.501,137.52 724.5,148.5C 729.332,146.753 734.165,145.086 739,143.5C 740.209,146.707 741.209,150.041 742,153.5C 752.667,144.167 763.333,134.833 774,125.5C 774.5,113.838 774.667,102.171 774.5,90.5C 763.5,90.5 752.5,90.5 741.5,90.5C 741.5,87.1667 741.5,83.8333 741.5,80.5C 752.5,80.5 763.5,80.5 774.5,80.5C 774.5,72.5 774.5,64.5 774.5,56.5 Z"/></g>
<g><path style="opacity:0.917" fill="#000000" d="M 849.5,56.5 C 852.833,56.5 856.167,56.5 859.5,56.5C 859.5,65.5 859.5,74.5 859.5,83.5C 864.5,83.5 869.5,83.5 874.5,83.5C 874.5,86.8333 874.5,90.1667 874.5,93.5C 869.5,93.5 864.5,93.5 859.5,93.5C 859.5,101.5 859.5,109.5 859.5,117.5C 863.941,116.576 868.275,115.242 872.5,113.5C 873.539,117.105 874.205,120.772 874.5,124.5C 869.5,125.833 864.5,127.167 859.5,128.5C 859.667,144.17 859.5,159.837 859,175.5C 857.74,178.428 855.573,180.261 852.5,181C 847.177,181.499 841.844,181.666 836.5,181.5C 836.041,178.123 835.374,174.789 834.5,171.5C 839.43,171.803 844.263,171.469 849,170.5C 849.833,157.82 849.666,145.154 848.5,132.5C 843.276,134.575 837.942,136.242 832.5,137.5C 832.252,134.42 831.586,131.42 830.5,128.5C 830.833,127.833 831.167,127.167 831.5,126.5C 837.397,124.422 843.397,122.756 849.5,121.5C 849.5,112.167 849.5,102.833 849.5,93.5C 843.833,93.5 838.167,93.5 832.5,93.5C 832.5,90.1667 832.5,86.8333 832.5,83.5C 838.167,83.5 843.833,83.5 849.5,83.5C 849.5,74.5 849.5,65.5 849.5,56.5 Z"/></g>
<g><path style="opacity:0.897" fill="#000000" d="M 897.5,56.5 C 900.833,56.5 904.167,56.5 907.5,56.5C 907.667,80.8356 907.5,105.169 907,129.5C 906.825,152.192 897.491,169.859 879,182.5C 876.876,179.675 874.376,177.175 871.5,175C 881.837,168 889.17,158.667 893.5,147C 893.333,146.5 893.167,146 893,145.5C 886.837,148.222 880.504,150.555 874,152.5C 871.458,150.448 869.625,147.781 868.5,144.5C 868.709,143.914 869.043,143.414 869.5,143C 878.167,140.333 886.833,137.667 895.5,135C 896.93,129.633 897.597,124.133 897.5,118.5C 890.5,118.5 883.5,118.5 876.5,118.5C 876.5,115.167 876.5,111.833 876.5,108.5C 883.5,108.5 890.5,108.5 897.5,108.5C 897.5,102.167 897.5,95.8333 897.5,89.5C 890.167,89.5 882.833,89.5 875.5,89.5C 875.5,86.1667 875.5,82.8333 875.5,79.5C 882.833,79.5 890.167,79.5 897.5,79.5C 897.5,71.8333 897.5,64.1667 897.5,56.5 Z"/></g>
<g><path style="opacity:0.892" fill="#000000" d="M 920.5,56.5 C 924.167,56.5 927.833,56.5 931.5,56.5C 931.5,64.1667 931.5,71.8333 931.5,79.5C 939.5,79.5 947.5,79.5 955.5,79.5C 955.5,82.8333 955.5,86.1667 955.5,89.5C 947.5,89.5 939.5,89.5 931.5,89.5C 931.5,95.8333 931.5,102.167 931.5,108.5C 938.833,108.5 946.167,108.5 953.5,108.5C 953.5,111.833 953.5,115.167 953.5,118.5C 946.167,118.5 938.833,118.5 931.5,118.5C 931.5,124.833 931.5,131.167 931.5,137.5C 940.167,137.5 948.833,137.5 957.5,137.5C 957.5,140.833 957.5,144.167 957.5,147.5C 948.833,147.5 940.167,147.5 931.5,147.5C 931.5,158.833 931.5,170.167 931.5,181.5C 927.833,181.5 924.167,181.5 920.5,181.5C 920.5,139.833 920.5,98.1667 920.5,56.5 Z"/></g>
<g><path style="opacity:0.902" fill="#000000" d="M 1047.5,56.5 C 1050.83,56.5 1054.17,56.5 1057.5,56.5C 1057.5,64.5 1057.5,72.5 1057.5,80.5C 1069.5,80.5 1081.5,80.5 1093.5,80.5C 1093.5,83.8333 1093.5,87.1667 1093.5,90.5C 1081.5,90.5 1069.5,90.5 1057.5,90.5C 1058.69,101.1 1061.02,111.433 1064.5,121.5C 1070.72,114.11 1076.38,106.276 1081.5,98C 1085.37,98.0988 1088.71,99.5988 1091.5,102.5C 1084.6,113.07 1076.93,123.07 1068.5,132.5C 1075.33,145.001 1084.33,155.667 1095.5,164.5C 1093.14,167.022 1090.98,169.688 1089,172.5C 1074.96,162.456 1064.62,149.456 1058,133.5C 1057.97,148.26 1057.3,162.926 1056,177.5C 1054.2,179.317 1052.03,180.484 1049.5,181C 1043.21,182.107 1036.88,182.607 1030.5,182.5C 1030.09,179.013 1029.09,175.68 1027.5,172.5C 1034.06,171.816 1040.56,171.149 1047,170.5C 1047.67,159.833 1047.67,149.167 1047,138.5C 1036.95,149.048 1026.45,159.048 1015.5,168.5C 1012.8,165.6 1010.47,162.433 1008.5,159C 1009.98,157.426 1011.65,156.093 1013.5,155C 1013,154.833 1012.5,154.667 1012,154.5C 997.899,159.145 983.733,163.479 969.5,167.5C 969.089,164.447 968.423,161.447 967.5,158.5C 967.709,157.914 968.043,157.414 968.5,157C 974.106,155.185 979.773,153.685 985.5,152.5C 985.5,140.167 985.5,127.833 985.5,115.5C 980.5,115.5 975.5,115.5 970.5,115.5C 970.5,111.833 970.5,108.167 970.5,104.5C 975.5,104.5 980.5,104.5 985.5,104.5C 985.5,95.1667 985.5,85.8333 985.5,76.5C 980.167,76.5 974.833,76.5 969.5,76.5C 969.5,72.8333 969.5,69.1667 969.5,65.5C 983.5,65.5 997.5,65.5 1011.5,65.5C 1011.5,69.1667 1011.5,72.8333 1011.5,76.5C 1006.5,76.5 1001.5,76.5 996.5,76.5C 996.5,85.8333 996.5,95.1667 996.5,104.5C 1000.83,104.5 1005.17,104.5 1009.5,104.5C 1009.5,108.167 1009.5,111.833 1009.5,115.5C 1005.17,115.5 1000.83,115.5 996.5,115.5C 996.168,126.52 996.501,137.52 997.5,148.5C 1002.33,146.753 1007.17,145.086 1012,143.5C 1013,146.833 1014,150.167 1015,153.5C 1025.67,144.167 1036.33,134.833 1047,125.5C 1047.5,113.838 1047.67,102.171 1047.5,90.5C 1036.5,90.5 1025.5,90.5 1014.5,90.5C 1014.5,87.1667 1014.5,83.8333 1014.5,80.5C 1025.5,80.5 1036.5,80.5 1047.5,80.5C 1047.5,72.5 1047.5,64.5 1047.5,56.5 Z"/></g>
<g><path style="opacity:0.879" fill="#000000" d="M 1121.5,56.5 C 1125.17,56.5 1128.83,56.5 1132.5,56.5C 1132.5,68.5 1132.5,80.5 1132.5,92.5C 1137.83,92.5 1143.17,92.5 1148.5,92.5C 1148.5,95.8333 1148.5,99.1667 1148.5,102.5C 1143.17,102.5 1137.83,102.5 1132.5,102.5C 1132.5,128.833 1132.5,155.167 1132.5,181.5C 1128.83,181.5 1125.17,181.5 1121.5,181.5C 1121.5,155.167 1121.5,128.833 1121.5,102.5C 1115.83,102.5 1110.17,102.5 1104.5,102.5C 1104.5,99.1667 1104.5,95.8333 1104.5,92.5C 1110.17,92.5 1115.83,92.5 1121.5,92.5C 1121.5,80.5 1121.5,68.5 1121.5,56.5 Z"/></g>
<g><path style="opacity:0.891" fill="#000000" d="M 1180.5,56.5 C 1184.17,56.5 1187.83,56.5 1191.5,56.5C 1191.3,61.2421 1190.63,65.9087 1189.5,70.5C 1200.81,71.4988 1212.15,71.8322 1223.5,71.5C 1222.89,81.9583 1221.39,92.2916 1219,102.5C 1217.97,105.539 1216.14,108.039 1213.5,110C 1206.55,112.155 1199.72,111.988 1193,109.5C 1192.63,107 1191.79,104.667 1190.5,102.5C 1195.19,101.221 1199.85,101.221 1204.5,102.5C 1207.57,101.603 1209.4,99.6026 1210,96.5C 1211,91.1801 1211.83,85.8468 1212.5,80.5C 1204.14,80.1688 1195.81,80.5021 1187.5,81.5C 1181.97,97.2001 1171.3,107.7 1155.5,113C 1158.48,113.498 1161.48,113.665 1164.5,113.5C 1164.5,118.167 1164.5,122.833 1164.5,127.5C 1170.5,127.5 1176.5,127.5 1182.5,127.5C 1182.73,143.615 1181.56,159.615 1179,175.5C 1177.88,177.624 1176.38,179.457 1174.5,181C 1169.51,181.499 1164.51,181.666 1159.5,181.5C 1159.66,178.455 1158.99,175.621 1157.5,173C 1160.83,173 1164.17,173 1167.5,173C 1169.54,171.764 1170.71,169.931 1171,167.5C 1171.9,157.479 1172.73,147.479 1173.5,137.5C 1169.96,136.209 1166.46,136.209 1163,137.5C 1162.02,155.117 1155.35,170.117 1143,182.5C 1140.65,180.317 1138.48,177.984 1136.5,175.5C 1147,164.698 1152.66,151.698 1153.5,136.5C 1149.17,136.5 1144.83,136.5 1140.5,136.5C 1140.5,133.5 1140.5,130.5 1140.5,127.5C 1145.17,127.5 1149.83,127.5 1154.5,127.5C 1155.94,118.932 1153.61,111.766 1147.5,106C 1160.72,101.942 1170.38,93.775 1176.5,81.5C 1168.86,80.5025 1161.2,80.1692 1153.5,80.5C 1153.5,77.5 1153.5,74.5 1153.5,71.5C 1162.17,71.5 1170.83,71.5 1179.5,71.5C 1180.25,66.5365 1180.59,61.5365 1180.5,56.5 Z"/></g>
<g><path style="opacity:0.877" fill="#000000" d="M 1301.5,56.5 C 1305.06,56.4081 1308.39,57.2415 1311.5,59C 1311.49,60.5827 1311.83,62.2494 1312.5,64C 1329.32,76.7451 1347.99,85.7451 1368.5,91C 1365.88,93.7395 1363.38,96.5728 1361,99.5C 1357.67,98.1667 1354.33,96.8333 1351,95.5C 1350.5,107.162 1350.33,118.829 1350.5,130.5C 1319.5,130.5 1288.5,130.5 1257.5,130.5C 1257.83,119.147 1257.5,107.814 1256.5,96.5C 1253.33,98.2699 1249.99,99.1032 1246.5,99C 1244.64,96.636 1242.97,94.136 1241.5,91.5C 1260.54,86.3286 1277.88,77.8286 1293.5,66C 1296.78,63.2337 1299.44,60.067 1301.5,56.5 Z M 1303.5,69.5 C 1309.11,73.3132 1314.78,77.1465 1320.5,81C 1310.17,81.6667 1299.83,81.6667 1289.5,81C 1294.65,77.6802 1299.31,73.8469 1303.5,69.5 Z M 1278.5,86.5 C 1280.05,86.8212 1280.71,87.8212 1280.5,89.5C 1296.5,89.5 1312.5,89.5 1328.5,89.5C 1328.28,88.325 1328.61,87.325 1329.5,86.5C 1335.6,89.8822 1341.93,92.7155 1348.5,95C 1319.5,95.6667 1290.5,95.6667 1261.5,95C 1267.51,92.6635 1273.17,89.8301 1278.5,86.5 Z M 1267.5,103.5 C 1272.18,103.334 1276.85,103.501 1281.5,104C 1278.97,104.619 1276.63,105.619 1274.5,107C 1277.69,111.714 1280.36,116.714 1282.5,122C 1277.51,122.499 1272.51,122.666 1267.5,122.5C 1267.5,116.167 1267.5,109.833 1267.5,103.5 Z M 1283.5,103.5 C 1288.5,103.5 1293.5,103.5 1298.5,103.5C 1298.5,109.833 1298.5,116.167 1298.5,122.5C 1294.49,122.666 1290.49,122.499 1286.5,122C 1288.42,121.64 1290.09,120.806 1291.5,119.5C 1289.21,113.908 1286.55,108.574 1283.5,103.5 Z M 1308.5,103.5 C 1313.54,103.173 1318.54,103.506 1323.5,104.5C 1321.44,109.62 1319.11,114.62 1316.5,119.5C 1317.38,120.971 1318.71,121.804 1320.5,122C 1316.51,122.499 1312.51,122.666 1308.5,122.5C 1308.5,116.167 1308.5,109.833 1308.5,103.5 Z M 1326.5,104.5 C 1330.63,103.515 1334.97,103.182 1339.5,103.5C 1339.5,109.833 1339.5,116.167 1339.5,122.5C 1334.49,122.666 1329.49,122.499 1324.5,122C 1327.7,116.963 1330.7,111.796 1333.5,106.5C 1331.29,105.365 1328.96,104.699 1326.5,104.5 Z"/></g>
<g><path style="opacity:0.83" fill="#000000" d="M 795.5,58.5 C 802.385,61.215 808.218,65.5484 813,71.5C 813.667,72.5 813.667,73.5 813,74.5C 811,76.1667 809,77.8333 807,79.5C 802.061,73.7725 796.561,68.6058 790.5,64C 792.373,62.2962 794.04,60.4628 795.5,58.5 Z"/></g>
<g><path style="opacity:0.83" fill="#000000" d="M 1068.5,58.5 C 1076.41,61.256 1082.24,66.256 1086,73.5C 1084,75.5 1082,77.5 1080,79.5C 1074.83,73.995 1069.33,68.8283 1063.5,64C 1065.37,62.2962 1067.04,60.4628 1068.5,58.5 Z"/></g>
<g><path style="opacity:0.926" fill="#000000" d="M 428.5,62.5 C 466.5,62.5 504.5,62.5 542.5,62.5C 542.5,102.5 542.5,142.5 542.5,182.5C 538.833,182.5 535.167,182.5 531.5,182.5C 531.5,180.5 531.5,178.5 531.5,176.5C 500.5,176.5 469.5,176.5 438.5,176.5C 438.5,178.5 438.5,180.5 438.5,182.5C 435.167,182.5 431.833,182.5 428.5,182.5C 428.5,142.5 428.5,102.5 428.5,62.5 Z M 438.5,72.5 C 469.5,72.5 500.5,72.5 531.5,72.5C 531.5,103.833 531.5,135.167 531.5,166.5C 500.5,166.5 469.5,166.5 438.5,166.5C 438.5,135.167 438.5,103.833 438.5,72.5 Z M 458.5,113.5 C 463.167,113.5 467.833,113.5 472.5,113.5C 472.5,117.833 472.5,122.167 472.5,126.5C 467.833,126.5 463.167,126.5 458.5,126.5C 458.5,122.167 458.5,117.833 458.5,113.5 Z"/></g>
<g><path style="opacity:0.92" fill="#000000" d="M 296.5,63.5 C 328.833,63.5 361.167,63.5 393.5,63.5C 393.5,76.8333 393.5,90.1667 393.5,103.5C 380.163,103.333 366.829,103.5 353.5,104C 354.548,110.455 355.548,116.955 356.5,123.5C 372.167,123.5 387.833,123.5 403.5,123.5C 403.5,127.167 403.5,130.833 403.5,134.5C 388.83,134.333 374.163,134.5 359.5,135C 363.572,146.488 369.906,156.488 378.5,165C 382.825,168.671 387.658,169.838 393,168.5C 395.297,162.393 396.63,156.059 397,149.5C 399.71,151.688 402.71,153.355 406,154.5C 407.186,178.983 396.686,186.15 374.5,176C 361.156,165.155 352.489,151.321 348.5,134.5C 334.833,134.5 321.167,134.5 307.5,134.5C 307.168,145.187 307.501,155.854 308.5,166.5C 320.425,162.852 332.425,159.519 344.5,156.5C 344.942,160.154 345.276,163.821 345.5,167.5C 328.307,171.898 311.307,176.898 294.5,182.5C 293.992,179.148 292.658,176.148 290.5,173.5C 292.949,171.224 294.782,168.558 296,165.5C 296.5,131.502 296.667,97.5016 296.5,63.5 Z M 307.5,73.5 C 332.5,73.5 357.5,73.5 382.5,73.5C 382.5,80.1667 382.5,86.8333 382.5,93.5C 357.5,93.5 332.5,93.5 307.5,93.5C 307.5,86.8333 307.5,80.1667 307.5,73.5 Z M 307.5,103.5 C 319.167,103.5 330.833,103.5 342.5,103.5C 343.029,110.107 344.029,116.607 345.5,123C 332.838,123.5 320.171,123.667 307.5,123.5C 307.5,116.833 307.5,110.167 307.5,103.5 Z"/></g>
<g><path style="opacity:0.867" fill="#000000" d="M 486.5,146.5 C 489.858,144.14 492.525,141.14 494.5,137.5C 490.549,124.797 488.216,111.797 487.5,98.5C 473.5,98.5 459.5,98.5 445.5,98.5C 445.5,95.5 445.5,92.5 445.5,89.5C 459.167,89.5 472.833,89.5 486.5,89.5C 485.873,84.8592 485.54,80.1925 485.5,75.5C 488.833,75.5 492.167,75.5 495.5,75.5C 495.5,80.1667 495.5,84.8333 495.5,89.5C 502.508,89.6663 509.508,89.4996 516.5,89C 511.772,85.2744 506.772,81.9411 501.5,79C 503.333,77.1667 505.167,75.3333 507,73.5C 512.762,75.9611 517.929,79.2944 522.5,83.5C 521.018,85.4829 519.351,87.3163 517.5,89C 520.146,89.4974 522.813,89.6641 525.5,89.5C 525.5,92.5 525.5,95.5 525.5,98.5C 515.833,98.5 506.167,98.5 496.5,98.5C 497.305,108 498.972,117.333 501.5,126.5C 505.652,119.195 508.985,111.529 511.5,103.5C 514.51,104.269 517.51,105.103 520.5,106C 516.871,117.926 511.871,129.259 505.5,140C 507.159,145.193 510.326,149.026 515,151.5C 515.945,151.095 516.612,150.428 517,149.5C 517.788,145.427 518.788,141.427 520,137.5C 521.745,138.956 523.578,140.289 525.5,141.5C 526.419,147.506 525.252,153.173 522,158.5C 521.097,159.701 519.931,160.535 518.5,161C 509.212,161.182 502.545,157.015 498.5,148.5C 493.288,154.013 487.454,158.679 481,162.5C 478.369,161.037 476.202,159.037 474.5,156.5C 478.531,153.159 482.531,149.825 486.5,146.5 Z"/></g>
<g><path style="opacity:0.851" fill="#000000" d="M 587.5,85.5 C 614.833,85.5 642.167,85.5 669.5,85.5C 669.5,88.5 669.5,91.5 669.5,94.5C 642.167,94.5 614.833,94.5 587.5,94.5C 587.5,91.5 587.5,88.5 587.5,85.5 Z"/></g>
<g><path style="opacity:0.93" fill="#000000" d="M 154.5,89.5 C 193.167,89.5 231.833,89.5 270.5,89.5C 270.5,92.5 270.5,95.5 270.5,98.5C 252.833,98.5 235.167,98.5 217.5,98.5C 217.5,110.5 217.5,122.5 217.5,134.5C 236.167,134.5 254.833,134.5 273.5,134.5C 273.5,137.5 273.5,140.5 273.5,143.5C 254.833,143.5 236.167,143.5 217.5,143.5C 217.5,147.167 217.5,150.833 217.5,154.5C 233.833,154.5 250.167,154.5 266.5,154.5C 266.5,157.833 266.5,161.167 266.5,164.5C 250.167,164.5 233.833,164.5 217.5,164.5C 217.5,170.5 217.5,176.5 217.5,182.5C 213.833,182.5 210.167,182.5 206.5,182.5C 206.5,176.5 206.5,170.5 206.5,164.5C 190.167,164.5 173.833,164.5 157.5,164.5C 157.5,161.167 157.5,157.833 157.5,154.5C 173.833,154.5 190.167,154.5 206.5,154.5C 206.5,150.833 206.5,147.167 206.5,143.5C 188.167,143.5 169.833,143.5 151.5,143.5C 151.5,140.5 151.5,137.5 151.5,134.5C 169.833,134.5 188.167,134.5 206.5,134.5C 206.5,122.5 206.5,110.5 206.5,98.5C 189.167,98.5 171.833,98.5 154.5,98.5C 154.5,95.5 154.5,92.5 154.5,89.5 Z"/></g>
<g><path style="opacity:0.848" fill="#000000" d="M 749.5,98.5 C 751.39,98.2965 752.89,98.9632 754,100.5C 759.076,107.484 763.242,114.984 766.5,123C 766.355,123.772 766.022,124.439 765.5,125C 762.898,125.977 760.398,127.144 758,128.5C 753.927,119.349 749.094,110.682 743.5,102.5C 745.219,100.648 747.219,99.3145 749.5,98.5 Z"/></g>
<g><path style="opacity:0.851" fill="#000000" d="M 1021.5,98.5 C 1022.87,98.3433 1024.21,98.51 1025.5,99C 1031.13,105.754 1035.63,113.254 1039,121.5C 1039.68,122.784 1039.52,123.951 1038.5,125C 1035.8,125.765 1033.3,126.932 1031,128.5C 1026.93,119.349 1022.09,110.682 1016.5,102.5C 1018.01,100.918 1019.68,99.5845 1021.5,98.5 Z"/></g>
<g><path style="opacity:0.883" fill="#000000" d="M 174.5,101.5 C 177.833,101.5 181.167,101.5 184.5,101.5C 184.5,104.833 184.5,108.167 184.5,111.5C 190.167,111.5 195.833,111.5 201.5,111.5C 201.5,114.833 201.5,118.167 201.5,121.5C 195.833,121.5 190.167,121.5 184.5,121.5C 184.5,124.833 184.5,128.167 184.5,131.5C 181.167,131.5 177.833,131.5 174.5,131.5C 174.5,128.167 174.5,124.833 174.5,121.5C 167.833,121.5 161.167,121.5 154.5,121.5C 154.5,118.167 154.5,114.833 154.5,111.5C 161.167,111.5 167.833,111.5 174.5,111.5C 174.5,108.167 174.5,104.833 174.5,101.5 Z"/></g>
<g><path style="opacity:0.917" fill="#000000" d="M 240.5,101.5 C 243.85,101.335 247.183,101.502 250.5,102C 251.451,105.057 251.784,108.223 251.5,111.5C 257.5,111.5 263.5,111.5 269.5,111.5C 269.5,114.5 269.5,117.5 269.5,120.5C 263.5,120.5 257.5,120.5 251.5,120.5C 251.5,124.167 251.5,127.833 251.5,131.5C 247.833,131.5 244.167,131.5 240.5,131.5C 240.5,127.833 240.5,124.167 240.5,120.5C 234.833,120.5 229.167,120.5 223.5,120.5C 223.5,117.5 223.5,114.5 223.5,111.5C 229.167,111.5 234.833,111.5 240.5,111.5C 240.5,108.167 240.5,104.833 240.5,101.5 Z"/></g>
<g><path style="opacity:0.895" fill="#000000" d="M 573.5,102.5 C 602.833,102.5 632.167,102.5 661.5,102.5C 661.571,121.583 662.737,140.583 665,159.5C 665.551,164.632 668.051,168.298 672.5,170.5C 673.647,170.182 674.481,169.516 675,168.5C 675.888,162.844 676.721,157.177 677.5,151.5C 684.805,156.795 686.639,163.795 683,172.5C 682.402,175.308 681.235,177.808 679.5,180C 668.857,184.092 661.357,180.925 657,170.5C 654.042,162.088 652.376,153.422 652,144.5C 651.5,133.505 651.333,122.505 651.5,111.5C 625.5,111.5 599.5,111.5 573.5,111.5C 573.5,108.5 573.5,105.5 573.5,102.5 Z"/></g>
<g><path style="opacity:0.893" fill="#000000" d="M 450.5,106.5 C 460.833,106.5 471.167,106.5 481.5,106.5C 481.5,115.5 481.5,124.5 481.5,133.5C 471.167,133.5 460.833,133.5 450.5,133.5C 450.5,124.5 450.5,115.5 450.5,106.5 Z M 458.5,113.5 C 458.5,117.833 458.5,122.167 458.5,126.5C 463.167,126.5 467.833,126.5 472.5,126.5C 472.5,122.167 472.5,117.833 472.5,113.5C 467.833,113.5 463.167,113.5 458.5,113.5 Z"/></g>
<g><path style="opacity:0.886" fill="#000000" d="M 600.5,113.5 C 604.167,113.5 607.833,113.5 611.5,113.5C 611.5,121.5 611.5,129.5 611.5,137.5C 615.514,137.666 619.514,137.499 623.5,137C 621.377,136.185 619.377,135.185 617.5,134C 622.37,127.761 626.87,121.261 631,114.5C 634.243,115.872 637.409,117.372 640.5,119C 635.877,125.292 630.877,131.292 625.5,137C 632.826,137.5 640.159,137.666 647.5,137.5C 647.5,140.5 647.5,143.5 647.5,146.5C 635.5,146.5 623.5,146.5 611.5,146.5C 611.5,158.167 611.5,169.833 611.5,181.5C 607.833,181.5 604.167,181.5 600.5,181.5C 600.5,169.833 600.5,158.167 600.5,146.5C 588.5,146.5 576.5,146.5 564.5,146.5C 564.5,143.5 564.5,140.5 564.5,137.5C 576.5,137.5 588.5,137.5 600.5,137.5C 600.5,129.5 600.5,121.5 600.5,113.5 Z"/></g>
<g><path style="opacity:0.889" fill="#000000" d="M 1199.5,113.5 C 1202.83,113.5 1206.17,113.5 1209.5,113.5C 1209.33,118.181 1209,122.848 1208.5,127.5C 1215.17,127.5 1221.83,127.5 1228.5,127.5C 1228.81,143.633 1227.65,159.633 1225,175.5C 1224.17,178.333 1222.33,180.167 1219.5,181C 1214.51,181.499 1209.51,181.666 1204.5,181.5C 1204.66,178.455 1203.99,175.621 1202.5,173C 1207.31,173.072 1211.81,172.239 1216,170.5C 1218.03,159.267 1218.86,147.933 1218.5,136.5C 1214.83,136.5 1211.17,136.5 1207.5,136.5C 1206.72,151.359 1201.88,164.692 1193,176.5C 1191.26,178.741 1189.09,180.408 1186.5,181.5C 1184.53,179.192 1182.53,176.858 1180.5,174.5C 1191.56,164.355 1197.22,151.688 1197.5,136.5C 1193.5,136.5 1189.5,136.5 1185.5,136.5C 1185.5,133.5 1185.5,130.5 1185.5,127.5C 1189.83,127.5 1194.17,127.5 1198.5,127.5C 1199.13,122.859 1199.46,118.193 1199.5,113.5 Z"/></g>
<g><path style="opacity:0.827" fill="#000000" d="M 580.5,114.5 C 585.941,118.974 589.941,124.641 592.5,131.5C 590.548,134.151 587.881,135.818 584.5,136.5C 581.339,130.176 577.672,124.176 573.5,118.5C 576.05,117.396 578.383,116.063 580.5,114.5 Z"/></g>
<g><path style="opacity:0.905" fill="#000000" d="M 1265.5,136.5 C 1291.5,136.5 1317.5,136.5 1343.5,136.5C 1343.5,151.5 1343.5,166.5 1343.5,181.5C 1339.83,181.5 1336.17,181.5 1332.5,181.5C 1332.5,180.167 1332.5,178.833 1332.5,177.5C 1313.83,177.5 1295.17,177.5 1276.5,177.5C 1276.5,178.833 1276.5,180.167 1276.5,181.5C 1272.83,181.5 1269.17,181.5 1265.5,181.5C 1265.5,166.5 1265.5,151.5 1265.5,136.5 Z M 1276.5,144.5 C 1295.17,144.5 1313.83,144.5 1332.5,144.5C 1332.5,147.167 1332.5,149.833 1332.5,152.5C 1313.83,152.5 1295.17,152.5 1276.5,152.5C 1276.5,149.833 1276.5,147.167 1276.5,144.5 Z M 1276.5,160.5 C 1295.17,160.5 1313.83,160.5 1332.5,160.5C 1332.5,163.5 1332.5,166.5 1332.5,169.5C 1313.83,169.5 1295.17,169.5 1276.5,169.5C 1276.5,166.5 1276.5,163.5 1276.5,160.5 Z"/></g>
<g><path style="opacity:0.856" fill="#000000" d="M 486.5,146.5 C 473.799,148.573 461.133,150.907 448.5,153.5C 445.516,153.214 444.183,151.548 444.5,148.5C 444.57,147.228 444.903,146.062 445.5,145C 458.813,142.637 472.146,140.47 485.5,138.5C 486.092,141.127 486.425,143.794 486.5,146.5 Z"/></g>
<g><path style="opacity:0.842" fill="#000000" d="M 589.5,149.5 C 591.812,150.32 594.146,151.153 596.5,152C 597.517,153.049 597.684,154.216 597,155.5C 590.167,165 582,173.167 572.5,180C 571.241,180.982 569.908,181.315 568.5,181C 566.69,178.356 564.69,175.856 562.5,173.5C 573.381,167.619 582.381,159.619 589.5,149.5 Z"/></g>
<g><path style="opacity:0.834" fill="#000000" d="M 621.5,149.5 C 631.286,155.505 640.12,162.839 648,171.5C 647.082,175.414 644.582,177.581 640.5,178C 633.266,170.096 625.433,162.929 617,156.5C 616.333,155.833 616.333,155.167 617,154.5C 618.707,152.963 620.207,151.296 621.5,149.5 Z"/></g>
<g><path style="opacity:0.835" fill="#000000" d="M 29.5,236.5 C 42.1184,234.805 50.785,239.805 55.5,251.5C 53.3923,252.355 51.2256,253.022 49,253.5C 43.7434,243.276 35.9101,240.776 25.5,246C 18.0833,255.017 16.9166,264.851 22,275.5C 29.0837,283.852 36.7503,284.519 45,277.5C 46.5945,274.879 48.0945,272.213 49.5,269.5C 51.3817,270.093 53.2151,270.76 55,271.5C 54.4358,280.089 49.9358,285.589 41.5,288C 26.1005,291.226 16.2671,285.393 12,270.5C 8.16719,253.824 14.0005,242.491 29.5,236.5 Z"/></g>
<g><path style="opacity:0.863" fill="#000000" d="M 62.5,237.5 C 64.8333,237.5 67.1667,237.5 69.5,237.5C 69.334,242.844 69.5006,248.177 70,253.5C 76.5046,249.534 83.0046,249.534 89.5,253.5C 90.5836,254.665 91.4169,255.998 92,257.5C 92.4998,267.494 92.6665,277.494 92.5,287.5C 90.1667,287.5 87.8333,287.5 85.5,287.5C 85.6664,278.494 85.4998,269.494 85,260.5C 81.9746,256.299 78.1413,255.465 73.5,258C 71.5125,259.319 70.3459,261.152 70,263.5C 69.5003,271.493 69.3336,279.493 69.5,287.5C 67.1667,287.5 64.8333,287.5 62.5,287.5C 62.5,270.833 62.5,254.167 62.5,237.5 Z"/></g>
<g><path style="opacity:0.749" fill="#000000" d="M 100.5,237.5 C 102.833,237.5 105.167,237.5 107.5,237.5C 107.5,240.167 107.5,242.833 107.5,245.5C 105.167,245.5 102.833,245.5 100.5,245.5C 100.5,242.833 100.5,240.167 100.5,237.5 Z"/></g>
<g><path style="opacity:0.832" fill="#000000" d="M 282.5,237.5 C 295.833,237.5 309.167,237.5 322.5,237.5C 322.5,239.833 322.5,242.167 322.5,244.5C 317.167,244.5 311.833,244.5 306.5,244.5C 306.5,258.833 306.5,273.167 306.5,287.5C 303.833,287.5 301.167,287.5 298.5,287.5C 298.5,273.167 298.5,258.833 298.5,244.5C 293.167,244.5 287.833,244.5 282.5,244.5C 282.5,242.167 282.5,239.833 282.5,237.5 Z"/></g>
<g><path style="opacity:0.748" fill="#000000" d="M 366.5,237.5 C 368.833,237.5 371.167,237.5 373.5,237.5C 373.5,240.167 373.5,242.833 373.5,245.5C 371.167,245.5 368.833,245.5 366.5,245.5C 366.5,242.833 366.5,240.167 366.5,237.5 Z"/></g>
<g><path style="opacity:0.748" fill="#000000" d="M 459.5,237.5 C 461.833,237.5 464.167,237.5 466.5,237.5C 466.5,240.167 466.5,242.833 466.5,245.5C 464.167,245.5 461.833,245.5 459.5,245.5C 459.5,242.833 459.5,240.167 459.5,237.5 Z"/></g>
<g><path style="opacity:0.827" fill="#000000" d="M 494.5,237.5 C 506.167,237.5 517.833,237.5 529.5,237.5C 529.5,239.833 529.5,242.167 529.5,244.5C 520.5,244.5 511.5,244.5 502.5,244.5C 502.5,249.167 502.5,253.833 502.5,258.5C 510.167,258.5 517.833,258.5 525.5,258.5C 525.5,260.833 525.5,263.167 525.5,265.5C 517.833,265.5 510.167,265.5 502.5,265.5C 502.5,272.833 502.5,280.167 502.5,287.5C 499.833,287.5 497.167,287.5 494.5,287.5C 494.5,270.833 494.5,254.167 494.5,237.5 Z"/></g>
<g><path style="opacity:0.826" fill="#000000" d="M 701.5,237.5 C 704.448,237.223 707.281,237.556 710,238.5C 714.541,251.957 719.374,265.291 724.5,278.5C 730.098,265.038 735.098,251.371 739.5,237.5C 742.167,237.5 744.833,237.5 747.5,237.5C 741.638,253.914 735.472,270.248 729,286.5C 726,287.833 723,287.833 720,286.5C 713.532,270.26 707.365,253.926 701.5,237.5 Z"/></g>
<g><path style="opacity:0.863" fill="#000000" d="M 790.5,237.5 C 792.833,237.5 795.167,237.5 797.5,237.5C 797.5,254.167 797.5,270.833 797.5,287.5C 795.167,287.5 792.833,287.5 790.5,287.5C 790.5,270.833 790.5,254.167 790.5,237.5 Z"/></g>
<g><path style="opacity:0.863" fill="#000000" d="M 805.5,237.5 C 807.833,237.5 810.167,237.5 812.5,237.5C 812.5,254.167 812.5,270.833 812.5,287.5C 810.167,287.5 807.833,287.5 805.5,287.5C 805.5,270.833 805.5,254.167 805.5,237.5 Z"/></g>
<g><path style="opacity:0.84" fill="#000000" d="M 894.5,237.5 C 896.833,237.5 899.167,237.5 901.5,237.5C 901.334,242.844 901.501,248.177 902,253.5C 913.538,247.274 921.538,250.274 926,262.5C 928.353,272.279 925.853,280.446 918.5,287C 912.63,289.429 907.13,288.929 902,285.5C 899.894,287.291 897.394,287.958 894.5,287.5C 894.5,270.833 894.5,254.167 894.5,237.5 Z M 907.5,256.5 C 914.419,255.588 918.253,258.588 919,265.5C 919.658,269.572 919.325,273.572 918,277.5C 915.459,282.069 911.625,283.569 906.5,282C 904.622,280.457 903.122,278.624 902,276.5C 901.333,272.167 901.333,267.833 902,263.5C 902.967,260.379 904.8,258.046 907.5,256.5 Z"/></g>
<g><path style="opacity:0.863" fill="#000000" d="M 971.5,237.5 C 973.833,237.5 976.167,237.5 978.5,237.5C 978.5,254.167 978.5,270.833 978.5,287.5C 976.167,287.5 973.833,287.5 971.5,287.5C 971.5,270.833 971.5,254.167 971.5,237.5 Z"/></g>
<g><path style="opacity:0.863" fill="#000000" d="M 986.5,237.5 C 988.833,237.5 991.167,237.5 993.5,237.5C 993.5,254.167 993.5,270.833 993.5,287.5C 991.167,287.5 988.833,287.5 986.5,287.5C 986.5,270.833 986.5,254.167 986.5,237.5 Z"/></g>
<g><path style="opacity:0.852" fill="#000000" d="M 1035.5,237.5 C 1039.03,236.989 1042.2,237.656 1045,239.5C 1051.31,255.431 1057.81,271.264 1064.5,287C 1061.45,287.821 1058.45,287.655 1055.5,286.5C 1053.43,281.95 1051.76,277.283 1050.5,272.5C 1043.83,272.334 1037.16,272.5 1030.5,273C 1028.4,277.691 1026.74,282.525 1025.5,287.5C 1022.48,287.665 1019.48,287.498 1016.5,287C 1023.33,270.677 1029.66,254.177 1035.5,237.5 Z M 1039.5,245.5 C 1042.11,252.078 1044.78,258.745 1047.5,265.5C 1042.53,266.662 1037.53,266.829 1032.5,266C 1035.53,259.409 1037.86,252.576 1039.5,245.5 Z"/></g>
<g><path style="opacity:0.748" fill="#000000" d="M 1210.5,237.5 C 1212.83,237.5 1215.17,237.5 1217.5,237.5C 1217.5,240.167 1217.5,242.833 1217.5,245.5C 1215.17,245.5 1212.83,245.5 1210.5,245.5C 1210.5,242.833 1210.5,240.167 1210.5,237.5 Z"/></g>
<g><path style="opacity:0.749" fill="#000000" d="M 1283.5,237.5 C 1285.83,237.5 1288.17,237.5 1290.5,237.5C 1290.5,240.167 1290.5,242.833 1290.5,245.5C 1288.17,245.5 1285.83,245.5 1283.5,245.5C 1283.5,242.833 1283.5,240.167 1283.5,237.5 Z"/></g>
<g><path style="opacity:0.841" fill="#000000" d="M 1270.5,238.5 C 1272.43,242.373 1273.1,246.706 1272.5,251.5C 1274.5,251.5 1276.5,251.5 1278.5,251.5C 1278.5,253.167 1278.5,254.833 1278.5,256.5C 1276.5,256.5 1274.5,256.5 1272.5,256.5C 1272.33,264.507 1272.5,272.507 1273,280.5C 1274.7,281.406 1276.53,281.739 1278.5,281.5C 1278.99,283.807 1278.99,285.973 1278.5,288C 1274.43,288.956 1270.59,288.456 1267,286.5C 1265.55,276.605 1265.05,266.605 1265.5,256.5C 1263.83,256.5 1262.17,256.5 1260.5,256.5C 1260.5,254.833 1260.5,253.167 1260.5,251.5C 1262.17,251.5 1263.83,251.5 1265.5,251.5C 1264.46,245.853 1266.13,241.52 1270.5,238.5 Z"/></g>
<g><path style="opacity:0.863" fill="#000000" d="M 128.5,250.5 C 134.971,249.345 140.471,251.011 145,255.5C 146.429,266.088 146.929,276.755 146.5,287.5C 144.167,287.5 141.833,287.5 139.5,287.5C 139.666,278.827 139.5,270.16 139,261.5C 136.447,256.374 132.614,255.207 127.5,258C 125.951,259.214 124.785,260.714 124,262.5C 123.5,270.827 123.334,279.16 123.5,287.5C 121.167,287.5 118.833,287.5 116.5,287.5C 116.5,275.5 116.5,263.5 116.5,251.5C 118.5,251.5 120.5,251.5 122.5,251.5C 122.351,252.552 122.517,253.552 123,254.5C 124.812,253.023 126.645,251.69 128.5,250.5 Z"/></g>
<g><path style="opacity:0.827" fill="#000000" d="M 164.5,250.5 C 180.308,248.642 187.641,255.642 186.5,271.5C 177.833,271.5 169.167,271.5 160.5,271.5C 161.009,280.506 165.676,284.006 174.5,282C 176.871,280.594 178.538,278.594 179.5,276C 182.363,275.035 184.696,275.702 186.5,278C 182.206,287.451 174.872,290.785 164.5,288C 156.299,284.962 152.299,278.962 152.5,270C 152.637,260.854 156.637,254.354 164.5,250.5 Z M 166.5,256.5 C 173.855,255.332 178.188,258.332 179.5,265.5C 173.132,265.83 166.798,265.496 160.5,264.5C 161.561,261.009 163.561,258.342 166.5,256.5 Z"/></g>
<g><path style="opacity:0.813" fill="#000000" d="M 199.5,250.5 C 205.402,249.962 211.068,250.795 216.5,253C 218.782,255.397 220.116,258.231 220.5,261.5C 218.409,261.318 216.409,261.652 214.5,262.5C 211.446,256.682 206.78,255.015 200.5,257.5C 197.736,260.51 198.403,262.676 202.5,264C 208.825,264.995 214.658,267.162 220,270.5C 223.764,282.579 219.264,288.579 206.5,288.5C 197.742,289.298 192.409,285.464 190.5,277C 193.014,275.748 195.68,275.248 198.5,275.5C 198.444,278.561 199.778,280.728 202.5,282C 205.5,282.667 208.5,282.667 211.5,282C 215.5,279.333 215.5,276.667 211.5,274C 205.175,273.005 199.342,270.838 194,267.5C 190.32,260.041 192.153,254.374 199.5,250.5 Z"/></g>
<g><path style="opacity:0.829" fill="#000000" d="M 237.5,250.5 C 253.101,248.767 260.768,255.767 260.5,271.5C 251.5,271.5 242.5,271.5 233.5,271.5C 234.388,280.106 239.054,283.606 247.5,282C 250.033,280.967 251.699,279.133 252.5,276.5C 259.86,274.686 261.36,277.019 257,283.5C 255.048,285.894 252.548,287.394 249.5,288C 230.663,289.921 223.163,281.421 227,262.5C 228.936,257.068 232.436,253.068 237.5,250.5 Z M 239.5,256.5 C 246.915,255.355 251.248,258.355 252.5,265.5C 246.158,265.666 239.825,265.5 233.5,265C 234.896,261.695 236.896,258.862 239.5,256.5 Z"/></g>
<g><path style="opacity:0.839" fill="#000000" d="M 337.5,250.5 C 341.846,250.334 346.179,250.501 350.5,251C 353.196,251.69 355.363,253.19 357,255.5C 358.225,265.107 358.892,274.774 359,284.5C 359.374,285.416 359.874,286.25 360.5,287C 356.719,288.098 353.553,287.265 351,284.5C 344.659,288.745 337.826,289.579 330.5,287C 325.167,281 325.167,275 330.5,269C 337.365,266.856 344.365,265.356 351.5,264.5C 351.764,258.598 348.93,255.931 343,256.5C 337.764,256.034 334.597,258.367 333.5,263.5C 331.591,262.652 329.591,262.318 327.5,262.5C 328.302,256.367 331.635,252.367 337.5,250.5 Z M 348.5,270.5 C 349.5,270.5 350.5,270.5 351.5,270.5C 351.782,278.215 348.115,282.549 340.5,283.5C 334.537,282.747 332.703,279.747 335,274.5C 339.54,272.967 344.04,271.634 348.5,270.5 Z"/></g>
<g><path style="opacity:0.854" fill="#000000" d="M 393.5,250.5 C 407.084,249.412 414.084,255.746 414.5,269.5C 413.304,286.159 405.137,291.492 390,285.5C 389.501,290.823 389.334,296.156 389.5,301.5C 387.167,301.5 384.833,301.5 382.5,301.5C 382.5,284.833 382.5,268.167 382.5,251.5C 384.5,251.5 386.5,251.5 388.5,251.5C 388.351,252.552 388.517,253.552 389,254.5C 390.397,252.93 391.897,251.596 393.5,250.5 Z M 394.5,256.5 C 400.156,255.243 403.989,257.243 406,262.5C 408.664,270.009 407.164,276.509 401.5,282C 396.375,283.569 392.541,282.069 390,277.5C 387.251,269.504 388.751,262.504 394.5,256.5 Z"/></g>
<g><path style="opacity:0.83" fill="#000000" d="M 430.5,250.5 C 446.318,248.652 453.651,255.652 452.5,271.5C 443.833,271.5 435.167,271.5 426.5,271.5C 426.963,280.453 431.63,283.953 440.5,282C 442.543,280.292 444.21,278.292 445.5,276C 451.248,274.564 453.082,276.398 451,281.5C 443.726,289.048 435.226,290.548 425.5,286C 417.188,276.511 416.355,266.345 423,255.5C 425.426,253.548 427.926,251.881 430.5,250.5 Z M 432.5,256.5 C 439.254,255.372 443.587,258.038 445.5,264.5C 439.167,265.833 432.833,265.833 426.5,264.5C 427.406,260.938 429.406,258.272 432.5,256.5 Z"/></g>
<g><path style="opacity:0.825" fill="#000000" d="M 581.5,250.5 C 587.105,249.908 592.439,250.741 597.5,253C 600.321,255.141 601.654,257.975 601.5,261.5C 599.409,261.318 597.409,261.652 595.5,262.5C 592.979,256.797 588.646,254.964 582.5,257C 580.398,258.733 580.065,260.733 581.5,263C 586.833,264.667 592.167,266.333 597.5,268C 598.931,268.465 600.097,269.299 601,270.5C 604.844,282.33 600.51,288.33 588,288.5C 580.009,289.314 574.842,285.981 572.5,278.5C 574.026,275.908 576.359,274.908 579.5,275.5C 579.444,278.561 580.778,280.728 583.5,282C 586.5,282.667 589.5,282.667 592.5,282C 596.405,279.142 596.405,276.475 592.5,274C 586.175,273.005 580.342,270.838 575,267.5C 571.366,259.39 573.532,253.723 581.5,250.5 Z"/></g>
<g><path style="opacity:0.828" fill="#000000" d="M 619.5,250.5 C 634.646,249.313 641.98,256.313 641.5,271.5C 632.475,271.168 623.475,271.502 614.5,272.5C 616.682,281.423 622.016,284.257 630.5,281C 632.607,279.736 633.607,277.903 633.5,275.5C 640.802,274.31 642.635,276.643 639,282.5C 633.331,288.212 626.497,290.045 618.5,288C 610.597,284.655 606.93,278.655 607.5,270C 607.112,260.579 611.112,254.079 619.5,250.5 Z M 621.5,256.5 C 628.217,255.356 632.55,258.023 634.5,264.5C 628.202,265.496 621.868,265.83 615.5,265.5C 615.932,261.41 617.932,258.41 621.5,256.5 Z"/></g>
<g><path style="opacity:0.819" fill="#000000" d="M 660.5,250.5 C 665.449,249.959 670.116,250.792 674.5,253C 675.701,253.903 676.535,255.069 677,256.5C 678.399,266.768 678.899,277.102 678.5,287.5C 676.167,287.5 673.833,287.5 671.5,287.5C 671.886,278.1 671.386,268.766 670,259.5C 664.653,255.235 659.986,255.902 656,261.5C 655.5,270.16 655.334,278.827 655.5,287.5C 652.833,287.5 650.167,287.5 647.5,287.5C 647.5,275.5 647.5,263.5 647.5,251.5C 649.833,251.5 652.167,251.5 654.5,251.5C 654.351,252.552 654.517,253.552 655,254.5C 656.812,253.023 658.645,251.69 660.5,250.5 Z"/></g>
<g><path style="opacity:0.829" fill="#000000" d="M 761.5,250.5 C 780.844,250.121 788.01,259.454 783,278.5C 777.427,288.249 769.26,291.082 758.5,287C 752.219,282.939 749.219,277.106 749.5,269.5C 749.262,260.276 753.262,253.943 761.5,250.5 Z M 763.5,256.5 C 772.6,255.931 777.267,260.264 777.5,269.5C 777.284,278.892 772.617,283.058 763.5,282C 758.722,279.285 756.389,275.118 756.5,269.5C 756.519,263.787 758.853,259.454 763.5,256.5 Z"/></g>
<g><path style="opacity:0.826" fill="#000000" d="M 830.5,250.5 C 846.125,248.792 853.792,255.792 853.5,271.5C 844.475,271.168 835.475,271.502 826.5,272.5C 828.111,280.29 832.778,283.457 840.5,282C 843.033,280.967 844.699,279.133 845.5,276.5C 852.84,274.351 854.673,276.351 851,282.5C 845.331,288.212 838.497,290.045 830.5,288C 820.625,282.741 817.125,274.575 820,263.5C 821.534,257.477 825.034,253.144 830.5,250.5 Z M 833.5,256.5 C 840.167,255.83 844.501,258.664 846.5,265C 840.175,265.5 833.842,265.666 827.5,265.5C 827.932,261.41 829.932,258.41 833.5,256.5 Z"/></g>
<g><path style="opacity:0.838" fill="#000000" d="M 941.5,250.5 C 946.179,250.334 950.845,250.501 955.5,251C 958.196,251.69 960.363,253.19 962,255.5C 963.193,265.117 963.859,274.784 964,284.5C 964.374,285.416 964.874,286.25 965.5,287C 961.719,288.098 958.553,287.265 956,284.5C 954.2,286.317 952.034,287.484 949.5,288C 935.116,290.951 929.616,285.451 933,271.5C 934.214,269.951 935.714,268.785 937.5,268C 943.804,266.616 950.138,265.449 956.5,264.5C 956.748,258.582 953.915,255.915 948,256.5C 945.7,256.494 943.534,256.994 941.5,258C 940.458,259.918 939.292,261.751 938,263.5C 936.301,262.594 934.467,262.261 932.5,262.5C 933.211,256.789 936.211,252.789 941.5,250.5 Z M 953.5,270.5 C 954.5,270.5 955.5,270.5 956.5,270.5C 956.776,278.22 953.11,282.554 945.5,283.5C 940.465,282.98 938.299,280.313 939,275.5C 939.903,274.299 941.069,273.465 942.5,273C 946.392,272.581 950.058,271.748 953.5,270.5 Z"/></g>
<g><path style="opacity:0.822" fill="#000000" d="M 1074.5,250.5 C 1080.11,249.908 1085.44,250.741 1090.5,253C 1093.32,255.141 1094.65,257.975 1094.5,261.5C 1092.41,261.318 1090.41,261.652 1088.5,262.5C 1085.5,256.354 1080.83,254.854 1074.5,258C 1073.17,259.667 1073.17,261.333 1074.5,263C 1079.83,264.667 1085.17,266.333 1090.5,268C 1097.97,273.47 1098.3,279.47 1091.5,286C 1085,288.935 1078.34,289.268 1071.5,287C 1068.53,284.859 1066.53,282.025 1065.5,278.5C 1067.03,275.908 1069.36,274.908 1072.5,275.5C 1074.32,282.147 1078.65,284.314 1085.5,282C 1088.36,280.214 1089.03,277.881 1087.5,275C 1083.22,273.514 1078.89,272.181 1074.5,271C 1067.21,268.698 1064.71,263.865 1067,256.5C 1069.13,253.847 1071.63,251.847 1074.5,250.5 Z"/></g>
<g><path style="opacity:0.819" fill="#000000" d="M 1108.5,250.5 C 1114.43,249.889 1120.1,250.722 1125.5,253C 1128.08,255.228 1129.41,258.061 1129.5,261.5C 1127.41,261.318 1125.41,261.652 1123.5,262.5C 1120.86,256.94 1116.53,255.107 1110.5,257C 1107.27,258.724 1106.94,260.724 1109.5,263C 1114.83,264.667 1120.17,266.333 1125.5,268C 1126.93,268.465 1128.1,269.299 1129,270.5C 1132.84,282.33 1128.51,288.33 1116,288.5C 1107.86,289.526 1102.69,286.193 1100.5,278.5C 1102.03,275.908 1104.36,274.908 1107.5,275.5C 1107.44,278.561 1108.78,280.728 1111.5,282C 1114.5,282.667 1117.5,282.667 1120.5,282C 1124.41,279.142 1124.41,276.475 1120.5,274C 1114.17,273.005 1108.34,270.838 1103,267.5C 1099.43,260.131 1101.26,254.464 1108.5,250.5 Z"/></g>
<g><path style="opacity:0.83" fill="#000000" d="M 1146.5,250.5 C 1166.64,250.17 1173.81,259.837 1168,279.5C 1162.96,287.409 1155.79,290.242 1146.5,288C 1138.37,284.675 1134.37,278.508 1134.5,269.5C 1134.55,260.488 1138.55,254.155 1146.5,250.5 Z M 1148.5,256.5 C 1159.61,256.652 1164.11,262.319 1162,273.5C 1158.97,283.003 1153.3,285.003 1145,279.5C 1142.58,274.43 1141.91,269.097 1143,263.5C 1143.97,260.379 1145.8,258.046 1148.5,256.5 Z"/></g>
<g><path style="opacity:0.809" fill="#000000" d="M 1185.5,250.5 C 1195.48,248.485 1202.15,252.152 1205.5,261.5C 1204,262.557 1202.33,263.224 1200.5,263.5C 1198.5,261.038 1196.17,258.872 1193.5,257C 1184.9,256.432 1180.56,260.598 1180.5,269.5C 1180.76,278.943 1185.43,283.11 1194.5,282C 1197.32,279.859 1198.65,277.025 1198.5,273.5C 1200.81,273.993 1203.14,274.326 1205.5,274.5C 1205.62,281.092 1202.62,285.592 1196.5,288C 1181.86,290.526 1174.19,284.359 1173.5,269.5C 1173.26,260.276 1177.26,253.943 1185.5,250.5 Z"/></g>
<g><path style="opacity:0.835" fill="#000000" d="M 1234.5,250.5 C 1239.18,250.334 1243.85,250.501 1248.5,251C 1250.85,251.346 1252.68,252.513 1254,254.5C 1255.02,265.157 1256.18,275.824 1257.5,286.5C 1255.24,287.647 1252.9,287.814 1250.5,287C 1249.87,286.25 1249.37,285.416 1249,284.5C 1243.38,288.265 1237.21,289.432 1230.5,288C 1222.13,282.468 1221.46,276.134 1228.5,269C 1234.31,266.93 1240.31,265.597 1246.5,265C 1249.44,259.55 1247.61,256.717 1241,256.5C 1235.73,256.131 1232.4,258.464 1231,263.5C 1228.85,262.887 1226.69,262.221 1224.5,261.5C 1225.81,255.858 1229.15,252.191 1234.5,250.5 Z M 1246.5,270.5 C 1249.28,274.296 1248.62,277.796 1244.5,281C 1240.11,284.448 1235.94,284.282 1232,280.5C 1231.1,277.975 1231.6,275.808 1233.5,274C 1237.94,272.826 1242.28,271.659 1246.5,270.5 Z"/></g>
<g><path style="opacity:0.829" fill="#000000" d="M 1308.5,250.5 C 1327.84,250.121 1335.01,259.454 1330,278.5C 1324.43,288.249 1316.26,291.082 1305.5,287C 1299.22,282.939 1296.22,277.106 1296.5,269.5C 1296.26,260.276 1300.26,253.943 1308.5,250.5 Z M 1310.5,256.5 C 1319.6,255.931 1324.27,260.264 1324.5,269.5C 1324.28,278.892 1319.62,283.058 1310.5,282C 1305.72,279.285 1303.39,275.118 1303.5,269.5C 1303.52,263.787 1305.85,259.454 1310.5,256.5 Z"/></g>
<g><path style="opacity:0.866" fill="#000000" d="M 1349.5,250.5 C 1357.09,248.855 1362.92,251.188 1367,257.5C 1367.5,267.494 1367.67,277.494 1367.5,287.5C 1365.17,287.5 1362.83,287.5 1360.5,287.5C 1360.67,278.827 1360.5,270.16 1360,261.5C 1359.29,258.05 1357.12,256.384 1353.5,256.5C 1349,256.831 1346.17,259.164 1345,263.5C 1344.5,271.493 1344.33,279.493 1344.5,287.5C 1342.17,287.5 1339.83,287.5 1337.5,287.5C 1337.5,275.5 1337.5,263.5 1337.5,251.5C 1339.5,251.5 1341.5,251.5 1343.5,251.5C 1343.34,252.873 1343.51,254.207 1344,255.5C 1345.7,253.627 1347.54,251.96 1349.5,250.5 Z"/></g>
<g><path style="opacity:0.867" fill="#000000" d="M 100.5,251.5 C 102.833,251.5 105.167,251.5 107.5,251.5C 107.5,263.5 107.5,275.5 107.5,287.5C 105.167,287.5 102.833,287.5 100.5,287.5C 100.5,275.5 100.5,263.5 100.5,251.5 Z"/></g>
<g><path style="opacity:0.866" fill="#000000" d="M 366.5,251.5 C 368.833,251.5 371.167,251.5 373.5,251.5C 373.5,263.5 373.5,275.5 373.5,287.5C 371.167,287.5 368.833,287.5 366.5,287.5C 366.5,275.5 366.5,263.5 366.5,251.5 Z"/></g>
<g><path style="opacity:0.867" fill="#000000" d="M 459.5,251.5 C 461.833,251.5 464.167,251.5 466.5,251.5C 466.5,263.5 466.5,275.5 466.5,287.5C 464.167,287.5 461.833,287.5 459.5,287.5C 459.5,275.5 459.5,263.5 459.5,251.5 Z"/></g>
<g><path style="opacity:0.85" fill="#000000" d="M 536.5,251.5 C 538.833,251.5 541.167,251.5 543.5,251.5C 543.334,260.839 543.5,270.173 544,279.5C 549.441,283.926 554.108,283.259 558,277.5C 559.376,268.902 559.876,260.235 559.5,251.5C 561.833,251.5 564.167,251.5 566.5,251.5C 566.5,263.5 566.5,275.5 566.5,287.5C 564.167,287.5 561.833,287.5 559.5,287.5C 559.649,286.448 559.483,285.448 559,284.5C 556.464,287.766 553.131,289.1 549,288.5C 543.264,288.971 539.264,286.637 537,281.5C 536.5,271.506 536.334,261.506 536.5,251.5 Z"/></g>
<g><path style="opacity:0.83" fill="#000000" d="M 856.5,251.5 C 859.167,251.5 861.833,251.5 864.5,251.5C 867.223,260.168 870.056,268.835 873,277.5C 876.856,269.1 880.023,260.433 882.5,251.5C 885.187,251.336 887.854,251.503 890.5,252C 884.534,267.563 878.367,283.063 872,298.5C 868.692,302.352 864.692,303.352 860,301.5C 859.654,299.782 859.154,298.115 858.5,296.5C 864.892,296.771 868.559,293.771 869.5,287.5C 865.156,275.484 860.823,263.484 856.5,251.5 Z"/></g>
<g><path style="opacity:0.866" fill="#000000" d="M 1210.5,251.5 C 1212.83,251.5 1215.17,251.5 1217.5,251.5C 1217.5,263.5 1217.5,275.5 1217.5,287.5C 1215.17,287.5 1212.83,287.5 1210.5,287.5C 1210.5,275.5 1210.5,263.5 1210.5,251.5 Z"/></g>
<g><path style="opacity:0.868" fill="#000000" d="M 1283.5,251.5 C 1285.83,251.5 1288.17,251.5 1290.5,251.5C 1290.5,263.5 1290.5,275.5 1290.5,287.5C 1288.17,287.5 1285.83,287.5 1283.5,287.5C 1283.5,275.5 1283.5,263.5 1283.5,251.5 Z"/></g>
</svg>
