<?xml version="1.0" encoding="UTF-8"?>
<svg version="1.1" xmlns="http://www.w3.org/2000/svg" width="500" height="500">
<path d="M0 0 C0.9477832 0.18755859 1.89556641 0.37511719 2.87207031 0.56835938 C5.83667966 1.16886038 8.79404569 1.79581509 11.75 2.4375 C13.10762451 2.72693481 13.10762451 2.72693481 14.49267578 3.0222168 C19.41692557 4.14921668 23.66754017 5.6193196 28.11865234 8.00708008 C29.9442543 8.97057906 31.77507605 9.78595889 33.68359375 10.5703125 C56.48928227 19.98060256 76.48389979 34.27938678 94.64453125 50.86328125 C96.66993971 52.70059208 98.72831255 54.48040688 100.8125 56.25 C104.68377629 59.62639148 108.34711917 63.20347543 112 66.8125 C112.58885986 67.38838867 113.17771973 67.96427734 113.78442383 68.55761719 C115.22951182 69.99950383 116.61990861 71.49578454 118 73 C118 73.66 118 74.32 118 75 C118.66 75 119.32 75 120 75 C120 75.66 120 76.32 120 77 C120.66 77 121.32 77 122 77 C123.33984375 78.328125 123.33984375 78.328125 124.9375 80.25 C127.90091769 83.75110997 130.97488733 87.10343914 134.125 90.4375 C140.40725772 97.20040341 145.92897265 104.50668235 151.43310547 111.90673828 C152.88595913 113.84764935 154.36182401 115.767885 155.84765625 117.68359375 C172.14717008 138.93231733 184.01478239 163.51227141 192 189 C192.26409668 189.83805176 192.52819336 190.67610352 192.80029297 191.53955078 C200.79290444 217.43521651 204.2361734 244.21567995 204.3125 271.25 C204.31511841 272.13750946 204.31773682 273.02501892 204.32043457 273.93942261 C204.32487533 288.00662927 203.33383853 301.28955155 200 315 C199.71746166 316.32366847 199.43734597 317.6478574 199.16015625 318.97265625 C191.99795254 349.83284276 172.94473257 378.73070386 148 398 C146.61167969 399.11181641 146.61167969 399.11181641 145.1953125 400.24609375 C137.26997447 406.44246237 128.88764083 411.34897764 120 416 C118.8759375 416.59554688 117.751875 417.19109375 116.59375 417.8046875 C77.21520158 437.40364394 32.04585581 442.18834793 -11.3269043 442.18530273 C-14.76689374 442.18747125 -18.20655212 442.20563146 -21.64648438 442.22460938 C-41.04783645 442.27446712 -60.52160397 441.47786794 -79.6875 438.25 C-80.70674561 438.08081055 -81.72599121 437.91162109 -82.77612305 437.73730469 C-139.93841832 427.77140789 -188.53319164 394.96083605 -222 348 C-253.20820504 303.46595032 -267.43987417 247.88445678 -257.9921875 194.0390625 C-248.459793 144.05786822 -220.46203184 93.58523344 -180.94921875 60.64453125 C-179.58471018 59.49331259 -178.25611628 58.29878648 -176.95703125 57.07421875 C-162.93031382 43.86834193 -146.69890275 33.47019469 -130 24 C-129.28666504 23.58911133 -128.57333008 23.17822266 -127.83837891 22.75488281 C-89.33530453 0.7089875 -43.75581066 -8.70153361 0 0 Z " fill="#FE68C4" transform="translate(278,14)"/>
<path d="M0 0 C7.06425308 3.04923981 14.11740059 3.24600205 21.29663086 0.49780273 C26.47081081 -1.25482588 31.2299188 -1.43466351 36.65625 -1.3984375 C37.62099243 -1.40130768 38.58573486 -1.40417786 39.57971191 -1.40713501 C41.60669547 -1.40916421 43.63369913 -1.40371505 45.66064453 -1.39111328 C48.74166154 -1.37504349 51.82136694 -1.39100144 54.90234375 -1.41015625 C56.88281536 -1.40817362 58.86328616 -1.40432952 60.84375 -1.3984375 C61.75338501 -1.40451019 62.66302002 -1.41058289 63.60021973 -1.4168396 C68.95981617 -1.35866393 73.36641651 -0.59101618 78.38540649 1.31541443 C82.86915287 2.96162207 88.01249146 2.92825587 92.42504883 1.09765625 C93.19872803 0.73542969 93.97240723 0.37320313 94.76953125 0 C102.71319101 -2.98820848 110.89769892 -2.56173769 119.26733398 -2.46655273 C122.07399843 -2.43738049 124.87879299 -2.44601846 127.68554688 -2.45898438 C129.48438411 -2.45275158 131.28321546 -2.44436423 133.08203125 -2.43359375 C134.32905571 -2.43799721 134.32905571 -2.43799721 135.60127258 -2.44248962 C140.59348532 -2.36181354 143.84726072 -1.58050019 148.25 1 C155.27531946 2.86541868 163.23746289 3.35267658 169.8125 0 C174.74722423 -2.50325102 179.8226206 -3.27563224 185.25 -2 C191.5747046 1.95188485 194.31608079 7.86461963 197.75 14.3125 C198.97582471 16.55970768 200.20374818 18.80577157 201.43359375 21.05078125 C202.05991699 22.19885254 202.68624023 23.34692383 203.33154297 24.52978516 C206.39729322 30.07528962 209.60056451 35.53825125 212.8125 41 C214.96612301 44.66219217 217.11329126 48.32791291 219.25 52 C219.98827026 53.25441895 219.98827026 53.25441895 220.74145508 54.53417969 C221.19544678 55.32211914 221.64943848 56.11005859 222.1171875 56.921875 C222.51663574 57.60862305 222.91608398 58.29537109 223.32763672 59.00292969 C224.98578453 62.59309621 224.83648466 65.09010226 224.25 69 C222.1571636 72.43823122 220.139003 74.81169353 216.25 76 C209.95779296 76.60892326 207.36322022 76.03606977 202.25 72 C200.2685896 69.70440525 198.56641038 67.26412057 196.875 64.75 C196.20017578 63.77546875 196.20017578 63.77546875 195.51171875 62.78125 C194.41476616 61.19416966 193.33099477 59.59799227 192.25 58 C192.40855469 59.27101562 192.56710937 60.54203125 192.73046875 61.8515625 C195.17782358 81.7466526 197.30762648 101.67610977 199.45103455 121.60580444 C199.96818571 126.41106903 200.49499017 131.21500082 201.03929138 136.01727295 C202.52181313 149.96751382 202.52181313 149.96751382 200.015625 153.97265625 C195.48861967 157.8161286 190.98584209 158.38887065 185.25 158 C181.09140919 156.36918008 177.9694564 154.56342563 175.25 151 C171.69780129 142.603568 170.28249128 133.38112362 168.41210938 124.50976562 C168.16138672 123.34509766 167.91066406 122.18042969 167.65234375 120.98046875 C167.43054443 119.92754639 167.20874512 118.87462402 166.98022461 117.78979492 C166.32278774 115.27808276 165.51506558 113.25491084 164.25 111 C164.09966309 112.62627319 164.09966309 112.62627319 163.94628906 114.28540039 C163.56769347 118.33316622 163.1673999 122.37854918 162.76074219 126.42358398 C162.58820865 128.16975904 162.42145142 129.91651538 162.26074219 131.66381836 C162.02779944 134.18520788 161.77369429 136.70372931 161.515625 139.22265625 C161.41535004 140.3824575 161.41535004 140.3824575 161.31304932 141.56568909 C160.73284305 146.94907607 159.33890214 150.52351066 156.25 155 C151.16153491 158.09298858 146.08792852 158.96591181 140.25 158 C136.15503201 155.91528902 133.95822569 154.23663404 132.25 150 C132.00708008 148.00244141 132.00708008 148.00244141 132.01953125 145.8515625 C132.02146484 144.61442505 132.02146484 144.61442505 132.0234375 143.35229492 C132.03632813 142.4522876 132.04921875 141.55228027 132.0625 140.625 C132.07216797 139.19087769 132.07216797 139.19087769 132.08203125 137.7277832 C132.1651967 129.5431336 132.45702221 121.36681219 132.75 113.1875 C132.88155728 109.32155377 133.0100088 105.45554291 133.13427734 101.58935547 C133.20618251 99.35908169 133.28140919 97.12890923 133.36181641 94.89892578 C133.91207147 78.16834993 132.38214737 61.72571279 130.6730957 45.10253906 C130.58123489 44.20901733 130.48937408 43.31549561 130.39472961 42.39489746 C130.21947287 40.70683309 130.04132148 39.01906584 129.85978699 37.33166504 C129.73970024 36.1905426 129.73970024 36.1905426 129.6171875 35.02636719 C129.54612793 34.36674988 129.47506836 33.70713257 129.40185547 33.02752686 C129.226858 30.69101529 129.25 28.34305579 129.25 26 C124.63 26 120.01 26 115.25 26 C115.07670598 62.52335978 117.47315554 97.9882791 122.20837402 134.1590271 C124.05004614 148.48562695 124.05004614 148.48562695 121.5 153.3125 C118.92556559 156.38751887 117.08589289 157.742975 113.1015625 158.30078125 C107.02850499 158.33274471 103.14591621 157.2125472 98.23046875 153.45703125 C95.37775258 149.91786267 94.79887157 146.32866034 93.875 141.9375 C93.67366455 141.03878174 93.4723291 140.14006348 93.26489258 139.21411133 C92.82361335 137.23596883 92.38913919 135.25629951 91.96044922 133.27539062 C91.18849435 129.71643995 90.39472941 126.16278153 89.59765625 122.609375 C88.13421885 116.07601978 86.68703356 109.53920966 85.25 103 C84.60554149 105.87907643 83.96211618 108.75837875 83.31982422 111.63793945 C82.77073722 114.09901997 82.22026873 116.55979264 81.66845703 119.02026367 C80.42134384 124.60740393 79.1910789 130.19226241 78.1015625 135.8125 C77.93366211 136.66674561 77.76576172 137.52099121 77.59277344 138.40112305 C77.2903135 139.96030721 76.99854812 141.5216208 76.71972656 143.08520508 C75.78761867 147.85046958 74.2822519 151.20541835 71.25 155 C66.04397194 158.06236945 61.16368695 158.82103721 55.25 158 C52.3626639 156.77134634 50.84340144 155.91271476 49.13842773 153.2902832 C44.85109184 142.2379342 49.26117486 125.69866097 50.6875 114.3125 C51.03624664 111.46986294 51.38240396 108.62693144 51.72657776 105.78373718 C51.93934283 104.03238312 52.15500971 102.28137769 52.37437439 100.53083801 C53.71903052 89.62108402 54.40544486 78.78725464 54.56640625 67.796875 C54.5975779 65.99117035 54.5975779 65.99117035 54.62937927 64.14898682 C54.69412888 60.34937575 54.75340852 56.54970284 54.8125 52.75 C54.85575637 50.15494183 54.89937277 47.55988964 54.94335938 44.96484375 C55.04973241 38.64329056 55.15120396 32.32167596 55.25 26 C50.63 26 46.01 26 41.25 26 C41.31380859 27.68029297 41.31380859 27.68029297 41.37890625 29.39453125 C41.37979167 33.9606296 40.90169887 38.42475303 40.33984375 42.94921875 C37.30752716 67.95874105 37.11980225 92.41318247 37.890625 117.578125 C37.9833776 120.70380526 38.07461225 123.82951098 38.1628418 126.95532227 C38.2212485 128.99563047 38.28329742 131.03583748 38.34887695 133.07592773 C38.43595643 135.98288001 38.49525701 138.88910413 38.546875 141.796875 C38.57751038 142.65758606 38.60814575 143.51829712 38.63970947 144.40509033 C38.68536736 148.45189108 38.57657996 150.47066759 36.40332031 153.99316406 C32.77032669 157.37901526 29.02065781 158.09405219 24.1875 158.3125 C18.83363052 157.88758972 15.74818757 155.96250116 12.25 152 C9.7237367 143.40134825 9.12411006 134.32001161 8.125 125.4375 C7.94184033 123.84044495 7.75825018 122.24343921 7.57421875 120.64648438 C7.12784499 116.76487388 6.6873104 112.8826416 6.25 109 C5.5172693 111.72825259 4.78815204 114.45736101 4.0625 117.1875 C3.83836426 118.02941895 3.61422852 118.87133789 3.38330078 119.73876953 C2.15558675 124.39859971 0.98712493 129.06460701 -0.08984375 133.76171875 C-0.30552002 134.69927002 -0.52119629 135.63682129 -0.7434082 136.6027832 C-1.15710681 138.41861145 -1.56347725 140.23612848 -1.96166992 142.05541992 C-4.24473756 152.06133794 -4.24473756 152.06133794 -8.51171875 155.36328125 C-13.54465736 157.84401975 -17.13557359 158.72444212 -22.75 158 C-26.50212276 155.98497111 -28.38644095 154.54533858 -30.75 151 C-31.62026545 142.21792966 -30.38372149 133.30691562 -29.26870728 124.599823 C-28.79699473 120.91360774 -28.35177344 117.22414252 -27.90234375 113.53515625 C-27.80793503 112.76603409 -27.71352631 111.99691193 -27.61625671 111.20448303 C-26.50786485 102.12539713 -25.53372845 93.03210329 -24.5625 83.9375 C-24.39422733 82.3658831 -24.22593359 80.79426846 -24.05761719 79.22265625 C-23.82389976 77.0390037 -23.5903512 74.85533385 -23.35739136 72.67160034 C-22.83523545 67.77948348 -22.29940235 62.88912595 -21.75 58 C-22.42546875 58.97582031 -23.1009375 59.95164063 -23.796875 60.95703125 C-24.69758523 62.24241981 -25.59864535 63.52756324 -26.5 64.8125 C-26.9434375 65.45509766 -27.386875 66.09769531 -27.84375 66.75976562 C-30.96254689 71.18570532 -33.46748569 74.2391619 -38.75 76 C-44.44818352 76.53756448 -47.30134467 75.60129241 -51.75 72 C-53.65479961 68.19040078 -53.33303551 64.14209937 -52.75 60 C-51.16845794 55.95131068 -48.99881754 52.33631222 -46.75 48.625 C-45.46720737 46.43113022 -44.18466534 44.23711389 -42.90234375 42.04296875 C-42.21873912 40.88972116 -41.53498015 39.73656503 -40.85107422 38.58349609 C-38.67579012 34.89702344 -36.58560292 31.16567327 -34.50390625 27.42578125 C-33.44966954 25.54141901 -32.39453048 23.65756492 -31.33911133 21.77386475 C-30.66326102 20.56492846 -29.98969557 19.35471154 -29.31860352 18.14312744 C-15.35731277 -6.99858215 -15.35731277 -6.99858215 0 0 Z " fill="#080306" transform="translate(164.75,182)"/>
<path d="M0 0 C2.84375 0.125 2.84375 0.125 6 1 C7.84375 3.0625 7.84375 3.0625 9.5 6 C9.82057373 6.5554248 10.14114746 7.11084961 10.47143555 7.68310547 C11.67008386 9.77671175 12.83393856 11.88807007 14 14 C15.07822752 15.91994499 16.15775181 17.83916207 17.23828125 19.7578125 C19.04092662 22.96329182 20.83818342 26.17132653 22.62133789 29.38769531 C25.47067386 34.52550161 28.3499933 39.63197461 31.3828125 44.6640625 C31.89996826 45.52757324 32.41712402 46.39108398 32.94995117 47.28076172 C33.91708957 48.88615114 34.89584571 50.48461839 35.88793945 52.07470703 C39.04699285 57.34039129 39.04699285 57.34039129 38.78515625 61.015625 C38.52605469 61.67046875 38.26695312 62.3253125 38 63 C35.390625 63.5078125 35.390625 63.5078125 32 63 C29.46648855 60.61467507 27.6603103 57.76877602 25.75 54.875 C25.19223877 54.06562988 24.63447754 53.25625977 24.05981445 52.42236328 C22.91665002 50.76328334 21.78098893 49.09900868 20.65283203 47.4296875 C18.22809043 43.86528152 15.70807804 40.37191021 13.1875 36.875 C12.36771509 35.72711523 11.54862155 34.57873613 10.73046875 33.4296875 C10.15941406 32.62789062 9.58835937 31.82609375 9 31 C7.35 31.33 5.7 31.66 4 32 C4.51463119 39.07797827 5.43772684 46.01447015 6.61230469 53.01147461 C10.26455439 74.78095225 12.49738488 96.69428841 14.75137329 118.64486694 C15.08065932 121.76405074 15.439319 124.87965697 15.8039856 127.99488831 C16.11390199 131.16515013 16.13192014 134.31673482 16.125 137.5 C16.12886719 139.30984375 16.12886719 139.30984375 16.1328125 141.15625 C16 144 16 144 15 145 C8.66684066 145.46912291 8.66684066 145.46912291 6.39599609 143.87158203 C0.52438255 135.99963565 -0.51251777 121.74075796 -2.625 112.125 C-3.2197301 109.43974235 -3.81669838 106.75498526 -4.4140625 104.0703125 C-4.68766602 102.83958008 -4.96126953 101.60884766 -5.24316406 100.34082031 C-6.10340816 96.54353636 -7.02627177 92.76958155 -8 89 C-9.45742463 88.91903197 -10.91612807 88.86082226 -12.375 88.8125 C-13.59316406 88.76029297 -13.59316406 88.76029297 -14.8359375 88.70703125 C-15.55007813 88.80371094 -16.26421875 88.90039062 -17 89 C-19.05781407 92.0867211 -19.34937195 93.31343885 -19.73022461 96.8828125 C-19.84051498 97.87394043 -19.95080536 98.86506836 -20.06443787 99.88623047 C-20.23170128 101.48942139 -20.23170128 101.48942139 -20.40234375 103.125 C-20.65535273 105.38023597 -20.90861571 107.63544346 -21.16210938 109.890625 C-21.55265032 113.45200404 -21.93897302 117.01376946 -22.32006836 120.57617188 C-22.69050185 124.01045337 -23.07679037 127.44267155 -23.46484375 130.875 C-23.57432846 131.94379395 -23.68381317 133.01258789 -23.7966156 134.11376953 C-23.91005814 135.10489746 -24.02350067 136.09602539 -24.14038086 137.1171875 C-24.23427597 137.98972168 -24.32817108 138.86225586 -24.4249115 139.76123047 C-25.10159787 142.39551167 -25.81034549 143.40675232 -28 145 C-31.5625 145.3125 -31.5625 145.3125 -35 145 C-37 143 -37 143 -37.20254517 140.89544678 C-37.16923599 139.58933441 -37.16923599 139.58933441 -37.13525391 138.25683594 C-37.11508209 137.26689636 -37.09491028 136.27695679 -37.0741272 135.25701904 C-37.02583267 133.63706024 -37.02583267 133.63706024 -36.9765625 131.984375 C-36.95153656 130.86299133 -36.92651062 129.74160767 -36.90072632 128.58624268 C-36.818381 124.97386116 -36.72224453 121.36200847 -36.625 117.75 C-36.39639549 108.50040755 -36.18867156 99.25048901 -36 90 C-35.97781403 89.0382486 -35.95562805 88.07649719 -35.93276978 87.08560181 C-35.62312833 72.5282542 -36.63152418 58.23391759 -38.08129883 43.7512207 C-38.44427633 40.11970415 -38.79061527 36.48686057 -39.13476562 32.85351562 C-39.35843413 30.54157545 -39.58300748 28.22972259 -39.80859375 25.91796875 C-39.91280136 24.83283493 -40.01700897 23.74770111 -40.12437439 22.62968445 C-40.22440262 21.63966934 -40.32443085 20.64965424 -40.42749023 19.62963867 C-40.51409409 18.75667648 -40.60069794 17.88371429 -40.68992615 16.98429871 C-40.79970033 15.00381358 -40.79970033 15.00381358 -42 14 C-44.52596259 13.76346477 -47.03107207 13.57826308 -49.5625 13.4375 C-50.27341797 13.39431641 -50.98433594 13.35113281 -51.71679688 13.30664062 C-53.47761912 13.20028223 -55.2387832 13.09961154 -57 13 C-55.01547298 7.04641893 -51.49718517 3.90309927 -46 1 C-39.63360962 -0.23986332 -34.55302144 0.61401132 -29 4 C-19.51445308 7.01905579 -9.8973043 4.76133917 -1 1 C-0.67 0.67 -0.34 0.34 0 0 Z " fill="#FB68C3" transform="translate(342,187)"/>
<path d="M0 0 C3.72445715 0.64214778 7.03421746 1.72319275 10.5625 3.0625 C20.06193373 6.24451891 27.42569601 5.94614536 36.5 1.91796875 C41.04356837 0.24962724 45.27307462 -0.03207978 50 1 C55.67702868 4.06542424 58.67901782 7.46502969 62 13 C54.08 13.495 54.08 13.495 46 14 C45.73445313 16.38992187 45.46890625 18.77984375 45.1953125 21.2421875 C43.59765625 35.62109375 43.59765625 35.62109375 43.33421326 37.98947144 C43.15723201 39.58405251 42.98102228 41.17871939 42.80555725 42.77346802 C42.36409248 46.7769354 41.90982364 50.77809141 41.42749023 54.77685547 C40.40649539 63.34131272 39.69892552 71.73553092 39.8125 80.375 C39.81894531 81.4580542 39.82539063 82.5411084 39.83203125 83.65698242 C39.90741027 91.88095111 40.18466678 100.09472514 40.5 108.3125 C40.83011489 116.91578366 41.14790837 125.51552255 41.25 134.125 C41.2819043 135.440448 41.2819043 135.440448 41.31445312 136.7824707 C41.328125 139.1953125 41.328125 139.1953125 41 143 C37.54754176 145.30163882 36.05261287 145.34490322 32 145 C29.1485152 142.1485152 29.12755362 138.96998536 28.5625 135.125 C28.43689697 134.30942627 28.31129395 133.49385254 28.18188477 132.65356445 C26.85033906 123.64556261 25.94912794 114.58566016 25.09008789 105.52197266 C24.97656982 104.37390137 24.86305176 103.22583008 24.74609375 102.04296875 C24.60192017 100.51192505 24.60192017 100.51192505 24.45483398 98.94995117 C23.70309602 93.5479694 23.70309602 93.5479694 21 89 C17.54178598 88.74996036 17.54178598 88.74996036 14 89 C11.33455707 91.66544293 11.09574184 93.9045361 10.1953125 97.5625 C9.9494062 98.55174469 9.9494062 98.55174469 9.6985321 99.56097412 C9.34868034 100.97388041 9.00222808 102.38763196 8.65884399 103.80212402 C8.12456306 106.0017989 7.58019057 108.19877897 7.03393555 110.39550781 C5.50684951 116.571969 4.01204027 122.74484248 2.76171875 128.984375 C2.59462402 129.81066406 2.4275293 130.63695312 2.25537109 131.48828125 C1.96999761 132.94566821 1.70200521 134.40662023 1.45556641 135.87109375 C0.78983432 139.30331248 0.08054716 140.91866956 -2.41015625 143.43359375 C-5.52759249 145.31910194 -7.41604846 145.40726722 -11 145 C-11.33 144.67 -11.66 144.34 -12 144 C-11.99628379 141.09352889 -11.91335748 138.22916747 -11.76953125 135.328125 C-11.72391556 134.40195374 -11.67829987 133.47578247 -11.63130188 132.52154541 C-10.92165617 119.87624574 -9.39882767 107.31178809 -7.91955566 94.73797607 C-7.53513841 91.44474765 -7.16448857 88.14995345 -6.79101562 84.85546875 C-5.24776555 71.43446782 -3.51211938 58.08152106 -1.23478699 44.7633667 C-1.07327652 43.81052795 -0.91176605 42.85768921 -0.74536133 41.87597656 C-0.52919914 40.63778168 -0.52919914 40.63778168 -0.30867004 39.37457275 C0.01423178 36.89051614 0.05309689 34.50211068 0 32 C-2.07553648 31.4465236 -3.84365964 31 -6 31 C-6.28286865 31.58845703 -6.5657373 32.17691406 -6.85717773 32.78320312 C-7.89383916 34.79407383 -9.00701837 36.6056394 -10.28515625 38.46875 C-10.9510376 39.44134766 -10.9510376 39.44134766 -11.63037109 40.43359375 C-13.59577176 43.26945315 -15.56598305 46.10174264 -17.54833984 48.92578125 C-18.47667317 50.25223937 -19.3994401 51.58262188 -20.31494141 52.91796875 C-21.48567213 54.62387744 -22.6765834 56.31347373 -23.875 58 C-24.55304688 58.969375 -25.23109375 59.93875 -25.9296875 60.9375 C-28 63 -28 63 -30.6328125 63.4375 C-33 63 -33 63 -35 61 C-34.61458824 57.46601109 -32.82258823 54.61119905 -31.11328125 51.546875 C-30.51112793 50.46365967 -29.90897461 49.38044434 -29.28857422 48.2644043 C-28.63026166 47.09272326 -27.97156123 45.92126008 -27.3125 44.75 C-26.6381127 43.54536846 -25.96379716 42.34069675 -25.28955078 41.13598633 C-23.20414698 37.41767026 -21.10493176 33.70729085 -19 30 C-18.66671692 29.41289246 -18.33343384 28.82578491 -17.99005127 28.22088623 C-15.79987806 24.36778622 -13.59209595 20.52516116 -11.375 16.6875 C-10.80821533 15.69911133 -10.24143066 14.71072266 -9.6574707 13.69238281 C-6.77170768 8.7374764 -3.84141737 4.26268805 0 0 Z " fill="#FB66C2" transform="translate(154,187)"/>
<path d="M0 0 C2.70894767 -0.08144943 5.41541263 -0.14070614 8.125 -0.1875 C8.88554687 -0.21263672 9.64609375 -0.23777344 10.4296875 -0.26367188 C15.45563609 -0.32866259 18.55238964 0.44101259 23 3 C31.56029501 5.70656386 42.0873625 3.95631875 50 0 C52.71760108 -0.07181821 55.40859388 -0.09299506 58.125 -0.0625 C58.87910156 -0.05798828 59.63320313 -0.05347656 60.41015625 -0.04882812 C62.27347127 -0.03703499 64.13674555 -0.01909942 66 0 C65.29423828 1.06927734 65.29423828 1.06927734 64.57421875 2.16015625 C63.95160156 3.11792969 63.32898438 4.07570312 62.6875 5.0625 C62.07261719 6.00222656 61.45773437 6.94195312 60.82421875 7.91015625 C56.5151671 15.20878548 55.53472429 20.47234189 55.53125 28.87890625 C55.52173309 29.94344528 55.51221619 31.00798431 55.50241089 32.1047821 C55.48128161 35.59097135 55.48781955 39.07627649 55.5 42.5625 C55.50010071 43.75540649 55.50020142 44.94831299 55.50030518 46.17736816 C55.53754978 68.70997497 57.4437581 90.77817752 60.36621094 113.09960938 C61.00787441 118.01486427 61.60183557 122.93442759 62.1640625 127.859375 C62.24933197 128.57957825 62.33460144 129.29978149 62.42245483 130.04180908 C62.91238627 134.39977268 63.07642347 138.62457751 63 143 C60.19084526 144.40457737 58.11189466 144.24895157 55 144 C52.54431111 142.86336686 51.30294321 141.79182331 50.32617188 139.23876953 C49.69028706 136.81789665 49.17706935 134.39222646 48.6875 131.9375 C48.48656738 131.00317139 48.28563477 130.06884277 48.07861328 129.10620117 C46.89593415 123.54973224 45.79467477 117.9770071 44.69081116 112.40446472 C44.076471 109.31032361 43.4550453 106.21761512 42.83413696 103.12478638 C42.37881585 100.83171723 41.93830155 98.53613273 41.4987793 96.23999023 C41.21584046 94.81223639 40.93241515 93.38457884 40.6484375 91.95703125 C40.40270996 90.68835205 40.15698242 89.41967285 39.90380859 88.11254883 C39.02296527 85.07908812 38.5680693 83.77074116 36 82 C33 81.41666667 33 81.41666667 30 82 C27.0495794 85.04179137 26.3621881 87.93715584 25.60546875 92.0390625 C25.37520996 93.24788086 25.14495117 94.45669922 24.90771484 95.70214844 C24.67004395 96.99668945 24.43237305 98.29123047 24.1875 99.625 C23.66905642 102.33195879 23.14094043 105.03701199 22.61328125 107.7421875 C22.48042725 108.42776733 22.34757324 109.11334717 22.21069336 109.81970215 C20.85183022 116.8158333 19.4073761 123.78949331 17.875 130.75 C17.64578857 131.85553223 17.41657715 132.96106445 17.18041992 134.10009766 C16.95330322 135.11378418 16.72618652 136.1274707 16.4921875 137.171875 C16.29995605 138.0597168 16.10772461 138.94755859 15.90966797 139.86230469 C15 142 15 142 13.10595703 143.29003906 C10.31947454 144.22941897 7.91789881 144.19452659 5 144 C4 143 4 143 3.86512756 141.11735535 C3.88170418 134.53969615 4.36280888 128.08895598 5.05859375 121.55078125 C5.1672023 120.49392624 5.27581085 119.43707123 5.38771057 118.34819031 C5.61654134 116.13023768 5.84777109 113.91253136 6.08129883 111.69506836 C6.43753228 108.31219344 6.7868042 104.92865672 7.13476562 101.54492188 C7.35897295 99.38016665 7.58356896 97.21545165 7.80859375 95.05078125 C7.91280136 94.04646561 8.01700897 93.04214996 8.12437439 92.00740051 C8.52684158 88.19223841 8.9316634 84.41052449 9.56176758 80.62524414 C10.2329802 75.07268911 10.18340506 69.53348503 10.203125 63.9453125 C10.20882507 62.68919159 10.21452515 61.43307068 10.22039795 60.1388855 C10.22982174 57.48789863 10.2367325 54.83702422 10.24023438 52.18603516 C10.24571663 48.81160667 10.26976096 45.43758211 10.29820633 42.06328011 C10.3214529 38.81565557 10.32328929 35.56800853 10.328125 32.3203125 C10.3466452 30.51991013 10.3466452 30.51991013 10.36553955 28.68313599 C10.34166176 19.62936856 9.33816163 12.07415202 3.3125 5 C0 1.04968944 0 1.04968944 0 0 Z " fill="#FA67C2" transform="translate(217,188)"/>
<path d="M0 0 C5.20262803 4.17164853 9.07263716 8.92058855 10.18041992 15.67724609 C10.31496478 17.9717209 10.31431023 20.22223161 10.25390625 22.51953125 C10.26099609 23.28330078 10.26808594 24.04707031 10.27539062 24.83398438 C10.18677113 32.80292188 7.45243343 38.73131224 2.015625 44.58984375 C-4.93987055 50.49522008 -13.19532709 52.25715306 -22.13671875 51.8828125 C-26.67956849 51.24797837 -30.24767902 49.75630801 -34.18359375 47.45703125 C-35.79234375 46.59078125 -35.79234375 46.59078125 -37.43359375 45.70703125 C-41.76821262 42.1605249 -44.41946332 37.74942255 -46.18359375 32.45703125 C-46.46002762 29.39948197 -46.46098281 26.33822713 -46.49609375 23.26953125 C-46.52509766 22.44388672 -46.55410156 21.61824219 -46.58398438 20.76757812 C-46.65800524 13.54200299 -44.81065079 8.52357716 -40.10546875 3.03125 C-28.20969615 -7.30266757 -13.39759891 -9.46699744 0 0 Z " fill="#FC67C2" transform="translate(195.18359375,127.54296875)"/>
<path d="M0 0 C5.67466653 4.41362952 9.97811409 9.96349087 11.1315918 17.18530273 C11.28576874 19.30026828 11.33143889 21.37956315 11.3125 23.5 C11.30677979 24.24548096 11.30105957 24.99096191 11.29516602 25.7590332 C11.03407179 33.85647065 8.51888221 39.90604907 2.625 45.5625 C-5.51850358 51.72704464 -14.11540549 53.41098142 -24.1875 52.1875 C-32.18071195 50.13147437 -38.48646634 46.34262121 -42.81640625 39.16796875 C-45.62579358 33.97330201 -45.93960958 29.50911888 -45.8125 23.6875 C-45.83183594 22.80191406 -45.85117187 21.91632813 -45.87109375 21.00390625 C-45.8225841 14.39689187 -44.17375175 9.49042279 -40.1875 4.1875 C-28.42982671 -6.84622159 -13.9207823 -7.91573896 0 0 Z M-36.15991211 12.39013672 C-38.11524902 15.8102342 -37.86732652 19.34426362 -37.75 23.1875 C-37.76095703 23.96867187 -37.77191406 24.74984375 -37.78320312 25.5546875 C-37.70133393 32.03872746 -35.46971401 35.53718696 -31.25 40.4375 C-26.36317415 44.58389769 -21.27840035 44.55458712 -15.12890625 44.44140625 C-9.11384461 43.92217782 -4.52784308 41.40727799 -0.1875 37.1875 C3.88309654 30.44588248 3.54902909 23.84572863 2.8125 16.1875 C1.37870425 11.04119738 -2.13093071 8.0672362 -6.40625 5.1328125 C-17.23742329 -0.61531017 -28.8745028 3.40069191 -36.15991211 12.39013672 Z " fill="#080306" transform="translate(340.1875,126.8125)"/>
<path d="M0 0 C4.596825 3.51710564 7.4389019 8.37920571 9.25 13.8125 C9.52643387 16.87004928 9.52738906 19.93130412 9.5625 23 C9.59150391 23.82564453 9.62050781 24.65128906 9.65039062 25.50195312 C9.72597419 32.88007165 7.67030681 37.93429731 2.9375 43.5625 C-4.76913331 50.0145651 -12.52858617 52.31372334 -22.5 52.12109375 C-30.83313804 51.32984627 -37.16245453 46.87334344 -42.75 40.8125 C-47.92606755 32.29703403 -48.30383439 20.8362514 -46.171875 11.19921875 C-43.2298292 4.52612396 -36.57485308 -1.22045825 -30 -4.1875 C-19.86056865 -7.30421143 -8.85548869 -5.62494561 0 0 Z M-36.75 10.8125 C-39.38527064 14.58102696 -39.1173929 18.76016811 -39.125 23.1875 C-39.14949219 23.93 -39.17398438 24.6725 -39.19921875 25.4375 C-39.22712519 30.70251466 -38.186433 33.620807 -34.75 37.8125 C-28.38956697 43.53688973 -23.72415016 44.31875063 -15.2421875 44.1953125 C-8.92086374 43.50237097 -5.47624638 40.71579729 -1.3125 36.125 C1.51182616 31.94499728 1.50035605 28.49258685 1.5625 23.5625 C1.59150391 22.81097656 1.62050781 22.05945313 1.65039062 21.28515625 C1.71071495 15.96733542 0.73740735 13.04584275 -2.75 8.8125 C-8.70390236 3.45398788 -12.86452937 2.40866643 -20.77734375 2.5625 C-27.45787643 3.12433192 -31.98660094 6.27065438 -36.75 10.8125 Z " fill="#060205" transform="translate(268.75,127.1875)"/>
<path d="M0 0 C5.20262803 4.17164853 9.07263716 8.92058855 10.18041992 15.67724609 C10.31496478 17.9717209 10.31431023 20.22223161 10.25390625 22.51953125 C10.26099609 23.28330078 10.26808594 24.04707031 10.27539062 24.83398438 C10.18677113 32.80292188 7.45243343 38.73131224 2.015625 44.58984375 C-4.93987055 50.49522008 -13.19532709 52.25715306 -22.13671875 51.8828125 C-26.67956849 51.24797837 -30.24767902 49.75630801 -34.18359375 47.45703125 C-35.79234375 46.59078125 -35.79234375 46.59078125 -37.43359375 45.70703125 C-41.76821262 42.1605249 -44.41946332 37.74942255 -46.18359375 32.45703125 C-46.46002762 29.39948197 -46.46098281 26.33822713 -46.49609375 23.26953125 C-46.52509766 22.44388672 -46.55410156 21.61824219 -46.58398438 20.76757812 C-46.65800524 13.54200299 -44.81065079 8.52357716 -40.10546875 3.03125 C-28.20969615 -7.30266757 -13.39759891 -9.46699744 0 0 Z M-35.62109375 10.14453125 C-38.44541991 14.32453397 -38.4339498 17.7769444 -38.49609375 22.70703125 C-38.52509766 23.45855469 -38.55410156 24.21007812 -38.58398438 24.984375 C-38.6443087 30.30219583 -37.6710011 33.2236885 -34.18359375 37.45703125 C-27.82316072 43.18142098 -23.15774391 43.96328188 -14.67578125 43.83984375 C-8.37214879 43.14884153 -4.94798264 40.35714236 -0.74609375 35.83203125 C2.05407506 31.57577466 2.06181427 27.57802829 2.12890625 22.64453125 C2.15791016 21.94521484 2.18691406 21.24589844 2.21679688 20.52539062 C2.27944249 15.37399316 1.15646688 12.56646599 -2.18359375 8.45703125 C-8.54402678 2.73264152 -13.20944359 1.95078062 -21.69140625 2.07421875 C-28.01273001 2.76716028 -31.45734737 5.55373396 -35.62109375 10.14453125 Z " fill="#060204" transform="translate(195.18359375,127.54296875)"/>
<path d="M0 0 C0.66 0.33 1.32 0.66 2 1 C1.0409375 1.8971875 1.0409375 1.8971875 0.0625 2.8125 C-2.20310389 4.90810337 -2.20310389 4.90810337 -3 8 C0.74353304 10.41381655 4.51763258 10.34520077 8.828125 10.4140625 C9.57713074 10.43342865 10.32613647 10.4527948 11.09783936 10.4727478 C13.48177836 10.53235716 15.86576614 10.57885354 18.25 10.625 C19.86981231 10.66319701 21.48960468 10.70224975 23.109375 10.7421875 C27.07275406 10.83804313 31.03622819 10.92214246 35 11 C35 11.33 35 11.66 35 12 C33.11680054 12.02187378 33.11680054 12.02187378 31.19555664 12.04418945 C26.50435976 12.102489 21.81362706 12.17971859 17.12280273 12.26245117 C15.09879126 12.29555228 13.07469076 12.32362957 11.05053711 12.34643555 C8.12836027 12.38025537 5.20698842 12.43258341 2.28515625 12.48828125 C1.39103531 12.49467117 0.49691437 12.5010611 -0.42430115 12.50764465 C-5.72465298 12.62960987 -10.11387708 13.42780898 -15.07469177 15.3228302 C-20.75496399 17.3206967 -27.74791385 16.8389435 -33.25 14.5 C-34.1575 14.005 -35.065 13.51 -36 13 C-33.25 9.125 -33.25 9.125 -31 8 C-30.34 8.33 -29.68 8.66 -29 9 C-19.77894447 9.96339386 -12.06091429 8.67656096 -4 4 C-1.71620944 1.94202415 -1.71620944 1.94202415 0 0 Z " fill="#EC61B7" transform="translate(199,169)"/>
<path d="M0 0 C2.59940188 2.98449845 4.78614334 6.10953174 6.8125 9.5 C7.25207031 10.2321875 7.69164062 10.964375 8.14453125 11.71875 C9.19953418 14.53209116 8.81678985 16.15376299 8 19 C5.3046875 19.375 5.3046875 19.375 2 19 C0.04072278 16.98679772 -1.3527001 15.29898352 -2.875 13 C-3.2771875 12.42765625 -3.679375 11.8553125 -4.09375 11.265625 C-5.0804061 9.85611629 -6.04268106 8.42959628 -7 7 C-4.66666667 4.66666667 -2.33333333 2.33333333 0 0 Z " fill="#F563BC" transform="translate(372,231)"/>
<path d="M0 0 C0.66 0.33 1.32 0.66 2 1 C1.01 1.8971875 1.01 1.8971875 0 2.8125 C-2.3373846 4.87501834 -2.3373846 4.87501834 -2 8 C-10.42647735 11.41944009 -18.39061098 12.6250059 -27 9 C-26.34 7.35 -25.68 5.7 -25 4 C-24.03320312 4.04640625 -23.06640625 4.0928125 -22.0703125 4.140625 C-14.50847299 4.35026015 -8.78444508 4.22442243 -1.85546875 0.77734375 C-1.24316406 0.52082031 -0.63085938 0.26429688 0 0 Z " fill="#F364BC" transform="translate(266,174)"/>
<path d="M0 0 C1.5159375 0.2475 1.5159375 0.2475 3.0625 0.5 C9.66441708 1.34762407 16.3568696 1.07784918 23 1 C22.67 3.31 22.34 5.62 22 8 C13.53060964 8.38692646 6.63405807 7.81702904 -1 4 C-0.67 2.68 -0.34 1.36 0 0 Z " fill="#F76EC3" transform="translate(308,177)"/>
<path d="M0 0 C0.66 0.33 1.32 0.66 2 1 C1.360625 1.598125 0.72125 2.19625 0.0625 2.8125 C-2.20310389 4.90810337 -2.20310389 4.90810337 -3 8 C0.74353304 10.41381655 4.51763258 10.34520077 8.828125 10.4140625 C9.57713074 10.43342865 10.32613647 10.4527948 11.09783936 10.4727478 C13.48177836 10.53235716 15.86576614 10.57885354 18.25 10.625 C19.86981231 10.66319701 21.48960468 10.70224975 23.109375 10.7421875 C27.07275406 10.83804313 31.03622819 10.92214246 35 11 C35 11.33 35 11.66 35 12 C33.71311279 12.02505615 32.42622559 12.0501123 31.1003418 12.07592773 C26.33119546 12.17001572 21.56219429 12.27023313 16.79321289 12.37231445 C14.72814324 12.41565803 12.66303788 12.45733352 10.59790039 12.49731445 C7.63156365 12.55503083 4.66540655 12.61872151 1.69921875 12.68359375 C0.31158577 12.70866249 0.31158577 12.70866249 -1.1040802 12.73423767 C-2.39507881 12.7641555 -2.39507881 12.7641555 -3.7121582 12.79467773 C-4.84800102 12.81799416 -4.84800102 12.81799416 -6.00679016 12.84178162 C-8.20924815 12.93632323 -8.20924815 12.93632323 -11 14 C-11.66 13.67 -12.32 13.34 -13 13 C-13 11.35 -13 9.7 -13 8 C-12.31292969 7.67386719 -11.62585938 7.34773437 -10.91796875 7.01171875 C-10.01691406 6.57472656 -9.11585938 6.13773438 -8.1875 5.6875 C-7.29417969 5.25824219 -6.40085938 4.82898438 -5.48046875 4.38671875 C-3.21068067 3.11778211 -1.70751829 1.93443102 0 0 Z " fill="#C9559C" transform="translate(199,169)"/>
<path d="M0 0 C1.65 0 3.3 0 5 0 C4.67 1.65 4.34 3.3 4 5 C3.01 5 2.02 5 1 5 C0.9175 5.78375 0.835 6.5675 0.75 7.375 C0 10 0 10 -1.9375 11.125 C-2.618125 11.41375 -3.29875 11.7025 -4 12 C-4.99 13.485 -4.99 13.485 -6 15 C-7.32 14.67 -8.64 14.34 -10 14 C-10 13.34 -10 12.68 -10 12 C-11.98 11.34 -13.96 10.68 -16 10 C-15.67 8.35 -15.34 6.7 -15 5 C-13.125 5.3125 -13.125 5.3125 -11 6 C-10.01 7.485 -10.01 7.485 -9 9 C-8.01 9.33 -7.02 9.66 -6 10 C-5.731875 9.236875 -5.46375 8.47375 -5.1875 7.6875 C-4.04029271 5.09118877 -3.05353332 3.8749652 -1 2 C-0.67 1.34 -0.34 0.68 0 0 Z " fill="#FF71C8" transform="translate(323,250)"/>
<path d="M0 0 C2 3 2 3 1.8125 5.4375 C1.72706035 8.27529269 1.72706035 8.27529269 4.5 10.3125 C5.7375 11.1478125 5.7375 11.1478125 7 12 C6.6875 13.9375 6.6875 13.9375 6 16 C5.01 16.33 4.02 16.66 3 17 C1.78130071 19.50447516 1.78130071 19.50447516 1 22 C-1.31 22.33 -3.62 22.66 -6 23 C-5.3503125 21.205625 -5.3503125 21.205625 -4.6875 19.375 C-2.56188917 13.04877728 -1.31057203 6.53427046 0 0 Z " fill="#F564BD" transform="translate(243,312)"/>
<path d="M0 0 C2.86095641 1.2824977 5.11365918 2.45343989 7 5 C7 6.65 7 8.3 7 10 C2.05 10 -2.9 10 -8 10 C-5.76833482 4.42083705 -4.53031884 3.44698173 0 0 Z " fill="#FD69C4" transform="translate(293,190)"/>
<path d="M0 0 C0.99 0 1.98 0 3 0 C2.39009109 3.55780196 1.4216319 6.6828589 0 10 C0.99 10.33 1.98 10.66 3 11 C3 11.99 3 12.98 3 14 C1.68 13.67 0.36 13.34 -1 13 C-1 12.34 -1 11.68 -1 11 C-2.65 10.67 -4.3 10.34 -6 10 C-5.6875 8.0625 -5.6875 8.0625 -5 6 C-4.01 5.67 -3.02 5.34 -2 5 C-0.78130071 2.49552484 -0.78130071 2.49552484 0 0 Z " fill="#FF70C8" transform="translate(213,250)"/>
<path d="M0 0 C1.32 0.33 2.64 0.66 4 1 C4.33 3.31 4.66 5.62 5 8 C1.17010894 9.80230168 -1.78121808 10.19622241 -6 10 C-6 8.35 -6 6.7 -6 5 C-3.525 5.495 -3.525 5.495 -1 6 C-0.67 4.02 -0.34 2.04 0 0 Z " fill="#FF70C8" transform="translate(235,250)"/>
<path d="M0 0 C-0.33 1.98 -0.66 3.96 -1 6 C-4.96 6 -8.92 6 -13 6 C-12.34 5.67 -11.68 5.34 -11 5 C-10.34444881 2.47266765 -10.34444881 2.47266765 -10 0 C-2.25 -1.125 -2.25 -1.125 0 0 Z " fill="#EE62B8" transform="translate(331,179)"/>
<path d="M0 0 C-0.33 0.99 -0.66 1.98 -1 3 C-0.34 3.33 0.32 3.66 1 4 C-3.17737474 5.59138085 -6.53160785 6.21278058 -11 6 C-11 3 -11 3 -9.75 1.375 C-6.46139468 -1.20890418 -3.90469062 -1.25507913 0 0 Z " fill="#F764BF" transform="translate(187,179)"/>
<path d="M0 0 C1.1446875 0.12375 1.1446875 0.12375 2.3125 0.25 C0.7830003 3.69137432 -1.14119552 6.4722133 -3.6875 9.25 C-4.6775 9.25 -5.6675 9.25 -6.6875 9.25 C-6.04078163 4.59362773 -5.23074478 0.48658091 0 0 Z " fill="#FF75CA" transform="translate(203.6875,15.75)"/>
<path d="M0 0 C0.66 0 1.32 0 2 0 C2 1.98 2 3.96 2 6 C1.34 6 0.68 6 0 6 C-0.66 7.65 -1.32 9.3 -2 11 C-3.32 10.67 -4.64 10.34 -6 10 C-4.34643078 6.41726669 -2.32019297 3.19026533 0 0 Z " fill="#FF70C8" transform="translate(218,233)"/>
<path d="M0 0 C0.66 0.33 1.32 0.66 2 1 C0.04343039 4.5218253 -1.95100975 7.34442785 -5 10 C-5.66 10 -6.32 10 -7 10 C-7.33 10.99 -7.66 11.98 -8 13 C-7.59709958 7.35939411 -5.78085674 4.96528877 -2 1 C-1.34 0.67 -0.68 0.34 0 0 Z " fill="#ED61B7" transform="translate(238,133)"/>
<path d="M0 0 C1.79133978 -0.05391993 3.58313899 -0.09275571 5.375 -0.125 C6.37273437 -0.14820313 7.37046875 -0.17140625 8.3984375 -0.1953125 C11 0 11 0 13 2 C13 2.66 13 3.32 13 4 C11.1875 5.0625 11.1875 5.0625 9 6 C8.01 5.67 7.02 5.34 6 5 C5.3125 2.9375 5.3125 2.9375 5 1 C3.35 1 1.7 1 0 1 C0 0.67 0 0.34 0 0 Z " fill="#E55DB1" transform="translate(296,188)"/>
<path d="M0 0 C2.6635969 0.35994553 4.58183452 0.71161002 6.8125 2.25 C8.39364795 4.58011277 8.22337696 6.24501755 8 9 C4.95139986 7.98379995 4.13333078 7.22608429 2 5 C1.34 4.67 0.68 4.34 0 4 C0 2.68 0 1.36 0 0 Z " fill="#FF71C8" transform="translate(212,217)"/>
<path d="M0 0 C0.66 0.33 1.32 0.66 2 1 C1.814375 1.639375 1.62875 2.27875 1.4375 2.9375 C1.293125 3.618125 1.14875 4.29875 1 5 C2.96822886 6.96822886 6.34808709 6.66248381 9 7 C9 7.33 9 7.66 9 8 C4.38 8 -0.24 8 -5 8 C-2.75 2.375 -2.75 2.375 0 0 Z " fill="#C45098" transform="translate(290,192)"/>
<path d="M0 0 C0.66 0.33 1.32 0.66 2 1 C2.4140625 3.72265625 2.4140625 3.72265625 2.625 7.0625 C2.69976562 8.16722656 2.77453125 9.27195312 2.8515625 10.41015625 C2.90054688 11.26480469 2.94953125 12.11945313 3 13 C1.35 12.67 -0.3 12.34 -2 12 C-1.34 8.04 -0.68 4.08 0 0 Z " fill="#DF59AC" transform="translate(170,290)"/>
<path d="M0 0 C0.33 0.99 0.66 1.98 1 3 C1.99 3 2.98 3 4 3 C4 3.99 4 4.98 4 6 C1.36 6 -1.28 6 -4 6 C-4.33 4.68 -4.66 3.36 -5 2 C-2 0 -2 0 0 0 Z " fill="#FF71C8" transform="translate(162,260)"/>
<path d="M0 0 C0.99 0 1.98 0 3 0 C2.67 1.65 2.34 3.3 2 5 C1.01 5 0.02 5 -1 5 C-1.33 6.32 -1.66 7.64 -2 9 C-2.99 9 -3.98 9 -5 9 C-4.67 7.68 -4.34 6.36 -4 5 C-3.34 5 -2.68 5 -2 5 C-1.34 3.35 -0.68 1.7 0 0 Z " fill="#FF71C8" transform="translate(258,250)"/>
<path d="M0 0 C0.625 1.8125 0.625 1.8125 1 4 C0.01 5.485 0.01 5.485 -1 7 C-2.65 6.67 -4.3 6.34 -6 6 C-6 4.68 -6 3.36 -6 2 C-3 0 -3 0 0 0 Z " fill="#FF74C9" transform="translate(474,217)"/>
<path d="M0 0 C0.66 0 1.32 0 2 0 C2 1.32 2 2.64 2 4 C-2.11111111 8 -2.11111111 8 -6 8 C-6 6.35 -6 4.7 -6 3 C-4.68 3 -3.36 3 -2 3 C-1.34 2.01 -0.68 1.02 0 0 Z " fill="#FF70C8" transform="translate(191,262)"/>
<path d="M0 0 C0.33 0.66 0.66 1.32 1 2 C3.02463255 2.65213292 3.02463255 2.65213292 5 3 C5 4.32 5 5.64 5 7 C3.0625 7.5625 3.0625 7.5625 1 8 C0 7 0 7 -0.0625 3.4375 C-0.041875 2.303125 -0.02125 1.16875 0 0 Z " fill="#FF71C8" transform="translate(306,241)"/>
<path d="M0 0 C0.78375 0.185625 1.5675 0.37125 2.375 0.5625 C4.97089775 1.25962266 4.97089775 1.25962266 7 0 C6.67 1.65 6.34 3.3 6 5 C5.01 5 4.02 5 3 5 C3 4.34 3 3.68 3 3 C2.01 3 1.02 3 0 3 C0 2.01 0 1.02 0 0 Z " fill="#FF71C8" transform="translate(350,320)"/>
<path d="M0 0 C1.32 0.33 2.64 0.66 4 1 C2.75453595 4.73639216 1.36595047 5.18756513 -2 7 C-2.33 6.01 -2.66 5.02 -3 4 C-1.5625 1.8125 -1.5625 1.8125 0 0 Z " fill="#FE70C7" transform="translate(270,318)"/>
<path d="M0 0 C1.66611905 -0.042721 3.33382885 -0.04063832 5 0 C6 1 6 1 6.0625 3.5625 C6.041875 4.366875 6.02125 5.17125 6 6 C5.67 5.34 5.34 4.68 5 4 C3.35 4 1.7 4 0 4 C0 2.68 0 1.36 0 0 Z " fill="#F467BE" transform="translate(167,302)"/>
<path d="M0 0 C2.97 0.495 2.97 0.495 6 1 C6.33 2.32 6.66 3.64 7 5 C5.68 5 4.36 5 3 5 C1.25 2.5 1.25 2.5 0 0 Z " fill="#FF71C8" transform="translate(244,193)"/>
<path d="M0 0 C0 1.98 0 3.96 0 6 C-1.65 5.67 -3.3 5.34 -5 5 C-5 4.01 -5 3.02 -5 2 C-1.125 0 -1.125 0 0 0 Z " fill="#FE70C7" transform="translate(217,283)"/>
<path d="M0 0 C0.66 0.33 1.32 0.66 2 1 C2 2.65 2 4.3 2 6 C0.68 6 -0.64 6 -2 6 C-2 4.35 -2 2.7 -2 1 C-1.34 0.67 -0.68 0.34 0 0 Z " fill="#FF71C8" transform="translate(316,148)"/>
<path d="M0 0 C2.0625 0.4375 2.0625 0.4375 4 1 C4 2.32 4 3.64 4 5 C2.0625 4.6875 2.0625 4.6875 0 4 C-0.33 3.01 -0.66 2.02 -1 1 C-0.67 0.67 -0.34 0.34 0 0 Z " fill="#FF71C8" transform="translate(229,300)"/>
<path d="M0 0 C1.32 0.66 2.64 1.32 4 2 C3.67 3.32 3.34 4.64 3 6 C2.01 5.67 1.02 5.34 0 5 C-0.75 3 -0.75 3 -1 1 C-0.67 0.67 -0.34 0.34 0 0 Z " fill="#FF71C8" transform="translate(258,238)"/>
<path d="M0 0 C0.33 1.32 0.66 2.64 1 4 C-0.32 4.33 -1.64 4.66 -3 5 C-3.33 3.68 -3.66 2.36 -4 1 C-2.68 0.67 -1.36 0.34 0 0 Z " fill="#FE70C7" transform="translate(267,301)"/>
<path d="M0 0 C0.99 0.33 1.98 0.66 3 1 C3 2.32 3 3.64 3 5 C1.68 5 0.36 5 -1 5 C-0.67 3.35 -0.34 1.7 0 0 Z " fill="#FF70C8" transform="translate(185,233)"/>
<path d="M0 0 C-0.33 1.32 -0.66 2.64 -1 4 C-3.475 3.01 -3.475 3.01 -6 2 C-6 1.34 -6 0.68 -6 0 C-2.25 -1.125 -2.25 -1.125 0 0 Z " fill="#FF70C8" transform="translate(323,155)"/>
<path d="M0 0 C0.99 0.33 1.98 0.66 3 1 C3 2.32 3 3.64 3 5 C1.68 5 0.36 5 -1 5 C-0.67 3.35 -0.34 1.7 0 0 Z " fill="#FF71C8" transform="translate(325,138)"/>
<path d="M0 0 C0.99 0.33 1.98 0.66 3 1 C2.67 2.32 2.34 3.64 2 5 C1.01 5 0.02 5 -1 5 C-0.67 3.35 -0.34 1.7 0 0 Z " fill="#FF71C8" transform="translate(180,138)"/>
</svg>
