<?xml version="1.0" encoding="UTF-8"?>
<svg version="1.1" xmlns="http://www.w3.org/2000/svg" width="500" height="500">
<path d="M0 0 C0 0.66 0 1.32 0 2 C0.71671875 2.12375 1.4334375 2.2475 2.171875 2.375 C24.74149936 7.36276229 46.81118169 24.34767921 64 39 C64.57057129 39.4832373 65.14114258 39.96647461 65.72900391 40.46435547 C85.70994299 57.41988599 85.70994299 57.41988599 88 62 C91.99762874 60.41954213 94.24874133 57.75282649 97.125 54.625 C102.54742742 49.01603162 107.63341802 45.21466328 115.63671875 44.89453125 C122.74606471 45.35148473 127.69903294 47.42828975 132.75 52.5 C136.65897845 57.23420724 137.94770152 61.89851033 138 68 C136.39570046 79.05184128 127.65974226 86.64664743 120 94 C121.58864005 99.10350616 124.73104182 102.75487208 128 106.875 C167.55709545 157.96799528 187.32769247 225.86194399 180.12426758 290.39501953 C174.96889687 330.58202541 157.16664968 367.8123522 125.2265625 393.5625 C119.38026903 398.05129499 113.23894101 402.0827929 107 406 C105.89011719 406.70125 104.78023438 407.4025 103.63671875 408.125 C72.93899444 426.59413613 36.17597382 433.55184261 1 437 C0.05229736 437.09643799 -0.89540527 437.19287598 -1.87182617 437.29223633 C-13.2862503 438.28398861 -24.73256512 438.18607469 -36.18139648 438.18530273 C-39.76623732 438.18747201 -43.3507609 438.20563182 -46.93554688 438.22460938 C-100.51628689 438.35666338 -154.70991841 428.641475 -198 395 C-198.85722656 394.33613281 -199.71445313 393.67226563 -200.59765625 392.98828125 C-224.47474469 373.96397367 -243.48945105 351.21981446 -259 325 C-259.41233887 324.30471191 -259.82467773 323.60942383 -260.24951172 322.89306641 C-273.97798921 299.3593423 -281.50266835 272.87439189 -285 246 C-285.09571289 245.30302002 -285.19142578 244.60604004 -285.29003906 243.88793945 C-288.5664151 217.94409087 -285.44032323 190.96157486 -278 166 C-277.76861328 165.21802246 -277.53722656 164.43604492 -277.29882812 163.63037109 C-268.63530385 135.15695898 -253.76924383 108.98638406 -235 86 C-234.32324219 85.17097168 -234.32324219 85.17097168 -233.6328125 84.32519531 C-228.07457908 77.5501387 -222.33248003 71.06923606 -216 65 C-215.195625 64.195625 -214.39125 63.39125 -213.5625 62.5625 C-212.716875 61.716875 -211.87125 60.87125 -211 60 C-210.36707031 59.34386719 -209.73414063 58.68773438 -209.08203125 58.01171875 C-203.40516595 52.19418776 -197.42863826 46.96758411 -191 42 C-190.32678711 41.47744629 -189.65357422 40.95489258 -188.95996094 40.41650391 C-164.99823043 21.94666276 -137.36139254 5.95244335 -108 -2 C-106.76805908 -2.3393457 -106.76805908 -2.3393457 -105.51123047 -2.68554688 C-70.93050321 -12.03133953 -34.14793254 -11.38264418 0 0 Z M101.125 64.75 C100.62742187 65.25660156 100.12984375 65.76320313 99.6171875 66.28515625 C98.40676798 67.51885307 97.20270147 68.75877784 96 70 C96.40992188 70.47050781 96.81984375 70.94101563 97.2421875 71.42578125 C97.78101563 72.04839844 98.31984375 72.67101562 98.875 73.3125 C99.40867187 73.92738281 99.94234375 74.54226562 100.4921875 75.17578125 C102 77 102 77 104 80 C104.66 80 105.32 80 106 80 C106.268125 80.598125 106.53625 81.19625 106.8125 81.8125 C107.98493467 83.97224808 109.19369282 85.35790256 111 87 C114.9761282 85.3982422 117.67101247 82.6263777 120.625 79.625 C121.11484375 79.14289063 121.6046875 78.66078125 122.109375 78.1640625 C125.60654662 74.64778065 127.73133587 72.05975836 128.375 67.125 C127.77890258 62.15752153 125.50345952 59.18694172 121.625 56.125 C112.72289677 52.3098129 106.96260962 58.70617048 101.125 64.75 Z " fill="#FEDA33" transform="translate(309,36)"/>
<path d="M0 0 C5.84554253 4.0269293 9.83487217 8.32145898 11.4375 15.375 C12.33843641 22.62253293 10.39120162 27.97585239 6.25 33.875 C1.21109943 40.15174463 -4.62797235 45.7593845 -10.73681641 50.98242188 C-15.76380131 55.37272768 -20.45247343 60.07714759 -25.15625 64.80859375 C-26.53762146 66.19208763 -26.53762146 66.19208763 -27.94689941 67.60353088 C-30.36897554 70.02938477 -32.78803079 72.45822852 -35.2064209 74.88775635 C-37.68523837 77.37689116 -40.16696797 79.86311895 -42.6484375 82.34960938 C-47.49760924 87.20943458 -52.34358863 92.07243178 -57.1875 96.9375 C-56.39819092 97.56076172 -55.60888184 98.18402344 -54.7956543 98.82617188 C-52.60132385 100.60250528 -50.81615589 102.29511772 -49 104.4375 C-48.51144531 105.0046875 -48.02289063 105.571875 -47.51953125 106.15625 C-44.43804409 110.27694837 -43.93483432 113.30946382 -43.92007446 118.47013855 C-43.91554335 119.12465809 -43.91101224 119.77917762 -43.90634382 120.45353109 C-43.89369122 122.64511804 -43.89532073 124.83645675 -43.89697266 127.02807617 C-43.89098776 128.60025349 -43.88418231 130.17242788 -43.87661743 131.74459839 C-43.85894203 136.01550647 -43.85426129 140.28633441 -43.85298586 144.55727553 C-43.85156409 147.22748062 -43.84729392 149.89766534 -43.84199142 152.56786537 C-43.8234831 161.88908811 -43.81532145 171.21025364 -43.81689453 180.53149414 C-43.8180948 189.20997541 -43.79701715 197.88820752 -43.7654072 206.56662577 C-43.73921578 214.02412208 -43.7285285 221.48153718 -43.72980535 228.93907911 C-43.73031432 233.39002411 -43.72466758 237.8407479 -43.70344925 242.29164696 C-43.68401955 246.48192712 -43.68397448 250.67177622 -43.69848251 254.86207199 C-43.70056616 256.39506857 -43.69589627 257.92809244 -43.6837616 259.4610424 C-43.55568541 276.77008855 -43.55568541 276.77008855 -49.56402016 283.47319317 C-54.97957724 288.31349358 -60.13474931 290.31428919 -67.32492065 290.29826355 C-68.367791 290.30210846 -68.367791 290.30210846 -69.43172944 290.30603105 C-71.74883437 290.3109513 -74.06527986 290.29450589 -76.38232422 290.27807617 C-78.04821253 290.27722952 -79.71410196 290.27770579 -81.37998962 290.27940369 C-85.89405161 290.28026356 -90.4078739 290.26263903 -94.92188025 290.24168181 C-99.64241664 290.22291376 -104.36295867 290.22116447 -109.08352661 290.21760559 C-118.01882827 290.20828551 -126.95401967 290.1836722 -135.88927281 290.15355712 C-146.06332616 290.12001199 -156.23738481 290.10352681 -166.41147971 290.08847082 C-187.33688132 290.05712264 -208.26218371 290.00436282 -229.1875 289.9375 C-229.15349091 291.20312271 -229.11948181 292.46874542 -229.08444214 293.77272034 C-228.99926982 296.94234383 -229.08223602 297.76919297 -230.83642578 300.57397461 C-231.97313721 301.69557983 -231.97313721 301.69557983 -233.1328125 302.83984375 C-233.96296875 303.66677734 -234.793125 304.49371094 -235.6484375 305.34570312 C-236.96714844 306.59770508 -236.96714844 306.59770508 -238.3125 307.875 C-239.1684375 308.73673828 -240.024375 309.59847656 -240.90625 310.48632812 C-248.53569185 317.93383713 -248.53569185 317.93383713 -254.1875 317.9375 C-258.17177469 315.41206498 -261.27668182 311.86784645 -264.5625 308.5 C-265.48933594 307.60861328 -266.41617188 306.71722656 -267.37109375 305.79882812 C-268.24636719 304.91775391 -269.12164062 304.03667969 -270.0234375 303.12890625 C-271.22299072 301.92536499 -271.22299072 301.92536499 -272.44677734 300.69750977 C-274.86115872 296.86937772 -274.50374548 294.40379992 -274.1875 289.9375 C-275.17032959 289.96368408 -276.15315918 289.98986816 -277.16577148 290.0168457 C-280.85010559 290.10808931 -284.5343422 290.16501436 -288.21948242 290.2121582 C-289.80721897 290.23713528 -291.39484252 290.27112981 -292.98217773 290.31469727 C-310.43375671 290.78131702 -310.43375671 290.78131702 -317.1875 284.9375 C-319.34375 282.5859375 -319.34375 282.5859375 -320.6875 280.3125 C-321.1515625 279.55710937 -321.615625 278.80171875 -322.09375 278.0234375 C-324.15673563 274.08902918 -324.3166963 270.97724552 -324.32794189 266.59431458 C-324.33239858 265.62500922 -324.33239858 265.62500922 -324.3369453 264.63612193 C-324.34562953 262.46679283 -324.34714032 260.29751894 -324.34863281 258.12817383 C-324.35326128 256.57422772 -324.35828598 255.02028275 -324.36367798 253.46633911 C-324.37680349 249.24090819 -324.38324753 245.01549315 -324.38768864 240.79004502 C-324.39061985 238.14917363 -324.39472481 235.50830657 -324.39919281 232.86743736 C-324.41286975 224.60210242 -324.42253476 216.33677741 -324.4263947 208.07143193 C-324.43087246 198.53574408 -324.44840639 189.00019978 -324.4773953 179.46455556 C-324.49903107 172.09117967 -324.50910004 164.71784411 -324.51043582 157.34443682 C-324.51148273 152.94216722 -324.51736591 148.54003253 -324.53525543 144.1377964 C-324.55176833 139.99356301 -324.55387607 135.84956545 -324.54511642 131.70531082 C-324.5443477 130.18802063 -324.54866702 128.67071759 -324.55857468 127.15345955 C-324.66280239 110.19085516 -324.66280239 110.19085516 -319.35546875 103.6953125 C-313.2036676 98.62341333 -309.04671034 96.85344819 -300.984375 96.90234375 C-299.89995117 96.90741943 -298.81552734 96.91249512 -297.69824219 96.91772461 C-296.4554248 96.92751343 -296.4554248 96.92751343 -295.1875 96.9375 C-295.21368408 96.21159668 -295.23986816 95.48569336 -295.2668457 94.73779297 C-295.3711681 91.42958459 -295.43593872 88.1217228 -295.5 84.8125 C-295.54189453 83.67039062 -295.58378906 82.52828125 -295.62695312 81.3515625 C-295.64306641 80.24296875 -295.65917969 79.134375 -295.67578125 77.9921875 C-295.70196533 76.97624512 -295.72814941 75.96030273 -295.75512695 74.91357422 C-295.00463014 70.97871137 -293.29751182 68.38987169 -290.1875 65.9375 C-287.29333214 65.07603881 -284.52010501 65.12601169 -281.5168457 65.17700195 C-280.22311287 65.16364052 -280.22311287 65.16364052 -278.90324402 65.15000916 C-276.05581656 65.128725 -273.21065327 65.15104242 -270.36328125 65.17578125 C-268.37655914 65.17427814 -266.38983763 65.17084643 -264.40312195 65.16557312 C-260.23760504 65.16124044 -256.07286186 65.17808121 -251.9074707 65.21020508 C-246.58896881 65.24985679 -241.27192847 65.24073645 -235.95338154 65.21597004 C-231.84812126 65.201725 -227.74319708 65.21192485 -223.63796043 65.22948265 C-221.67851758 65.23530281 -219.71903987 65.23407423 -217.75960732 65.22545815 C-196.00313663 65.16168406 -196.00313663 65.16168406 -187.0625 73.75 C-186.44375 74.471875 -185.825 75.19375 -185.1875 75.9375 C-181.94511343 74.56572107 -179.60743386 72.65292199 -177.04296875 70.25390625 C-171.60812115 66.3980249 -167.04575069 65.52671556 -160.51953125 66.25097656 C-158.99342881 66.38414985 -157.467153 66.51534705 -155.94073486 66.64485168 C-155.13778236 66.7175358 -154.33482986 66.79021992 -153.50754547 66.86510658 C-110.11754645 71.58229366 -110.11754645 71.58229366 -71.22911072 56.20303726 C-66.08084178 51.76565339 -61.41140119 46.98671836 -56.9375 41.875 C-56.46030518 41.32991287 -55.98311035 40.78482574 -55.49145508 40.22322083 C-50.00149745 33.88376956 -44.93983011 27.2819982 -40.05961609 20.46084595 C-37.313332 16.759246 -34.28660016 13.34423969 -31.1875 9.9375 C-30.50042969 9.14859375 -29.81335938 8.3596875 -29.10546875 7.546875 C-20.70601114 -1.47827585 -11.69091669 -3.89697223 0 0 Z M-25.0625 17.6875 C-25.56007813 18.19410156 -26.05765625 18.70070313 -26.5703125 19.22265625 C-27.78073202 20.45635307 -28.98479853 21.69627784 -30.1875 22.9375 C-29.77757812 23.40800781 -29.36765625 23.87851563 -28.9453125 24.36328125 C-28.40648437 24.98589844 -27.86765625 25.60851562 -27.3125 26.25 C-26.77882813 26.86488281 -26.24515625 27.47976562 -25.6953125 28.11328125 C-24.1875 29.9375 -24.1875 29.9375 -22.1875 32.9375 C-21.5275 32.9375 -20.8675 32.9375 -20.1875 32.9375 C-19.919375 33.535625 -19.65125 34.13375 -19.375 34.75 C-18.20256533 36.90974808 -16.99380718 38.29540256 -15.1875 39.9375 C-11.2113718 38.3357422 -8.51648753 35.5638777 -5.5625 32.5625 C-5.07265625 32.08039063 -4.5828125 31.59828125 -4.078125 31.1015625 C-0.58095338 27.58528065 1.54383587 24.99725836 2.1875 20.0625 C1.59140258 15.09502153 -0.68404048 12.12444172 -4.5625 9.0625 C-13.46460323 5.2473129 -19.22489038 11.64367048 -25.0625 17.6875 Z " fill="#060501" transform="translate(435.1875,83.0625)"/>
<path d="M0 0 C13.695 -0.103125 27.39 -0.20625 41.5 -0.3125 C45.81255859 -0.35802002 50.12511719 -0.40354004 54.56835938 -0.45043945 C59.86425781 -0.47302246 59.86425781 -0.47302246 62.34924316 -0.47721863 C64.07229074 -0.48485999 65.79531278 -0.50236967 67.51818848 -0.52787781 C70.13954579 -0.56472378 72.75928017 -0.56952232 75.38085938 -0.56762695 C76.13901695 -0.58561749 76.89717453 -0.60360804 77.67830658 -0.62214375 C83.5301136 -0.56587874 87.437299 1.38171225 92 5 C96.00831466 9.41942386 97.12538553 11.80664452 97.12025452 17.70730591 C97.12231651 19.52888718 97.12231651 19.52888718 97.12442017 21.38726807 C97.1208808 22.74011255 97.11724599 24.09295678 97.11352539 25.44580078 C97.11324344 26.86479694 97.11340141 28.28379324 97.1139679 29.70278931 C97.11425555 33.56206463 97.10836391 37.42130906 97.10139394 41.28057718 C97.09515516 45.31114452 97.09455618 49.34171252 97.09336853 53.37228394 C97.09025677 61.00790673 97.08204546 68.64351526 97.07201904 76.27913177 C97.06085311 84.97066741 97.05534624 93.66220372 97.05032361 102.35374475 C97.03986272 120.23583793 97.02226626 138.11791782 97 156 C94.17443218 154.8919245 91.45588894 153.73452401 88.72483826 152.40202332 C84.40158754 150.77475848 80.96735897 150.55918578 76.40258789 150.56762695 C75.55920836 150.55735316 74.71582884 150.54707937 73.84689236 150.53649426 C71.1387391 150.50679729 68.43094929 150.49709442 65.72265625 150.48828125 C64.04193876 150.47280223 62.3612329 150.45600305 60.68054199 150.43786621 C54.47465613 150.38010222 48.26855416 150.34782338 42.0625 150.3125 C21.2415625 150.1578125 21.2415625 150.1578125 0 150 C0 100.5 0 51 0 0 Z " fill="#F9D633" transform="translate(149,157)"/>
<path d="M0 0 C0.70298721 -0.00043808 1.40597443 -0.00087616 2.13026428 -0.00132751 C4.44089069 0.00075317 6.75078053 0.02404902 9.0612793 0.04760742 C10.66838688 0.05320597 12.2754996 0.05747485 13.88261414 0.06047058 C18.10281629 0.07189907 22.32270638 0.10134883 26.54278564 0.13458252 C30.85294372 0.1653266 35.16315244 0.17898517 39.47338867 0.1940918 C47.92340132 0.22622066 56.37316081 0.27739259 64.82299805 0.34057617 C64.40659561 0.81887878 63.99019318 1.2971814 63.56117249 1.78997803 C63.01730392 2.41865784 62.47343536 3.04733765 61.91308594 3.69506836 C61.3729335 4.31774597 60.83278107 4.94042358 60.27626038 5.58197021 C58.7083471 7.47931632 57.49898312 9.4674589 56.26049805 11.59057617 C52.82383903 16.27123416 48.81957778 16.53211312 43.3347168 17.52026367 C28.27861622 21.03726158 17.88717033 31.90399359 9.99487305 44.50463867 C7.04291139 49.49891675 5.17557427 54.70909528 3.82299805 60.34057617 C3.6322168 61.12948242 3.44143555 61.91838867 3.24487305 62.73120117 C1.70886866 72.23167277 2.6538259 82.02475652 4.82299805 91.34057617 C22.0381956 95.20450829 39.5796208 93.86100126 54.82299805 84.34057617 C66.0343518 77.22347106 73.03968537 66.55124371 77.82299805 54.34057617 C78.15299805 54.34057617 78.48299805 54.34057617 78.82299805 54.34057617 C78.82299805 88.00057617 78.82299805 121.66057617 78.82299805 156.34057617 C76.51299805 155.02057617 74.20299805 153.70057617 71.82299805 152.34057617 C66.48780176 150.30110951 61.04323688 150.0382835 55.38745117 150.02172852 C54.58649017 150.01168289 53.78552917 150.00163727 52.96029663 149.99128723 C50.34162035 149.96066596 47.72304528 149.9434793 45.10424805 149.92651367 C43.27721295 149.90778504 41.45018635 149.88821038 39.62316895 149.86782837 C34.83602933 149.81668021 30.04886172 149.7769622 25.26159668 149.73968506 C20.36793187 149.69953639 15.47438175 149.64849379 10.58081055 149.59838867 C0.99495382 149.50183462 -8.59096793 149.41736466 -18.17700195 149.34057617 C-18.31730364 131.48587261 -18.42303712 113.63131255 -18.48787498 95.77617645 C-18.51878363 87.48528084 -18.5609063 79.19472818 -18.62963867 70.90405273 C-18.68953307 63.67597675 -18.72817286 56.4481492 -18.74153292 49.21983194 C-18.74933994 45.39405968 -18.76762385 41.56899798 -18.81138229 37.74345398 C-18.85228326 34.1383185 -18.86463657 30.5341823 -18.85564804 26.92883682 C-18.85807099 24.98362695 -18.89026837 23.03852452 -18.92352295 21.09359741 C-18.87640311 14.39723034 -18.3696801 9.92605089 -13.79298878 4.84242725 C-9.2780902 0.64641203 -6.14555153 -0.03228836 0 0 Z " fill="#FEDC38" transform="translate(274.177001953125,157.659423828125)"/>
<path d="M0 0 C5.05694104 1.05352938 8.15904902 3.36357354 11 7.625 C11.26285553 10.4733696 11.26285553 10.4733696 11.28088379 14.01287842 C11.28682603 14.66387111 11.29276828 15.3148638 11.29889059 15.98558354 C11.31626 18.17110495 11.31928056 20.3564072 11.32226562 22.54199219 C11.33152244 24.10741647 11.34157182 25.67283623 11.35235596 27.23825073 C11.3786061 31.49460396 11.3914945 35.7508941 11.40037727 40.00731564 C11.40623914 42.66694679 11.41444888 45.32656069 11.42338562 47.98618317 C11.4507377 56.30864659 11.47006924 64.63107059 11.4777894 72.95357585 C11.48674818 82.55850956 11.52183067 92.16287364 11.57979059 101.76763415 C11.62304101 109.19280752 11.64319886 116.61782074 11.64587164 124.04311872 C11.64796682 128.47738108 11.65976024 132.91110807 11.69551086 137.34523773 C11.72850227 141.51840789 11.73277075 145.69064121 11.71523285 149.86389542 C11.71369352 151.39291266 11.72235968 152.92198056 11.74214935 154.45087051 C11.90023982 167.42887333 11.90023982 167.42887333 8.14294434 172.02716064 C4.25653838 175.78675863 0.52777444 175.74917688 -4.70072937 175.74525452 C-5.72750415 175.74653615 -5.72750415 175.74653615 -6.77502185 175.74784368 C-9.07359244 175.74949359 -11.3720904 175.7439851 -13.6706543 175.73852539 C-15.31639606 175.73824339 -16.96213795 175.73840151 -18.60787964 175.7389679 C-23.08071081 175.73925536 -27.55351529 175.73336686 -32.02634025 175.72639394 C-36.69885864 175.72015192 -41.37137762 175.71955593 -46.04389954 175.71836853 C-54.89425577 175.71525773 -63.74459969 175.7070477 -72.5949505 175.69701904 C-82.66979647 175.68585014 -92.74464303 175.68034549 -102.81949365 175.67532361 C-123.54633617 175.66486489 -144.27316688 175.64706936 -165 175.625 C-165 169.685 -165 163.745 -165 157.625 C-140.55502627 156.94699319 -116.1346909 156.53895864 -91.6796875 156.66796875 C-89.37542771 156.67841755 -87.07116745 156.68876283 -84.76690674 156.69900513 C-75.38973529 156.7432016 -66.01269496 156.79318717 -56.63574219 156.87182617 C-50.77964241 156.92017923 -44.92372057 156.9492606 -39.06744766 156.96557045 C-36.86574957 156.97543481 -34.66407104 156.99259415 -32.46249008 157.01735497 C-29.42902501 157.05091176 -26.39641974 157.0599711 -23.36279297 157.06323242 C-22.46761459 157.07918457 -21.57243622 157.09513672 -20.65013123 157.11157227 C-19.82762375 157.10751877 -19.00511627 157.10346527 -18.15768433 157.09928894 C-17.44681105 157.10427493 -16.73593777 157.10926092 -16.00352287 157.114398 C-13.00795357 156.38267407 -11.84100652 155.06328421 -10 152.625 C-9.41277226 149.80629842 -9.41277226 149.80629842 -9.52139282 146.64163208 C-9.51615097 145.41633789 -9.51090912 144.1910437 -9.50550842 142.92861938 C-9.51979007 141.57366601 -9.53440388 140.21871611 -9.54931641 138.86376953 C-9.55040502 137.43450952 -9.54965199 136.00524709 -9.54719543 134.57598877 C-9.54540695 131.4994728 -9.55576849 128.42332039 -9.57527542 125.34686661 C-9.60516007 120.4804878 -9.60258874 115.61446061 -9.59457397 110.74801636 C-9.57947325 98.65991865 -9.60121847 86.57192002 -9.64239502 74.48388672 C-9.67433898 65.09102556 -9.69359377 55.69857068 -9.67088258 46.30566108 C-9.66063013 41.46980487 -9.67795425 36.63507949 -9.71602273 31.79937387 C-9.73357539 28.78779814 -9.72616882 25.77666032 -9.71187401 22.76508331 C-9.71029507 21.37109759 -9.71896581 19.97705585 -9.73877525 18.58320999 C-9.89799255 6.74441696 -9.89799255 6.74441696 -6.14315796 2.78781128 C-3 0.625 -3 0.625 0 0 Z " fill="#FEDB35" transform="translate(371,188.375)"/>
<path d="M0 0 C1.17949219 0.01804688 2.35898438 0.03609375 3.57421875 0.0546875 C4.92966797 0.08949219 4.92966797 0.08949219 6.3125 0.125 C6.31304477 0.89860461 6.31358953 1.67220922 6.31415081 2.4692564 C6.32911569 21.28956552 6.37155055 40.10962896 6.44459057 58.9298048 C6.47924922 68.03111134 6.50459723 77.13226629 6.50805664 86.23364258 C6.51109533 94.16608022 6.53157279 102.09824793 6.57302457 110.0305813 C6.59436514 114.2310857 6.60694989 118.43120626 6.59865379 122.63176537 C6.59112013 126.58576505 6.60690744 130.53898658 6.64056015 134.49284363 C6.64880185 135.94363423 6.64853331 137.39450209 6.63909721 138.84528542 C6.6274828 140.82725012 6.64954558 142.80932665 6.67326355 144.79118347 C6.67602893 145.90010043 6.67879431 147.00901739 6.68164349 148.1515379 C7.52253986 152.11499624 9.19015518 153.62392414 12.3125 156.125 C17.01864117 157.06208641 21.48894343 156.9897601 26.3125 157.125 C26.3125 163.065 26.3125 169.005 26.3125 175.125 C21.98857153 175.19403966 17.6665707 175.25371715 13.3425293 175.28979492 C11.87306218 175.30484066 10.40363966 175.32528238 8.93432617 175.35131836 C6.8167823 175.38788955 4.69983435 175.40476801 2.58203125 175.41796875 C1.30948486 175.4336792 0.03693848 175.44938965 -1.27416992 175.46557617 C-6.14728128 174.97934555 -9.56581429 172.87102286 -12.6875 169.125 C-13.80020635 165.78688096 -13.8217464 163.27976716 -13.83467102 159.7616272 C-13.83834771 159.11330693 -13.8420244 158.46498666 -13.8458125 157.79702032 C-13.85684147 155.62069435 -13.86069179 153.44441613 -13.86450195 151.26806641 C-13.87076708 149.70925241 -13.87741393 148.1504399 -13.88441467 146.59162903 C-13.90544731 141.46995075 -13.91581462 136.34827219 -13.92578125 131.2265625 C-13.92982876 129.46374877 -13.93394568 127.7009352 -13.93813133 125.9381218 C-13.9571793 117.6583795 -13.97141255 109.37864612 -13.9797433 101.09888613 C-13.98952214 91.53765619 -14.01586008 81.97665735 -14.05624419 72.41550887 C-14.08638272 65.02689434 -14.10120992 57.63834616 -14.10452431 50.24967134 C-14.10687693 45.83571201 -14.11586497 41.4219997 -14.14098549 37.00810623 C-14.16423249 32.85644604 -14.16851322 28.70519613 -14.15822411 24.55348778 C-14.15772785 23.03009236 -14.16407485 21.50667697 -14.17778015 19.98334312 C-14.19545338 17.90251572 -14.18841771 15.82316816 -14.17524719 13.74234009 C-14.17763555 12.57832483 -14.1800239 11.41430958 -14.18248463 10.21502113 C-13.57855002 6.44486221 -12.32945198 4.83358263 -9.6875 2.125 C-6.05554504 -0.29630331 -4.30400652 -0.08522785 0 0 Z " fill="#FEDA32" transform="translate(133.6875,188.875)"/>
<path d="M0 0 C0.70298721 -0.00043808 1.40597443 -0.00087616 2.13026428 -0.00132751 C4.44089069 0.00075317 6.75078053 0.02404902 9.0612793 0.04760742 C10.66838688 0.05320597 12.2754996 0.05747485 13.88261414 0.06047058 C18.10281629 0.07189907 22.32270638 0.10134883 26.54278564 0.13458252 C30.85294372 0.1653266 35.16315244 0.17898517 39.47338867 0.1940918 C47.92340132 0.22622066 56.37316081 0.27739259 64.82299805 0.34057617 C64.40659561 0.81887878 63.99019318 1.2971814 63.56117249 1.78997803 C63.01730392 2.41865784 62.47343536 3.04733765 61.91308594 3.69506836 C61.3729335 4.31774597 60.83278107 4.94042358 60.27626038 5.58197021 C58.7083471 7.47931632 57.49898312 9.4674589 56.26049805 11.59057617 C52.82383903 16.27123416 48.81957778 16.53211312 43.3347168 17.52026367 C28.27861622 21.03726158 17.88717033 31.90399359 9.99487305 44.50463867 C7.04291139 49.49891675 5.17557427 54.70909528 3.82299805 60.34057617 C3.63737305 61.11143555 3.45174805 61.88229492 3.26049805 62.67651367 C2.56572498 66.90718537 2.46724704 71.17921242 2.30541992 75.45776367 C2.10447387 79.47668461 1.57627242 82.70625844 -0.17700195 86.34057617 C-2.15700195 86.01057617 -4.13700195 85.68057617 -6.17700195 85.34057617 C-4.90304305 83.30224193 -3.56638273 81.30205491 -2.17700195 79.34057617 C-1.51700195 79.34057617 -0.85700195 79.34057617 -0.17700195 79.34057617 C-0.17700195 78.02057617 -0.17700195 76.70057617 -0.17700195 75.34057617 C-3.63625358 76.58975037 -6.32393398 78.01585412 -9.17700195 80.34057617 C-9.83700195 78.69057617 -10.49700195 77.04057617 -11.17700195 75.34057617 C-12.82700195 75.34057617 -14.47700195 75.34057617 -16.17700195 75.34057617 C-15.84700195 76.99057617 -15.51700195 78.64057617 -15.17700195 80.34057617 C-16.16700195 80.34057617 -17.15700195 80.34057617 -18.17700195 80.34057617 C-18.31639845 71.48241875 -18.42282198 62.62464237 -18.48787498 53.765625 C-18.51910727 49.65137828 -18.56142846 45.53788527 -18.62963867 41.42407227 C-18.69512549 37.44935772 -18.73076887 33.47536523 -18.74626541 29.50015259 C-18.75729972 27.98829794 -18.77884777 26.47648012 -18.81138229 24.9649353 C-19.10576513 10.71325411 -19.10576513 10.71325411 -13.95718384 4.82543945 C-9.28730748 0.93025998 -6.1160762 -0.0321335 0 0 Z " fill="#FDDB36" transform="translate(274.177001953125,157.659423828125)"/>
<path d="M0 0 C0.33 0 0.66 0 1 0 C1 33.66 1 67.32 1 102 C-1.31 100.68 -3.62 99.36 -6 98 C-12.25123021 95.59529173 -18.85519885 95.63734626 -25.46484375 95.52148438 C-30.36148464 95.35047733 -33.69196217 94.58069359 -38 92 C-36.5661989 86.98169616 -34.2101103 84.86287501 -30 82 C-27.625 82.1875 -27.625 82.1875 -26 83 C-26.495 84.98 -26.495 84.98 -27 87 C-28.98 87.495 -28.98 87.495 -31 88 C-31 88.66 -31 89.32 -31 90 C-31 90.33 -31 90.66 -31 91 C-27.64258374 90.40046138 -25.46610546 89.38106734 -23 87 C-22.1957792 84.40144267 -22.1957792 84.40144267 -22 82 C-22.804375 81.71125 -23.60875 81.4225 -24.4375 81.125 C-27 80 -27 80 -28 78 C-30.02463255 77.34786708 -30.02463255 77.34786708 -32 77 C-32.495 78.98 -32.495 78.98 -33 81 C-34.32 81 -35.64 81 -37 81 C-39.17457267 78.12645755 -40 76.63563409 -40 73 C-40.99 72.67 -41.98 72.34 -43 72 C-42.01 71.67 -41.02 71.34 -40 71 C-37.48916886 72.25541557 -37.12874554 73.50063488 -36 76 C-35.01 76 -34.02 76 -33 76 C-34.33370769 72.40924853 -35.80987082 69.15378602 -38 66 C-38.99 65.67 -39.98 65.34 -41 65 C-40.505 64.01 -40.505 64.01 -40 63 C-33.25 66.75 -33.25 66.75 -31 69 C-30.01 69 -29.02 69 -28 69 C-27.01 67.515 -27.01 67.515 -26 66 C-24.68 66 -23.36 66 -22 66 C-21.9175 65.21625 -21.835 64.4325 -21.75 63.625 C-21 61 -21 61 -18.9375 59.6875 C-18.298125 59.460625 -17.65875 59.23375 -17 59 C-17.33 58.01 -17.66 57.02 -18 56 C-18.72218719 56.00444122 -19.44437439 56.00888245 -20.18844604 56.01345825 C-26.98666022 56.05349375 -33.78485684 56.08396338 -40.58315849 56.10362434 C-44.07843927 56.11407198 -47.57362283 56.12824883 -51.06884766 56.15087891 C-55.08497056 56.17671953 -59.10099097 56.18646466 -63.1171875 56.1953125 C-65.00472244 56.21079636 -65.00472244 56.21079636 -66.9303894 56.22659302 C-68.09144196 56.22674408 -69.25249451 56.22689514 -70.44873047 56.22705078 C-71.47465302 56.231492 -72.50057556 56.23593323 -73.55758667 56.24050903 C-76 56 -76 56 -78 54 C-78.25 51.5 -78.25 51.5 -78 49 C-75.41646334 46.41646334 -74.39577614 46.74718039 -70.8034668 46.74121094 C-69.71861496 46.73490662 -68.63376312 46.72860229 -67.51603699 46.72210693 C-65.75046196 46.72817963 -65.75046196 46.72817963 -63.94921875 46.734375 C-62.14007744 46.73150482 -62.14007744 46.73150482 -60.29438782 46.72857666 C-57.73800448 46.72721335 -55.18161425 46.73091991 -52.62524414 46.73925781 C-48.71419649 46.74992717 -44.80361114 46.73938152 -40.89257812 46.7265625 C-38.41145732 46.72788462 -35.9303368 46.73044808 -33.44921875 46.734375 C-32.27824142 46.73032654 -31.1072641 46.72627808 -29.90080261 46.72210693 C-28.80649429 46.72841125 -27.71218597 46.73471558 -26.5847168 46.74121094 C-25.62478317 46.74280212 -24.66484955 46.74439331 -23.67582703 46.74603271 C-19.15473424 47.17513731 -15.97335226 48.55717107 -13 52 C-13 51.01 -13 50.02 -13 49 C-13.99 48.34 -14.98 47.68 -16 47 C-15.67 45.68 -15.34 44.36 -15 43 C-13.68 43 -12.36 43 -11 43 C-11.495 40.03 -11.495 40.03 -12 37 C-14.0245738 38.93254772 -15.42105792 40.63158688 -17 43 C-18.32 43 -19.64 43 -21 43 C-21.33 41.35 -21.66 39.7 -22 38 C-20.68 37.34 -19.36 36.68 -18 36 C-17.6626154 32.87501834 -17.6626154 32.87501834 -20 30.8125 C-20.66 30.214375 -21.32 29.61625 -22 29 C-21.52691406 28.70609375 -21.05382812 28.4121875 -20.56640625 28.109375 C-10.51083079 21.28804896 -4.36653108 11.14672255 0 0 Z " fill="#FBD834" transform="translate(352,212)"/>
<path d="M0 0 C2.12140277 1.09813267 3.21020978 2.27648307 4.6835022 4.15380859 C7.209296 7.26640298 9.86943732 10.10498872 12.7460022 12.90380859 C13.7460022 13.90380859 14.7460022 14.90380859 15.7460022 15.90380859 C14.16028584 19.75386673 11.70762758 22.18967171 8.78067017 25.11206055 C8.27628922 25.61833984 7.77190826 26.12461914 7.25224304 26.64624023 C5.58573608 28.31644692 3.91214257 29.97934842 2.2381897 31.64208984 C1.07157503 32.80751125 -0.09466895 33.97330384 -1.26055908 35.13945007 C-3.70711389 37.58444094 -6.15698893 40.02603829 -8.60946655 42.46508789 C-11.73461286 45.57332948 -14.85322217 48.68802696 -17.96954536 51.80511189 C-20.38007424 54.21536702 -22.79321515 56.62299281 -25.20721054 59.02977562 C-26.35670422 60.17611165 -27.50561482 61.32303271 -28.65390396 62.47057533 C-44.96465226 78.75913582 -44.96465226 78.75913582 -49.2539978 80.90380859 C-49.36614624 79.65664062 -49.36614624 79.65664062 -49.4805603 78.38427734 C-50.01501659 71.74482224 -50.01501659 71.74482224 -53.8789978 66.77880859 C-54.9927478 66.49005859 -56.1064978 66.20130859 -57.2539978 65.90380859 C-57.97071655 65.70658203 -58.6874353 65.50935547 -59.4258728 65.30615234 C-61.35604777 64.78938564 -63.30421902 64.34082798 -65.2539978 63.90380859 C-61.46198496 59.38558778 -57.55680006 55.04876227 -53.40390015 50.86083984 C-52.85349564 50.30225784 -52.30309113 49.74367584 -51.73600769 49.16816711 C-49.94028342 47.34791961 -48.14068881 45.53158025 -46.3399353 43.71630859 C-45.72157429 43.0926239 -45.10321327 42.46893921 -44.46611404 41.82635498 C-41.20329362 38.53696996 -37.93692122 35.25115503 -34.6680603 31.96777344 C-31.96472661 29.2510168 -29.26888039 26.52714172 -26.57919312 23.796875 C-23.32187966 20.49044033 -20.05264459 17.19626561 -16.77425003 13.91073608 C-15.52842939 12.65818471 -14.2868819 11.40136832 -13.04969406 10.14028931 C-11.32635299 8.38553534 -9.58812817 6.64699731 -7.8453064 4.91162109 C-7.33612167 4.38603104 -6.82693695 3.86044098 -6.30232239 3.31892395 C-2.80268803 -0.11960726 -2.80268803 -0.11960726 0 0 Z " fill="#FAD732" transform="translate(405.2539978027344,107.09619140625)"/>
<path d="M0 0 C10.81405312 -0.11313956 21.62771061 -0.20479601 32.4422226 -0.25906086 C37.4643103 -0.28511052 42.48597069 -0.32042382 47.5078125 -0.37719727 C52.35781531 -0.43168241 57.20740814 -0.46145536 62.05769348 -0.47438622 C63.90442861 -0.48359653 65.75114231 -0.50158234 67.59770203 -0.52865028 C70.19257392 -0.56516099 72.78577033 -0.56993632 75.38085938 -0.56762695 C76.51590912 -0.59459152 76.51590912 -0.59459152 77.67388916 -0.62210083 C83.52783506 -0.56604507 87.43544726 1.38024379 92 5 C97.36282687 10.9128604 97 12.09789189 97 21 C64.99 21 32.98 21 0 21 C0 14.07 0 7.14 0 0 Z " fill="#FAD732" transform="translate(149,316)"/>
<path d="M0 0 C10.64911856 -0.1359106 21.29765492 -0.24583604 31.94744682 -0.31087303 C36.89335397 -0.34209804 41.83863361 -0.38440816 46.78417969 -0.45263672 C51.56288893 -0.51814606 56.34099715 -0.55377236 61.120121 -0.56926346 C62.93732277 -0.58029344 64.75449409 -0.60183235 66.57143784 -0.63438034 C85.64409641 -0.96224697 85.64409641 -0.96224697 93 6 C96.88658844 11.29718925 97 14.10913902 97 21 C64.99 21 32.98 21 0 21 C0 14.07 0 7.14 0 0 Z " fill="#FFDC3A" transform="translate(256,316)"/>
<path d="M0 0 C1.35834961 0.0009668 1.35834961 0.0009668 2.74414062 0.00195312 C9.40582483 0.04666241 9.40582483 0.04666241 11.6875 1.1875 C15.42842512 12.41027535 12.352414 24.77280827 7.6875 35.1875 C5.88386166 38.36393099 3.94885532 41.32000821 1.6875 44.1875 C-1.3125 43.1875 -1.3125 43.1875 -3.3125 40.125 C-8.42565022 32.64008733 -17.63529495 26.71613337 -26.3125 24.1875 C-30.96179196 23.32688638 -35.61244219 22.69561436 -40.3125 22.1875 C-34.44820432 11.88487719 -25.1670877 5.06878338 -14.0859375 1.00390625 C-9.32606423 -0.0259214 -4.85233693 -0.06705047 0 0 Z " fill="#FBD832" transform="translate(334.3125,180.8125)"/>
<path d="M0 0 C8.59868438 0.61419174 16.69484752 2.80907021 25 5 C25.18369141 5.95132813 25.18369141 5.95132813 25.37109375 6.921875 C25.80696091 9.19716567 25.80696091 9.19716567 28.0625 10.25 C29.0215625 10.62125 29.0215625 10.62125 30 11 C30 11.99 30 12.98 30 14 C28.1875 14.6875 28.1875 14.6875 26 15 C24.4375 13.5625 24.4375 13.5625 23 12 C22.01 12 21.02 12 20 12 C20 12.99 20 13.98 20 15 C20.9590625 15.37125 20.9590625 15.37125 21.9375 15.75 C24 17 24 17 24.75 19.125 C24.8325 19.74375 24.915 20.3625 25 21 C24.030625 21.28875 23.06125 21.5775 22.0625 21.875 C18.89335797 22.64214682 18.89335797 22.64214682 18 25 C18.66 25 19.32 25 20 25 C20.495 26.485 20.495 26.485 21 28 C21.66 28.33 22.32 28.66 23 29 C22.34 30.32 21.68 31.64 21 33 C20.01 32.67 19.02 32.34 18 32 C17.3125 29.9375 17.3125 29.9375 17 28 C12.32638147 31.23045841 8.65298751 33.84141317 6 39 C5.01 39.495 5.01 39.495 4 40 C4 41.32 4 42.64 4 44 C5.32 44.66 6.64 45.32 8 46 C7 49 7 49 5 50 C5 50.99 5 51.98 5 53 C5.8353125 52.4740625 5.8353125 52.4740625 6.6875 51.9375 C9.59885163 50.75722231 11.02993989 51.08613535 14 52 C14.99 52.66 15.98 53.32 17 54 C17 53.01 17 52.02 17 51 C16.360625 50.731875 15.72125 50.46375 15.0625 50.1875 C13 49 13 49 12 46 C11.319375 45.525625 10.63875 45.05125 9.9375 44.5625 C9.298125 44.046875 8.65875 43.53125 8 43 C8 41.68 8 40.36 8 39 C11.82283043 39.54611863 13.41079952 41.23818615 16 44 C16.99 44.495 16.99 44.495 18 45 C18.33 45.99 18.66 46.98 19 48 C22.00007271 49.70855022 22.00007271 49.70855022 25 51 C25 52.98 25 54.96 25 57 C22.525 57.495 22.525 57.495 20 58 C20 58.66 20 59.32 20 60 C22.46326712 61.6446674 22.46326712 61.6446674 25 63 C24.67 63.99 24.34 64.98 24 66 C21.525 66.495 21.525 66.495 19 67 C18.505 68.98 18.505 68.98 18 71 C16.68 71 15.36 71 14 71 C14.495 69.02 14.495 69.02 15 67 C16.98 66.505 16.98 66.505 19 66 C18.58493854 63.09456975 18.06074946 62.06074946 15.9375 59.9375 C15.298125 59.298125 14.65875 58.65875 14 58 C14 57.01 14 56.02 14 55 C12.02 55 10.04 55 8 55 C8.33 56.98 8.66 58.96 9 61 C9.99 61.33 10.98 61.66 12 62 C12 66 12 66 9.8125 68.75 C7 71 7 71 4.1875 71.3125 C3.465625 71.209375 2.74375 71.10625 2 71 C2.66 69.02 3.32 67.04 4 65 C5.485 65.495 5.485 65.495 7 66 C6.67 65.01 6.34 64.02 6 63 C4.515 62.505 4.515 62.505 3 62 C2.731875 62.639375 2.46375 63.27875 2.1875 63.9375 C1 66 1 66 -2 67 C-2 66.34 -2 65.68 -2 65 C-2.66 64.67 -3.32 64.34 -4 64 C-3.34 63.4225 -2.68 62.845 -2 62.25 C0.44290923 60.00346023 0.44290923 60.00346023 0 56 C-0.5775 55.7525 -1.155 55.505 -1.75 55.25 C-4.3002997 53.83316683 -6.01785701 52.12372463 -8 50 C-8.2475 50.78375 -8.495 51.5675 -8.75 52.375 C-10.20924503 55.43941457 -11.05014956 55.61725761 -14 57 C-15.26804566 59.0335948 -15.26804566 59.0335948 -16 61 C-17.32 60.67 -18.64 60.34 -20 60 C-20.33 58.68 -20.66 57.36 -21 56 C-19.68 55.34 -18.36 54.68 -17 54 C-17 53.01 -17 52.02 -17 51 C-19.44496043 49.28288757 -19.44496043 49.28288757 -22 48 C-21.67 47.01 -21.34 46.02 -21 45 C-19.35 45.33 -17.7 45.66 -16 46 C-15.67 46.99 -15.34 47.98 -15 49 C-13.05000871 48.80528889 -13.05000871 48.80528889 -11 48 C-10.71125 47.401875 -10.4225 46.80375 -10.125 46.1875 C-8.06619593 42.18426986 -4.14145696 40.38048565 0 39 C0 37.35 0 35.7 0 34 C-1.485 34.495 -1.485 34.495 -3 35 C-3.33 35.99 -3.66 36.98 -4 38 C-5.32 37.67 -6.64 37.34 -8 37 C-6.55922954 33.63820226 -4.75249979 31.40843732 -2 29 C-1.34 29 -0.68 29 0 29 C0 30.32 0 31.64 0 33 C4.1395563 31.13557595 4.1395563 31.13557595 7.625 28.3125 C9 27 9 27 13 27 C13 25.35 13 23.7 13 22 C9.75791433 22.35049575 8.38472296 22.56221181 6.1875 25.0625 C5.795625 25.701875 5.40375 26.34125 5 27 C3.35 26.67 1.7 26.34 0 26 C1.04874998 23.37812506 1.64931313 22.20628639 4.125 20.75 C4.74375 20.5025 5.3625 20.255 6 20 C6 19.34 6 18.68 6 18 C3.07120629 18.62759865 0.63904371 19.58622659 -2 21 C-2.66 20.34 -3.32 19.68 -4 19 C-4 17.68 -4 16.36 -4 15 C-3.401875 14.938125 -2.80375 14.87625 -2.1875 14.8125 C0.87143458 13.6763243 1.55041099 11.82669858 3 9 C1.35 9 -0.3 9 -2 9 C-2.33 8.01 -2.66 7.02 -3 6 C-2.34 5.34 -1.68 4.68 -1 4 C1.125 4.375 1.125 4.375 3 5 C2.01 3.35 1.02 1.7 0 0 Z " fill="#FFDE41" transform="translate(284,31)"/>
<path d="M0 0 C9.24 0 18.48 0 28 0 C30.10079487 29.06997344 30.10079487 29.06997344 25.17578125 35.953125 C22.14054343 39.2491265 18.87500825 41.76365205 15 44 C14.34 44 13.68 44 13 44 C13 43.34 13 42.68 13 42 C12.43724365 41.74468506 11.8744873 41.48937012 11.29467773 41.22631836 C6.52858055 38.67922759 2.9435492 35.55090683 0 31 C-1.08093446 25.58661635 -0.86116425 20.42302936 -0.5625 14.9375 C-0.51727114 13.48515113 -0.47622129 12.03266581 -0.43945312 10.58007812 C-0.34876333 7.04720689 -0.17294179 3.53356381 0 0 Z " fill="#FAD732" transform="translate(169,346)"/>
<path d="M0 0 C12.68072777 -0.84413129 21.78493483 1.06077268 31.5625 9.4375 C35.05623166 12.64438998 37.05252632 15.67573736 39 20 C26.25911281 29.87665674 13.49120618 30.58889485 -2 30 C-5.06996329 19.8605595 -4.86144636 9.72289272 0 0 Z " fill="#FAD834" transform="translate(289,212)"/>
<path d="M0 0 C10.64897906 -0.1394262 21.29773862 -0.24583655 31.94744682 -0.31087303 C36.89335397 -0.34209804 41.83863361 -0.38440816 46.78417969 -0.45263672 C51.56288893 -0.51814606 56.34099715 -0.55377236 61.120121 -0.56926346 C62.93732277 -0.58029344 64.75449409 -0.60183235 66.57143784 -0.63438034 C85.64409641 -0.96224697 85.64409641 -0.96224697 93 6 C96.88658844 11.29718925 97 14.10913902 97 21 C88.42 21 79.84 21 71 21 C71.66 19.68 72.32 18.36 73 17 C73 16.01 73 15.02 73 14 C72.4225 14.309375 71.845 14.61875 71.25 14.9375 C69.15705816 15.92583364 67.25464725 16.5168613 65 17 C65 15.68 65 14.36 65 13 C65.99 12.67 66.98 12.34 68 12 C68 10.35 68 8.7 68 7 C66.68 7.33 65.36 7.66 64 8 C63.01 6.02 62.02 4.04 61 2 C30.805 1.505 30.805 1.505 0 1 C0 0.67 0 0.34 0 0 Z " fill="#F3D131" transform="translate(256,316)"/>
<path d="M0 0 C1.31476318 -0.00953201 2.62952637 -0.01906403 3.98413086 -0.02888489 C5.42561876 -0.02862349 6.86710667 -0.02768662 8.30859375 -0.02612305 C9.78068158 -0.03000819 11.25276828 -0.03434248 12.72485352 -0.03910828 C15.81172315 -0.04657593 18.89847843 -0.04627506 21.98535156 -0.04101562 C25.94690275 -0.03521645 29.9079871 -0.05215968 33.86946106 -0.0753603 C36.90973664 -0.09006975 39.94989901 -0.09097325 42.99020386 -0.08785057 C44.45108974 -0.08836507 45.91198175 -0.09362686 47.37283325 -0.10366249 C49.41258194 -0.11595595 51.45242466 -0.10731978 53.4921875 -0.09765625 C55.23520142 -0.09860039 55.23520142 -0.09860039 57.01342773 -0.0995636 C58.36609741 0.08567619 58.36609741 0.08567619 59.74609375 0.2746582 C61.74609375 3.2746582 61.74609375 3.2746582 61.43359375 5.8996582 C60.74609375 8.2746582 60.74609375 8.2746582 59.74609375 9.2746582 C57.70140401 9.3793129 55.65306821 9.41321864 53.60571289 9.41992188 C52.29087418 9.42630173 50.97603546 9.43268158 49.62135315 9.43925476 C48.17465247 9.44078331 46.7279513 9.44189734 45.28125 9.44262695 C43.80773383 9.4458378 42.33421799 9.44920174 40.86070251 9.45271301 C37.76788595 9.45871073 34.67509736 9.46055226 31.58227539 9.45996094 C27.61295607 9.45985929 23.64381553 9.47351141 19.67453861 9.49073315 C16.62999137 9.50183457 13.58548758 9.50388072 10.54092216 9.50335121 C9.07724834 9.50453414 7.6135735 9.50897337 6.14991951 9.51668358 C4.10525933 9.5264454 2.06054705 9.52235108 0.01586914 9.51757812 C-1.14915634 9.51900314 -2.31418182 9.52042816 -3.51451111 9.52189636 C-6.25390625 9.2746582 -6.25390625 9.2746582 -8.25390625 7.2746582 C-8.50390625 4.7746582 -8.50390625 4.7746582 -8.25390625 2.2746582 C-5.4900655 -0.48918254 -3.87083056 0.01534793 0 0 Z " fill="#080601" transform="translate(171.25390625,278.725341796875)"/>
<path d="M0 0 C1.31476318 -0.00953201 2.62952637 -0.01906403 3.98413086 -0.02888489 C5.42561876 -0.02862349 6.86710667 -0.02768662 8.30859375 -0.02612305 C9.78068158 -0.03000819 11.25276828 -0.03434248 12.72485352 -0.03910828 C15.81172315 -0.04657593 18.89847843 -0.04627506 21.98535156 -0.04101562 C25.94690275 -0.03521645 29.9079871 -0.05215968 33.86946106 -0.0753603 C36.90973664 -0.09006975 39.94989901 -0.09097325 42.99020386 -0.08785057 C44.45108974 -0.08836507 45.91198175 -0.09362686 47.37283325 -0.10366249 C49.41258194 -0.11595595 51.45242466 -0.10731978 53.4921875 -0.09765625 C55.23520142 -0.09860039 55.23520142 -0.09860039 57.01342773 -0.0995636 C58.36609741 0.08567619 58.36609741 0.08567619 59.74609375 0.2746582 C61.74609375 3.2746582 61.74609375 3.2746582 61.43359375 5.8996582 C60.74609375 8.2746582 60.74609375 8.2746582 59.74609375 9.2746582 C57.70140401 9.3793129 55.65306821 9.41321864 53.60571289 9.41992188 C52.29087418 9.42630173 50.97603546 9.43268158 49.62135315 9.43925476 C48.17465247 9.44078331 46.7279513 9.44189734 45.28125 9.44262695 C43.80773383 9.4458378 42.33421799 9.44920174 40.86070251 9.45271301 C37.76788595 9.45871073 34.67509736 9.46055226 31.58227539 9.45996094 C27.61295607 9.45985929 23.64381553 9.47351141 19.67453861 9.49073315 C16.62999137 9.50183457 13.58548758 9.50388072 10.54092216 9.50335121 C9.07724834 9.50453414 7.6135735 9.50897337 6.14991951 9.51668358 C4.10525933 9.5264454 2.06054705 9.52235108 0.01586914 9.51757812 C-1.14915634 9.51900314 -2.31418182 9.52042816 -3.51451111 9.52189636 C-6.25390625 9.2746582 -6.25390625 9.2746582 -8.25390625 7.2746582 C-8.50390625 4.7746582 -8.50390625 4.7746582 -8.25390625 2.2746582 C-5.4900655 -0.48918254 -3.87083056 0.01534793 0 0 Z " fill="#080601" transform="translate(171.25390625,242.725341796875)"/>
<path d="M0 0 C8.70115581 -0.0462833 17.40226942 -0.08184872 26.10352135 -0.10362434 C30.14360264 -0.11407407 34.18359989 -0.1282548 38.22363281 -0.15087891 C42.12044733 -0.17256512 46.01718087 -0.18455967 49.91405106 -0.18975449 C51.40285136 -0.19345786 52.8916471 -0.20068938 54.38041306 -0.21146011 C56.46122667 -0.22591919 58.54170306 -0.22798033 60.62255859 -0.22705078 C61.80836517 -0.231492 62.99417175 -0.23593323 64.21591187 -0.24050903 C67 0 67 0 69 2 C68.44444444 6.55555556 68.44444444 6.55555556 67 8 C64.91380978 8.09417773 62.82439523 8.11742878 60.73608398 8.11352539 C59.7556311 8.11374443 59.7556311 8.11374443 58.75537109 8.1139679 C56.58557872 8.11326883 54.41587121 8.10547678 52.24609375 8.09765625 C50.74536689 8.09579205 49.24463943 8.09436816 47.74391174 8.09336853 C43.78681774 8.08954352 39.82976022 8.0797134 35.87268066 8.06866455 C31.83765151 8.05845006 27.80261647 8.05387083 23.76757812 8.04882812 C15.84503531 8.03809111 7.92252219 8.0210149 0 8 C-1.125 2.25 -1.125 2.25 0 0 Z " fill="#000000" transform="translate(164,208)"/>
<path d="M0 0 C1.31483871 -0.00637985 2.62967743 -0.0127597 3.98435974 -0.01933289 C5.43106042 -0.02086144 6.87776159 -0.02197546 8.32446289 -0.02270508 C9.79797906 -0.02591593 11.2714949 -0.02927986 12.74501038 -0.03279114 C15.83782694 -0.03878885 18.93061553 -0.04063039 22.0234375 -0.04003906 C25.99275682 -0.03993741 29.96189736 -0.05358953 33.93117428 -0.07081127 C36.97572153 -0.08191269 40.02022531 -0.08395884 43.06479073 -0.08342934 C44.52846455 -0.08461227 45.99213939 -0.08905149 47.45579338 -0.0967617 C49.50045356 -0.10652353 51.54516584 -0.10242921 53.58984375 -0.09765625 C55.33738197 -0.09979378 55.33738197 -0.09979378 57.120224 -0.10197449 C59.85961914 0.14526367 59.85961914 0.14526367 61.85961914 2.14526367 C61.30406359 6.70081923 61.30406359 6.70081923 59.85961914 8.14526367 C57.8149294 8.24991837 55.7665936 8.28382411 53.71923828 8.29052734 C52.40439957 8.2969072 51.08956085 8.30328705 49.73487854 8.30986023 C48.28817786 8.31138878 46.84147669 8.31250281 45.39477539 8.31323242 C43.92125923 8.31644327 42.44774339 8.31980721 40.97422791 8.32331848 C37.88141134 8.3293162 34.78862275 8.33115773 31.69580078 8.33056641 C27.72648146 8.33046476 23.75734092 8.34411688 19.788064 8.36133862 C16.74351676 8.37244004 13.69901298 8.37448619 10.65444756 8.37395668 C9.19077374 8.37513961 7.72709889 8.37957883 6.2634449 8.38728905 C4.21878473 8.39705087 2.17407244 8.39295655 0.12939453 8.38818359 C-1.03563095 8.38960861 -2.20065643 8.39103363 -3.40098572 8.39250183 C-6.14038086 8.14526367 -6.14038086 8.14526367 -8.14038086 6.14526367 C-7.37179353 -0.15715241 -6.08763568 0.01993149 0 0 Z " fill="#000000" transform="translate(171.140380859375,171.854736328125)"/>
<path d="M0 0 C1.09453491 -0.00630432 2.18906982 -0.01260864 3.31677246 -0.019104 C5.09646423 -0.01303131 5.09646423 -0.01303131 6.91210938 -0.00683594 C8.1253186 -0.00874939 9.33852783 -0.01066284 10.58850098 -0.01263428 C13.15747281 -0.01399728 15.7264515 -0.01029286 18.29541016 -0.00195312 C22.23941441 0.00874446 26.18296313 -0.00184487 30.12695312 -0.01464844 C32.61783955 -0.01332686 35.1087257 -0.01076452 37.59960938 -0.00683594 C38.78607056 -0.0108844 39.97253174 -0.01493286 41.19494629 -0.019104 C42.83674866 -0.00964752 42.83674866 -0.00964752 44.51171875 0 C45.96161194 0.00238678 45.96161194 0.00238678 47.4407959 0.00482178 C49.75585938 0.25878906 49.75585938 0.25878906 51.75585938 2.25878906 C52.00585938 4.75878906 52.00585938 4.75878906 51.75585938 7.25878906 C49.16399102 9.85065742 48.1175931 9.51164222 44.51171875 9.51757812 C42.86991638 9.52703461 42.86991638 9.52703461 41.19494629 9.53668213 C40.00848511 9.53263367 38.82202393 9.52858521 37.59960938 9.52441406 C36.38640015 9.52632751 35.17319092 9.52824097 33.92321777 9.5302124 C31.35424594 9.53157541 28.78526725 9.52787098 26.21630859 9.51953125 C22.27230434 9.50883367 18.32875562 9.519423 14.38476562 9.53222656 C11.8938792 9.53090499 9.40299305 9.52834264 6.91210938 9.52441406 C5.1324176 9.53048676 5.1324176 9.53048676 3.31677246 9.53668213 C2.22223755 9.53037781 1.12770264 9.52407349 0 9.51757812 C-0.96659546 9.51598694 -1.93319092 9.51439575 -2.92907715 9.51275635 C-5.24414062 9.25878906 -5.24414062 9.25878906 -7.24414062 7.25878906 C-7.49414062 4.75878906 -7.49414062 4.75878906 -7.24414062 2.25878906 C-4.65227227 -0.3330793 -3.60587435 0.0059359 0 0 Z " fill="#080701" transform="translate(281.244140625,258.7412109375)"/>
<path d="M0 0 C0.66 0 1.32 0 2 0 C2.433125 1.0725 2.86625 2.145 3.3125 3.25 C4.55447295 6.17750767 6.04356954 8.48458941 8 11 C8 11.66 8 12.32 8 13 C8.78375 13.12375 9.5675 13.2475 10.375 13.375 C13 14 13 14 15 16 C16.89667109 15.71447643 16.89667109 15.71447643 19 15 C20.66519519 14.65939189 22.33157466 14.32441604 24 14 C24.66 14.99 25.32 15.98 26 17 C28.05003955 18.19232613 28.05003955 18.19232613 30 19 C29.67 20.32 29.34 21.64 29 23 C27.0625 22.625 27.0625 22.625 25 22 C24.505 21.01 24.505 21.01 24 20 C19.93608017 19.58498429 19.93608017 19.58498429 17.25 22.1875 C14.73392764 25.33259045 14.79290545 26.16875074 15 30 C14.01 30.66 13.02 31.32 12 32 C12 31.34 12 30.68 12 30 C11.2575 30.845625 10.515 31.69125 9.75 32.5625 C7 35 7 35 4.9375 35.0625 C2.4828755 33.7164156 0.88264829 32.06484006 -1 30 C-1.5775 29.46375 -2.155 28.9275 -2.75 28.375 C-4 27 -4 27 -4 25 C-5.65 25 -7.3 25 -9 25 C-9.2475 25.61875 -9.495 26.2375 -9.75 26.875 C-11.22246063 29.37818306 -12.41028837 29.83045281 -15 31 C-15.33 31.66 -15.66 32.32 -16 33 C-16.99 33 -17.98 33 -19 33 C-18.67 32.01 -18.34 31.02 -18 30 C-17.34 29.67 -16.68 29.34 -16 29 C-16 27.68 -16 26.36 -16 25 C-17.32 24.67 -18.64 24.34 -20 24 C-20.103125 24.763125 -20.20625 25.52625 -20.3125 26.3125 C-21.06227192 29.24342658 -21.83473267 30.01517162 -24 32 C-24.33 32.99 -24.66 33.98 -25 35 C-24.01 35.33 -23.02 35.66 -22 36 C-22 37.32 -22 38.64 -22 40 C-23.9375 39.6875 -23.9375 39.6875 -26 39 C-26.495 37.515 -26.495 37.515 -27 36 C-27.66 35.34 -28.32 34.68 -29 34 C-28.38125 33.29875 -27.7625 32.5975 -27.125 31.875 C-24.85655711 29.12773605 -24.85655711 29.12773605 -24 25.875 C-23 23 -23 23 -21.1875 21 C-19 20 -19 20 -16.5 20.8125 C-15.675 21.204375 -14.85 21.59625 -14 22 C-12.68 22 -11.36 22 -10 22 C-9.34 20.68 -8.68 19.36 -8 18 C-6.68 18.33 -5.36 18.66 -4 19 C-3.67 20.32 -3.34 21.64 -3 23 C-2.21625 23.0825 -1.4325 23.165 -0.625 23.25 C2 24 2 24 3.3125 26.0625 C3.539375 26.701875 3.76625 27.34125 4 28 C5.34313399 27.35330586 6.67391178 26.68096422 8 26 C8.886875 25.566875 9.77375 25.13375 10.6875 24.6875 C13.23992223 23.18087317 13.23992223 23.18087317 13.8125 20.3125 C13.9053125 19.1678125 13.9053125 19.1678125 14 18 C12.700625 18.0309375 12.700625 18.0309375 11.375 18.0625 C6.80450469 16.62364037 5.79119072 14.17489214 3.4921875 10.12890625 C1.85780486 7.79712998 0.61720295 7.02778571 -2 6 C-1.34 4.02 -0.68 2.04 0 0 Z " fill="#FDDC3F" transform="translate(413,333)"/>
<path d="M0 0 C4.85042388 0.41575062 6.84319505 2.41659978 10 6 C10.99 7.485 10.99 7.485 12 9 C12.8971875 9.1546875 12.8971875 9.1546875 13.8125 9.3125 C17.45796396 10.45821725 18.92485624 12.91692928 21 16 C20.8125 18.875 20.8125 18.875 20 21 C19.01 21.33 18.02 21.66 17 22 C15.55802374 23.55726859 15.55802374 23.55726859 14.3125 25.4375 C13.87550781 26.05496094 13.43851563 26.67242187 12.98828125 27.30859375 C11.8318364 28.96131105 11.8318364 28.96131105 12 31 C12.86625 30.5359375 12.86625 30.5359375 13.75 30.0625 C15.84294184 29.07416636 17.74535275 28.4831387 20 28 C20 28.99 20 29.98 20 31 C19.01 31.66 18.02 32.32 17 33 C17.27034634 35.43717258 17.27034634 35.43717258 18 38 C18.99 38.66 19.98 39.32 21 40 C21 40.66 21 41.32 21 42 C22.65 42.66 24.3 43.32 26 44 C26 45.65 26 47.3 26 49 C24.68 49.66 23.36 50.32 22 51 C22 52.32 22 53.64 22 55 C20.02 54.34 18.04 53.68 16 53 C16 51.68 16 50.36 16 49 C17.98 48.505 17.98 48.505 20 48 C18.56499936 42.81114825 18.56499936 42.81114825 15 39 C13.9790625 38.814375 13.9790625 38.814375 12.9375 38.625 C12.298125 38.41875 11.65875 38.2125 11 38 C10.30341637 36.34561387 9.63903117 34.67745682 9 33 C6.98682781 31.19651922 6.98682781 31.19651922 5 30 C6.32 27.69 7.64 25.38 9 23 C8.443125 23.144375 7.88625 23.28875 7.3125 23.4375 C6.549375 23.623125 5.78625 23.80875 5 24 C4.175 24.268125 3.35 24.53625 2.5 24.8125 C0 25 0 25 -2.0625 23.3125 C-2.701875 22.549375 -3.34125 21.78625 -4 21 C-4.7425 20.2575 -5.485 19.515 -6.25 18.75 C-7.11625 17.88375 -7.11625 17.88375 -8 17 C-7.34 16.34 -6.68 15.68 -6 15 C-3.4375 15.25 -3.4375 15.25 -1 16 C-0.67 16.66 -0.34 17.32 0 18 C3.02419525 17.41196203 6.01758453 16.77321882 9 16 C9.66 16.99 10.32 17.98 11 19 C12.32 19 13.64 19 15 19 C14.64709213 16.13262357 14.16086977 15.1438547 11.96875 13.18359375 C11.1540625 12.60738281 10.339375 12.03117187 9.5 11.4375 C5.10504492 8.31513476 5.10504492 8.31513476 4 5 C1.99983534 3.79117904 1.99983534 3.79117904 0 3 C0 2.01 0 1.02 0 0 Z " fill="#FFDD3F" transform="translate(197,88)"/>
<path d="M0 0 C2.9375 0.1875 2.9375 0.1875 3.9375 1.1875 C4.06465522 3.97012943 4.12271315 6.7169073 4.125 9.5 C4.13724609 10.27279297 4.14949219 11.04558594 4.16210938 11.84179688 C4.18026717 18.88096974 4.18026717 18.88096974 1.9375 22.1875 C3.5875 21.8575 5.2375 21.5275 6.9375 21.1875 C7.6605444 27.21286998 7.6605444 27.21286998 5.6015625 29.98828125 C4.11011584 31.45522057 2.52817631 32.82879731 0.9375 34.1875 C-3.79577475 32.18496068 -7.4561338 28.7938662 -11.0625 25.1875 C-9.80708443 22.67666886 -8.56186512 22.31624554 -6.0625 21.1875 C-6.04268066 20.62240723 -6.02286133 20.05731445 -6.00244141 19.47509766 C-5.90731764 16.92042003 -5.79758942 14.36657459 -5.6875 11.8125 C-5.6565625 10.92304688 -5.625625 10.03359375 -5.59375 9.1171875 C-5.53574219 7.84101563 -5.53574219 7.84101563 -5.4765625 6.5390625 C-5.4451416 5.75354004 -5.4137207 4.96801758 -5.38134766 4.15869141 C-4.80638984 0.60416661 -3.43014191 0.21000869 0 0 Z " fill="#EAC92F" transform="translate(251.0625,125.8125)"/>
<path d="M0 0 C2.83884255 1.23744419 4.37119232 2.78243635 6.4375 5.0625 C7.0975 5.3925 7.7575 5.7225 8.4375 6.0625 C8.4375 7.3825 8.4375 8.7025 8.4375 10.0625 C7.4475 10.5575 7.4475 10.5575 6.4375 11.0625 C6.788125 11.949375 7.13875 12.83625 7.5 13.75 C8.45505602 17.12453126 8.40901132 18.75936152 7.4375 22.0625 C5.7875 22.3925 4.1375 22.7225 2.4375 23.0625 C2.31375 23.701875 2.19 24.34125 2.0625 25 C1.85625 25.680625 1.65 26.36125 1.4375 27.0625 C0.7775 27.3925 0.1175 27.7225 -0.5625 28.0625 C-0.5625 26.7425 -0.5625 25.4225 -0.5625 24.0625 C-2.2640625 23.5365625 -2.2640625 23.5365625 -4 23 C-5.9375 22.1953125 -5.9375 22.1953125 -7.5625 21.0625 C-8.5 17.375 -8.5 17.375 -8.5625 14.0625 C-6.9125 13.7325 -5.2625 13.4025 -3.5625 13.0625 C-3.5625 12.4025 -3.5625 11.7425 -3.5625 11.0625 C-4.696875 10.93875 -5.83125 10.815 -7 10.6875 C-8.7634375 10.378125 -8.7634375 10.378125 -10.5625 10.0625 C-10.8925 9.4025 -11.2225 8.7425 -11.5625 8.0625 C-10.5725 8.0625 -9.5825 8.0625 -8.5625 8.0625 C-8.2325 7.0725 -7.9025 6.0825 -7.5625 5.0625 C-3.49010181 0.08512443 -3.49010181 0.08512443 0 0 Z " fill="#FFDD40" transform="translate(406.5625,362.9375)"/>
<path d="M0 0 C0.66 0 1.32 0 2 0 C2.6875 2.3125 2.6875 2.3125 3 5 C1.6875 6.8125 1.6875 6.8125 0 8 C-0.66 8 -1.32 8 -2 8 C-2.226875 8.53625 -2.45375 9.0725 -2.6875 9.625 C-4.43382056 12.78500863 -6.6402849 15.2676983 -9 18 C-12.32812571 17.42618522 -13.69842455 16.40619252 -16 14 C-16.66 14 -17.32 14 -18 14 C-18.66 15.32 -19.32 16.64 -20 18 C-21.9375 17.625 -21.9375 17.625 -24 17 C-24.33 16.34 -24.66 15.68 -25 15 C-26.32 15 -27.64 15 -29 15 C-29.33 15.66 -29.66 16.32 -30 17 C-31.32 17 -32.64 17 -34 17 C-33.38545304 13.00544473 -31.29353263 10.25533664 -29 7 C-27.0625 7.3125 -27.0625 7.3125 -25 8 C-24.67 8.99 -24.34 9.98 -24 11 C-22.68 11 -21.36 11 -20 11 C-19.7525 10.360625 -19.505 9.72125 -19.25 9.0625 C-18 7 -18 7 -15.875 6.25 C-15.25625 6.1675 -14.6375 6.085 -14 6 C-14 4.35 -14 2.7 -14 1 C-11.625 1.25 -11.625 1.25 -9 2 C-7.6875 4.0625 -7.6875 4.0625 -7 6 C-5.68 6 -4.36 6 -3 6 C-2.01 4.02 -1.02 2.04 0 0 Z " fill="#FFDD3F" transform="translate(333,186)"/>
<path d="M0 0 C0.99 0.33 1.98 0.66 3 1 C3.12375 1.639375 3.2475 2.27875 3.375 2.9375 C3.58125 3.618125 3.7875 4.29875 4 5 C5.65697379 5.69040574 7.3255761 6.3530635 9 7 C11.63283462 9.27381172 13.60489131 10.98400623 14.875 14.25 C14.91625 14.8275 14.9575 15.405 15 16 C14 17 14 17 11.4375 17.0625 C10.633125 17.041875 9.82875 17.02125 9 17 C8.67 18.65 8.34 20.3 8 22 C6.68 22 5.36 22 4 22 C3.7525 21.38125 3.505 20.7625 3.25 20.125 C1.79371361 17.64931313 0.62187494 17.04874998 -2 16 C-2 15.01 -2 14.02 -2 13 C-2.66 13 -3.32 13 -4 13 C-4 12.34 -4 11.68 -4 11 C-4.99 11 -5.98 11 -7 11 C-7.33 9.68 -7.66 8.36 -8 7 C-7.236875 6.5875 -6.47375 6.175 -5.6875 5.75 C-3.0633358 4.04124191 -1.69678024 2.58982247 0 0 Z " fill="#FFDD40" transform="translate(282,126)"/>
<path d="M0 0 C0.99 0.33 1.98 0.66 3 1 C3.6875 3.0625 3.6875 3.0625 4 5 C4.99 5 5.98 5 7 5 C7.5775 5.928125 8.155 6.85625 8.75 7.8125 C10.95481063 10.93598172 11.39174051 11.43389823 14.6875 12.6875 C16.3271875 13.3371875 16.3271875 13.3371875 18 14 C18.33 14.99 18.66 15.98 19 17 C13.62819824 19.62875405 8.95507399 20.6083965 3 21 C3 19.68 3 18.36 3 17 C1.35 16.67 -0.3 16.34 -2 16 C-2 14.68 -2 13.36 -2 12 C-4.475 11.01 -4.475 11.01 -7 10 C-6.34 8.68 -5.68 7.36 -5 6 C-4.401875 6.495 -3.80375 6.99 -3.1875 7.5 C-1.02970006 9.28276418 -1.02970006 9.28276418 2 9 C2 8.34 2 7.68 2 7 C0.0399719 5.36323743 0.0399719 5.36323743 -2 4 C-1.34 2.68 -0.68 1.36 0 0 Z " fill="#FEDD3F" transform="translate(299,221)"/>
<path d="M0 0 C2.0625 0.4375 2.0625 0.4375 4 1 C3.625 3.4375 3.625 3.4375 3 6 C2.01 6.495 2.01 6.495 1 7 C1.5545374 10.32722441 2.24013043 13.1013913 4 16 C4.66 16.33 5.32 16.66 6 17 C5.236875 17.226875 4.47375 17.45375 3.6875 17.6875 C0.45263699 19.26731682 -0.41641358 20.83282717 -2 24 C-3.32 23.67 -4.64 23.34 -6 23 C-5.6875 21.125 -5.6875 21.125 -5 19 C-4.01 18.34 -3.02 17.68 -2 17 C-1.27617533 14.94074861 -1.27617533 14.94074861 -1 13 C-5.06739289 12.56013255 -5.06739289 12.56013255 -7.5625 15.25 C-9.96564545 17.84061378 -9.96564545 17.84061378 -11.5625 20.3125 C-12.036875 20.869375 -12.51125 21.42625 -13 22 C-14.32 22 -15.64 22 -17 22 C-17 20.02 -17 18.04 -17 16 C-16.360625 15.71125 -15.72125 15.4225 -15.0625 15.125 C-12.84793921 14.17176549 -12.84793921 14.17176549 -12 12 C-13.32 11.34 -14.64 10.68 -16 10 C-16 9.01 -16 8.02 -16 7 C-14.35 7 -12.7 7 -11 7 C-10.34 8.32 -9.68 9.64 -9 11 C-6.48916886 9.74458443 -6.12874554 8.49936512 -5 6 C-3.68 6 -2.36 6 -1 6 C-1.020625 5.195625 -1.04125 4.39125 -1.0625 3.5625 C-1 1 -1 1 0 0 Z " fill="#FDDC3F" transform="translate(292,103)"/>
<path d="M0 0 C0.66 0.33 1.32 0.66 2 1 C2.625 3.5625 2.625 3.5625 3 6 C4.65 5.67 6.3 5.34 8 5 C8.33 3.68 8.66 2.36 9 1 C10.32 1.33 11.64 1.66 13 2 C13 3.32 13 4.64 13 6 C11.02 6.99 11.02 6.99 9 8 C9.33 8.99 9.66 9.98 10 11 C10.99 11.33 11.98 11.66 13 12 C13.33 10.02 13.66 8.04 14 6 C16.9375 6.8125 16.9375 6.8125 20 8 C20.33 8.99 20.66 9.98 21 11 C21.99 11.33 22.98 11.66 24 12 C23.34 13.65 22.68 15.3 22 17 C21.01 16.67 20.02 16.34 19 16 C18.67 15.34 18.34 14.68 18 14 C14.12270528 14.57441403 11.78480942 16.29254639 9 19 C9 20.32 9 21.64 9 23 C7.02 22.67 5.04 22.34 3 22 C2.67 20.68 2.34 19.36 2 18 C3.65 17.34 5.3 16.68 7 16 C6.45418801 12.20450741 4.94590705 10.69020705 2.0625 8.25 C1.35222656 7.63640625 0.64195312 7.0228125 -0.08984375 6.390625 C-1.87569353 4.80381172 -1.87569353 4.80381172 -4 5 C-2.25 1.125 -2.25 1.125 0 0 Z " fill="#FFDD3F" transform="translate(255,41)"/>
<path d="M0 0 C1.6875 0.9375 1.6875 0.9375 2.6875 2.9375 C3.450625 3.39125 4.21375 3.845 5 4.3125 C7.75168585 5.97631005 9.68751252 7.41899725 11.6875 9.9375 C11.9375 12.6875 11.9375 12.6875 11.6875 14.9375 C10.6975 15.2675 9.7075 15.5975 8.6875 15.9375 C8.3575 17.9175 8.0275 19.8975 7.6875 21.9375 C6.3675 22.2675 5.0475 22.5975 3.6875 22.9375 C3.275 21.98875 2.8625 21.04 2.4375 20.0625 C0.6834869 16.93033376 -0.02101757 16.07249394 -3.3125 14.9375 C-2.9825 13.6175 -2.6525 12.2975 -2.3125 10.9375 C-0.9925 10.6075 0.3275 10.2775 1.6875 9.9375 C1.42073796 7.95258358 1.42073796 7.95258358 0.6875 5.9375 C-0.3025 5.6075 -1.2925 5.2775 -2.3125 4.9375 C-2.6425 6.2575 -2.9725 7.5775 -3.3125 8.9375 C-4.9625 8.9375 -6.6125 8.9375 -8.3125 8.9375 C-8.3125 4.9375 -8.3125 4.9375 -5.5625 2.125 C-2.3125 -0.0625 -2.3125 -0.0625 0 0 Z " fill="#FEDC3E" transform="translate(238.3125,82.0625)"/>
<path d="M0 0 C1.65 0 3.3 0 5 0 C5 1.65 5 3.3 5 5 C5.94875 5.309375 6.8975 5.61875 7.875 5.9375 C11 7 11 7 13 8 C13 8.99 13 9.98 13 11 C13.66 11.33 14.32 11.66 15 12 C15.625 14.0625 15.625 14.0625 16 16 C14.91460937 16.19335938 13.82921875 16.38671875 12.7109375 16.5859375 C11.26558332 16.84872917 9.82027312 17.11176286 8.375 17.375 C7.66214844 17.50132812 6.94929688 17.62765625 6.21484375 17.7578125 C2.00094047 18.53100576 -1.95880171 19.53395015 -6 21 C-6.33 19.68 -6.66 18.36 -7 17 C-6.21625 16.7525 -5.4325 16.505 -4.625 16.25 C-1.60938271 14.81399177 -1.21785344 13.99779308 0 11 C0.66 10.34 1.32 9.68 2 9 C2 8.01 2 7.02 2 6 C1.01 5.34 0.02 4.68 -1 4 C-0.67 2.68 -0.34 1.36 0 0 Z " fill="#FDDB3E" transform="translate(264,132)"/>
<path d="M0 0 C1.32 0.33 2.64 0.66 4 1 C4 2.65 4 4.3 4 6 C3.01 6.495 3.01 6.495 2 7 C1.34786708 9.02463255 1.34786708 9.02463255 1 11 C2.32 11 3.64 11 5 11 C5.66 12.98 6.32 14.96 7 17 C8.32 17 9.64 17 11 17 C11.268125 16.360625 11.53625 15.72125 11.8125 15.0625 C13 13 13 13 16 12 C16.99 12.33 17.98 12.66 19 13 C19 13.66 19 14.32 19 15 C17.50390625 16.21875 17.50390625 16.21875 15.5625 17.5 C12.77468153 19.2865363 12.77468153 19.2865363 11 22 C6.25 21.25 6.25 21.25 4 19 C3.01 19 2.02 19 1 19 C0.34 20.32 -0.32 21.64 -1 23 C-2.65 22.67 -4.3 22.34 -6 22 C-5.61121002 19.18127263 -5.29189635 18.22804402 -3 16.4375 C-2.34 15.963125 -1.68 15.48875 -1 15 C-0.67 14.01 -0.34 13.02 0 12 C-1.32 11.67 -2.64 11.34 -4 11 C-3.67 9.35 -3.34 7.7 -3 6 C-2.34 6 -1.68 6 -1 6 C-1.33 5.01 -1.66 4.02 -2 3 C-1.34 2.01 -0.68 1.02 0 0 Z " fill="#FFDD3F" transform="translate(252,52)"/>
<path d="M0 0 C2.375 0.75 2.375 0.75 3.375 1.75 C3.47486975 4.59335048 3.51377881 7.40697163 3.5 10.25 C3.50386719 11.04792969 3.50773437 11.84585938 3.51171875 12.66796875 C3.50160767 18.62339233 3.50160767 18.62339233 2.375 19.75 C-0.5625 19.9375 -0.5625 19.9375 -3.625 19.75 C-6.09885671 17.27614329 -5.91071102 15.77495772 -5.94726562 12.38867188 C-5.94404297 11.70353516 -5.94082031 11.01839844 -5.9375 10.3125 C-5.95361328 9.63123047 -5.96972656 8.94996094 -5.98632812 8.24804688 C-5.98922426 5.29109093 -5.96184798 3.24410841 -4.26953125 0.76171875 C-2.625 -0.25 -2.625 -0.25 0 0 Z " fill="#0D0B02" transform="translate(420.625,190.25)"/>
<path d="M0 0 C2.5 0.25 2.5 0.25 4.5 2.25 C4.69852102 4.95922801 4.77839477 7.54303179 4.75 10.25 C4.75773437 10.98734375 4.76546875 11.7246875 4.7734375 12.484375 C4.7533196 17.9966804 4.7533196 17.9966804 2.5 20.25 C-0.5625 20 -0.5625 20 -3.5 19.25 C-5.0171199 16.21576019 -4.68439257 13.07495206 -4.6875 9.75 C-4.69974609 9.06035156 -4.71199219 8.37070313 -4.72460938 7.66015625 C-4.72988695 5.85522506 -4.62184458 4.05082158 -4.5 2.25 C-2.5 0.25 -2.5 0.25 0 0 Z " fill="#0B0902" transform="translate(419.5,161.75)"/>
<path d="M0 0 C1.1127832 -0.01836914 1.1127832 -0.01836914 2.24804688 -0.03710938 C4.18763629 -0.04238478 6.1267371 0.06561098 8.0625 0.1875 C10.0625 2.1875 10.0625 2.1875 10.3125 4.6875 C10.0625 7.1875 10.0625 7.1875 8.0625 9.1875 C5.53457337 9.41305081 3.15194424 9.51188591 0.625 9.5 C-0.3969043 9.52416992 -0.3969043 9.52416992 -1.43945312 9.54882812 C-4.39640907 9.55172426 -6.44339159 9.52434798 -8.92578125 7.83203125 C-9.9375 6.1875 -9.9375 6.1875 -9.6875 3.5625 C-8.14916284 -1.30890101 -4.4360883 0.00383413 0 0 Z " fill="#090802" transform="translate(264.9375,116.8125)"/>
<path d="M0 0 C2.375 0.75 2.375 0.75 3.375 1.75 C3.50158222 4.40822657 3.56020214 7.02887424 3.5625 9.6875 C3.57474609 10.42935547 3.58699219 11.17121094 3.59960938 11.93554688 C3.60488478 13.87513629 3.49688902 15.8142371 3.375 17.75 C2.715 18.41 2.055 19.07 1.375 19.75 C-1.92214793 19.42028521 -3.2476839 19.1273161 -5.625 16.75 C-5.92578125 13.59765625 -5.92578125 13.59765625 -5.9375 9.8125 C-5.95425781 8.56597656 -5.97101563 7.31945312 -5.98828125 6.03515625 C-5.625 2.75 -5.625 2.75 -4.26953125 0.79296875 C-2.625 -0.25 -2.625 -0.25 0 0 Z " fill="#0C0A02" transform="translate(260.625,381.25)"/>
<path d="M0 0 C0.99 0 1.98 0 3 0 C2.625 2.4375 2.625 2.4375 2 5 C1.01 5.495 1.01 5.495 0 6 C-0.28875 6.99 -0.5775 7.98 -0.875 9 C-1.24625 9.99 -1.6175 10.98 -2 12 C-3.9375 12.6875 -3.9375 12.6875 -6 13 C-7.62514468 14.45833358 -7.62514468 14.45833358 -9 16 C-9.66 16.33 -10.32 16.66 -11 17 C-10.44271087 20.34373475 -9.64826111 23.03312999 -8 26 C-9.75 26.75 -9.75 26.75 -12 27 C-14.5700131 24.88351863 -16.14769611 22.77845583 -18 20 C-18.721875 19.360625 -19.44375 18.72125 -20.1875 18.0625 C-20.785625 17.381875 -21.38375 16.70125 -22 16 C-21.75 13.75 -21.75 13.75 -21 12 C-19.35 12.33 -17.7 12.66 -16 13 C-16 13.99 -16 14.98 -16 16 C-15.01 16 -14.02 16 -13 16 C-12.731875 15.195625 -12.46375 14.39125 -12.1875 13.5625 C-11.795625 12.716875 -11.40375 11.87125 -11 11 C-10.01 10.67 -9.02 10.34 -8 10 C-7.690625 9.360625 -7.38125 8.72125 -7.0625 8.0625 C-5.74215782 5.49948282 -4.5185326 5.2592663 -2 4 C-0.73195434 1.9664052 -0.73195434 1.9664052 0 0 Z " fill="#FFDD40" transform="translate(270,441)"/>
<path d="M0 0 C1.46751239 0.00399142 2.93502584 0.01874717 4.40234375 0.04296875 C5.14806641 0.04361328 5.89378906 0.04425781 6.66210938 0.04492188 C12.19956216 0.09018716 12.19956216 0.09018716 13.33984375 1.23046875 C13.52734375 4.16796875 13.52734375 4.16796875 13.33984375 7.23046875 C10.84773936 9.72257314 9.33623587 9.49062536 5.9296875 9.50390625 C4.89521484 9.49230469 4.89521484 9.49230469 3.83984375 9.48046875 C3.15019531 9.48820312 2.46054688 9.4959375 1.75 9.50390625 C-3.40682332 9.48380168 -3.40682332 9.48380168 -5.66015625 7.23046875 C-5.91015625 4.73046875 -5.91015625 4.73046875 -5.66015625 2.23046875 C-3.66015625 0.23046875 -3.66015625 0.23046875 0 0 Z " fill="#070601" transform="translate(232.66015625,116.76953125)"/>
<path d="M0 0 C3 2 3 2 4 5 C4.11904875 7.01829161 4.17521712 9.04073771 4.1875 11.0625 C4.20167969 12.12597656 4.21585938 13.18945312 4.23046875 14.28515625 C4 17 4 17 2 19 C1.01 19 0.02 19 -1 19 C-1 19.66 -1 20.32 -1 21 C-2.32 20.67 -3.64 20.34 -5 20 C-4.34 19.34 -3.68 18.68 -3 18 C-2.3574765 15.93125966 -2.3574765 15.93125966 -2 14 C-2.9075 14.33 -3.815 14.66 -4.75 15 C-8 16 -8 16 -12 16 C-10.90914359 12.72743076 -10.31511435 12.25306361 -7.6875 10.25 C-3.99758203 7.22821532 -2.12283891 4.24567783 0 0 Z " fill="#FEDC3E" transform="translate(242,130)"/>
<path d="M0 0 C4.55555556 0.55555556 4.55555556 0.55555556 6 2 C6.09986975 4.84335048 6.13877881 7.65697163 6.125 10.5 C6.12886719 11.29792969 6.13273437 12.09585937 6.13671875 12.91796875 C6.12660767 18.87339233 6.12660767 18.87339233 5 20 C2 20.125 2 20.125 -1 20 C-3.10131385 17.89868615 -2.18514741 13.45853678 -2.1875 10.5625 C-2.19974609 9.77294922 -2.21199219 8.98339844 -2.22460938 8.16992188 C-2.22987279 6.11192565 -2.12206285 4.05437991 -2 2 C-1.34 1.34 -0.68 0.68 0 0 Z " fill="#040401" transform="translate(258,409)"/>
<path d="M0 0 C0.79792969 0.00386719 1.59585937 0.00773438 2.41796875 0.01171875 C3.21589844 0.00785156 4.01382812 0.00398437 4.8359375 0 C10.79136108 0.01011108 10.79136108 0.01011108 11.91796875 1.13671875 C12.04296875 4.13671875 12.04296875 4.13671875 11.91796875 7.13671875 C9.8166549 9.2380326 5.37650553 8.32186616 2.48046875 8.32421875 C1.69091797 8.33646484 0.90136719 8.34871094 0.08789062 8.36132812 C-1.9701056 8.36659154 -4.02765134 8.2587816 -6.08203125 8.13671875 C-6.74203125 7.47671875 -7.40203125 6.81671875 -8.08203125 6.13671875 C-7.32167657 -0.09818964 -6.12135273 0.01039279 0 0 Z " fill="#060501" transform="translate(403.08203125,181.86328125)"/>
<path d="M0 0 C3 0.125 3 0.125 4 1.125 C4.12663091 3.94916382 4.18520548 6.73794793 4.1875 9.5625 C4.19974609 10.35205078 4.21199219 11.14160156 4.22460938 11.95507812 C4.22987279 14.01307435 4.12206285 16.07062009 4 18.125 C3.34 18.785 2.68 19.445 2 20.125 C-2.55555556 19.56944444 -2.55555556 19.56944444 -4 18.125 C-4.09986975 15.28164952 -4.13877881 12.46802837 -4.125 9.625 C-4.12886719 8.82707031 -4.13273438 8.02914062 -4.13671875 7.20703125 C-4.1247745 0.1718656 -4.1247745 0.1718656 0 0 Z " fill="#050401" transform="translate(251,125.875)"/>
<path d="M0 0 C0.73734375 -0.01224609 1.4746875 -0.02449219 2.234375 -0.03710938 C4.15770058 -0.04237395 6.08054263 0.06546553 8 0.1875 C8.66 0.8475 9.32 1.5075 10 2.1875 C9.44444444 6.74305556 9.44444444 6.74305556 8 8.1875 C5.15664952 8.28736975 2.34302837 8.32627881 -0.5 8.3125 C-1.29792969 8.31636719 -2.09585938 8.32023437 -2.91796875 8.32421875 C-8.87339233 8.31410767 -8.87339233 8.31410767 -10 7.1875 C-10.04080783 5.18791636 -10.04254356 3.18704746 -10 1.1875 C-6.84044583 -0.39227708 -3.46536183 0.00302916 0 0 Z " fill="#040401" transform="translate(246,400.8125)"/>
<path d="M0 0 C2.29225435 0.11371497 4.58382388 0.24130964 6.875 0.375 C8.15117187 0.44460937 9.42734375 0.51421875 10.7421875 0.5859375 C14 1 14 1 16 3 C14.35 3.33 12.7 3.66 11 4 C11 5.65 11 7.3 11 9 C9.02 9.33 7.04 9.66 5 10 C4.67 10.99 4.34 11.98 4 13 C0.19902189 12.45700313 -1.57457897 10.92723228 -4 8 C-4.75 5.75 -4.75 5.75 -5 4 C-3.35 3.67 -1.7 3.34 0 3 C0 2.01 0 1.02 0 0 Z " fill="#FFDE42" transform="translate(258,27)"/>
<path d="M0 0 C1.1127832 -0.01836914 1.1127832 -0.01836914 2.24804688 -0.03710938 C4.18763629 -0.04238478 6.1267371 0.06561098 8.0625 0.1875 C10.0625 2.1875 10.0625 2.1875 10.25 4.75 C10.0625 7.1875 10.0625 7.1875 9.0625 8.1875 C6.23833618 8.31413091 3.44955207 8.37270548 0.625 8.375 C-0.16455078 8.38724609 -0.95410156 8.39949219 -1.76757812 8.41210938 C-3.82557435 8.41737279 -5.88312009 8.30956285 -7.9375 8.1875 C-8.5975 7.5275 -9.2575 6.8675 -9.9375 6.1875 C-9.07839571 -0.85715515 -6.35769477 0.00549498 0 0 Z " fill="#030200" transform="translate(273.9375,400.8125)"/>
<path d="M0 0 C1.1127832 -0.01836914 1.1127832 -0.01836914 2.24804688 -0.03710938 C4.18763629 -0.04238478 6.1267371 0.06561098 8.0625 0.1875 C8.7225 0.8475 9.3825 1.5075 10.0625 2.1875 C9.6875 5.3125 9.6875 5.3125 9.0625 8.1875 C6.27057795 8.24130578 3.4796859 8.28107669 0.6875 8.3125 C-0.1065625 8.32925781 -0.900625 8.34601563 -1.71875 8.36328125 C-3.79242015 8.38085473 -5.86633241 8.29085168 -7.9375 8.1875 C-8.5975 7.5275 -9.2575 6.8675 -9.9375 6.1875 C-9.07839571 -0.85715515 -6.35769477 0.00549498 0 0 Z " fill="#020100" transform="translate(433.9375,181.8125)"/>
<path d="M0 0 C2.04266429 2.04266429 1.18507944 6.13691434 1.1875 8.9375 C1.19974609 9.67935547 1.21199219 10.42121094 1.22460938 11.18554688 C1.22988478 13.12513629 1.12188902 15.0642371 1 17 C0.34 17.66 -0.32 18.32 -1 19 C-5.55555556 18.44444444 -5.55555556 18.44444444 -7 17 C-7.07325168 14.13732433 -7.09238205 11.299281 -7.0625 8.4375 C-7.05798828 7.63119141 -7.05347656 6.82488281 -7.04882812 5.99414062 C-7.03700518 3.99606244 -7.01906914 1.99802217 -7 0 C-4.31633121 -1.3418344 -2.84719317 -0.73004953 0 0 Z " fill="#010000" transform="translate(254,98)"/>
<path d="M0 0 C2.4375 0.75 2.4375 0.75 5 2 C5.8125 4.125 5.8125 4.125 6 6 C4.35 6.66 2.7 7.32 1 8 C1.33 9.65 1.66 11.3 2 13 C3.87880872 12.95231597 3.87880872 12.95231597 6 12 C8.26325246 9.02236957 8.26325246 9.02236957 10 6 C10.66 6.33 11.32 6.66 12 7 C12 8.98 12 10.96 12 13 C10.68 13 9.36 13 8 13 C8 14.32 8 15.64 8 17 C8.99 17.66 9.98 18.32 11 19 C10.67 20.32 10.34 21.64 10 23 C9.4225 22.360625 8.845 21.72125 8.25 21.0625 C5.93714526 18.94238316 4.91274226 18.70307572 2 18 C1.67 17.01 1.34 16.02 1 15 C0.34 14.54625 -0.32 14.0925 -1 13.625 C-3.52195876 11.5759085 -3.65862714 10.15769893 -4 7 C-2.68 6.67 -1.36 6.34 0 6 C-0.2784375 4.7934375 -0.2784375 4.7934375 -0.5625 3.5625 C-0.706875 2.716875 -0.85125 1.87125 -1 1 C-0.67 0.67 -0.34 0.34 0 0 Z " fill="#FEDD3F" transform="translate(329,242)"/>
<path d="M0 0 C1.98 0.66 3.96 1.32 6 2 C5.6875 3.9375 5.6875 3.9375 5 6 C4.01 6.33 3.02 6.66 2 7 C2 8.65 2 10.3 2 12 C4.475 12.99 4.475 12.99 7 14 C6.1875 15.9375 6.1875 15.9375 5 18 C4.01 18.33 3.02 18.66 2 19 C0.79117904 21.00016466 0.79117904 21.00016466 0 23 C-0.99 22.67 -1.98 22.34 -3 22 C-2.34 20.68 -1.68 19.36 -1 18 C-0.34 18 0.32 18 1 18 C0.67 16.68 0.34 15.36 0 14 C-2.64 14.33 -5.28 14.66 -8 15 C-7.67 14.01 -7.34 13.02 -7 12 C-6.34 11.67 -5.68 11.34 -5 11 C-4.690625 10.195625 -4.38125 9.39125 -4.0625 8.5625 C-3 6 -3 6 0 4 C0 2.68 0 1.36 0 0 Z " fill="#FFDE43" transform="translate(318,41)"/>
<path d="M0 0 C2.97 0 5.94 0 9 0 C8.67 1.98 8.34 3.96 8 6 C8.7425 6.2475 9.485 6.495 10.25 6.75 C13.27257349 8.12389704 14.93977162 9.40563834 17 12 C17 13.32 17 14.64 17 16 C15.35 16 13.7 16 12 16 C12 15.01 12 14.02 12 13 C10.68 12.67 9.36 12.34 8 12 C7.67 13.65 7.34 15.3 7 17 C5.68 17 4.36 17 3 17 C3 15.68 3 14.36 3 13 C5 11.25 5 11.25 7 10 C5.76551991 6.29655972 3.76665659 4.69749018 1 2 C0.67 1.34 0.34 0.68 0 0 Z " fill="#FFDD3F" transform="translate(216,289)"/>
<path d="M0 0 C1.98 0 3.96 0 6 0 C6.061875 0.721875 6.12375 1.44375 6.1875 2.1875 C7.46565958 6.61189855 10.36956194 9.07461624 14.3125 11.3125 C14.869375 11.539375 15.42625 11.76625 16 12 C16 12.99 16 13.98 16 15 C13.5625 14.625 13.5625 14.625 11 14 C10.67 13.34 10.34 12.68 10 12 C7.97536745 11.34786708 7.97536745 11.34786708 6 11 C5.67 9.35 5.34 7.7 5 6 C3.35 5.67 1.7 5.34 0 5 C-0.66 6.65 -1.32 8.3 -2 10 C-2.66 10 -3.32 10 -4 10 C-4 10.66 -4 11.32 -4 12 C-4.66 11.67 -5.32 11.34 -6 11 C-5.75 8.125 -5.75 8.125 -5 5 C-3 3.8125 -3 3.8125 -1 3 C-0.67 2.01 -0.34 1.02 0 0 Z " fill="#FFDD3F" transform="translate(213,217)"/>
<path d="M0 0 C0.7734375 0.495 0.7734375 0.495 1.5625 1 C1.5625 1.99 1.5625 2.98 1.5625 4 C0.2425 4 -1.0775 4 -2.4375 4 C-2.7675 3.34 -3.0975 2.68 -3.4375 2 C-4.7575 2 -6.0775 2 -7.4375 2 C-7.4375 2.99 -7.4375 3.98 -7.4375 5 C-4.9625 5.99 -4.9625 5.99 -2.4375 7 C-2.7675 8.32 -3.0975 9.64 -3.4375 11 C-6.7878698 10.42235003 -8.11983772 9.41423154 -10.4375 7 C-12.53739652 5.82425289 -12.53739652 5.82425289 -14.4375 5 C-13.625 2.5625 -13.625 2.5625 -12.4375 0 C-8.17949462 -1.41933513 -4.20838462 -1.72651677 0 0 Z " fill="#FFDD3F" transform="translate(215.4375,182)"/>
<path d="M0 0 C1.98 0 3.96 0 6 0 C6.33 1.32 6.66 2.64 7 4 C8.32 3.67 9.64 3.34 11 3 C11 2.34 11 1.68 11 1 C13.64 1 16.28 1 19 1 C17.79180633 4.624581 17.19658087 4.40170957 14 6 C13.67 6.99 13.34 7.98 13 9 C11.35 9.33 9.7 9.66 8 10 C7.814375 9.21625 7.62875 8.4325 7.4375 7.625 C6.16038373 4.60623658 6.16038373 4.60623658 2.375 3.6875 C1.26125 3.460625 0.1475 3.23375 -1 3 C-0.67 2.01 -0.34 1.02 0 0 Z " fill="#FFDD3F" transform="translate(166,217)"/>
<path d="M0 0 C1.65 0.33 3.3 0.66 5 1 C4.67 1.99 4.34 2.98 4 4 C5.65 4.33 7.3 4.66 9 5 C9 3.35 9 1.7 9 0 C10.65 0.33 12.3 0.66 14 1 C14.12375 1.928125 14.12375 1.928125 14.25 2.875 C14.80115872 5.18581338 14.80115872 5.18581338 17.046875 6.1328125 C17.69140625 6.41898438 18.3359375 6.70515625 19 7 C16.43685501 7.08132187 13.87631582 7.14064175 11.3125 7.1875 C10.2306543 7.22520508 10.2306543 7.22520508 9.12695312 7.26367188 C4.52410662 7.32672457 1.69692767 6.77816458 -2 4 C-1.34 2.68 -0.68 1.36 0 0 Z " fill="#FFDD3F" transform="translate(187,200)"/>
<path d="M0 0 C1.9375 0.8125 1.9375 0.8125 4 2 C4.33 2.99 4.66 3.98 5 5 C7.01508358 5.73323796 7.01508358 5.73323796 9 6 C8.52697634 10.25721298 6.18981069 12.32946082 3 15 C1.68 15 0.36 15 -1 15 C-0.625 13.0625 -0.625 13.0625 0 11 C0.66 10.67 1.32 10.34 2 10 C2 9.01 2 8.02 2 7 C1.01 6.34 0.02 5.68 -1 5 C-0.67 3.35 -0.34 1.7 0 0 Z " fill="#FFDD3F" transform="translate(237,205)"/>
<path d="M0 0 C1.98 0.66 3.96 1.32 6 2 C6 2.66 6 3.32 6 4 C6.99 4 7.98 4 9 4 C9.33 5.98 9.66 7.96 10 10 C10.66 10 11.32 10 12 10 C11.84660156 10.52078125 11.69320313 11.0415625 11.53515625 11.578125 C10.86017489 14.63278515 10.65588882 17.63015971 10.4375 20.75 C10.35371094 21.92046875 10.26992188 23.0909375 10.18359375 24.296875 C10.12300781 25.18890625 10.06242187 26.0809375 10 27 C9.67 27 9.34 27 9 27 C8.67 22.05 8.34 17.1 8 12 C6.35 11.67 4.7 11.34 3 11 C3.99 10.34 4.98 9.68 6 9 C5.67 8.01 5.34 7.02 5 6 C2.98491642 5.26676204 2.98491642 5.26676204 1 5 C0.67 5.99 0.34 6.98 0 8 C0 5.36 0 2.72 0 0 Z " fill="#EACB3B" transform="translate(246,115)"/>
<path d="M0 0 C4.87608363 0.27089353 6.81124497 2.49236947 10 6 C10.928125 6.928125 11.85625 7.85625 12.8125 8.8125 C13.534375 9.534375 14.25625 10.25625 15 11 C14.67 11.99 14.34 12.98 14 14 C11.69 13.67 9.38 13.34 7 13 C6.87625 12.236875 6.7525 11.47375 6.625 10.6875 C6.11897208 7.79732864 6.11897208 7.79732864 4 5 C3.01 4.67 2.02 4.34 1 4 C1 3.34 1 2.68 1 2 C0.34 1.67 -0.32 1.34 -1 1 C-0.67 0.67 -0.34 0.34 0 0 Z " fill="#FFDD3E" transform="translate(196,189)"/>
<path d="M0 0 C2.0625 0.4375 2.0625 0.4375 4 1 C4 3.64 4 6.28 4 9 C0.26513121 9.5745952 -3.21293268 10 -7 10 C-6.67 8.35 -6.34 6.7 -6 5 C-4.35 5.33 -2.7 5.66 -1 6 C-1.020625 5.195625 -1.04125 4.39125 -1.0625 3.5625 C-1 1 -1 1 0 0 Z " fill="#FFDD3F" transform="translate(242,267)"/>
<path d="M0 0 C0.66 0.33 1.32 0.66 2 1 C1.67 1.99 1.34 2.98 1 4 C1.598125 4.061875 2.19625 4.12375 2.8125 4.1875 C5.86915486 5.32282895 6.46634026 7.21152775 8 10 C8.66 10.33 9.32 10.66 10 11 C9.67 12.32 9.34 13.64 9 15 C6 14 6 14 4 11 C3.01 10.566875 3.01 10.566875 2 10.125 C-0.74655696 8.58006171 -1.0669894 6.9425719 -2 4 C-2.33 3.01 -2.66 2.02 -3 1 C-2.01 0.67 -1.02 0.34 0 0 Z " fill="#FFDD3F" transform="translate(330,318)"/>
<path d="M0 0 C0.99 0.99 1.98 1.98 3 3 C2.67 3.66 2.34 4.32 2 5 C2.66 5 3.32 5 4 5 C6 8 6 8 5.625 10.6875 C5.41875 11.450625 5.2125 12.21375 5 13 C3.35 13.33 1.7 13.66 0 14 C0 9.38 0 4.76 0 0 Z " fill="#FFDD40" transform="translate(120,211)"/>
<path d="M0 0 C0.53625 0.268125 1.0725 0.53625 1.625 0.8125 C0.965 2.4625 0.305 4.1125 -0.375 5.8125 C-1.365 5.8125 -2.355 5.8125 -3.375 5.8125 C-3.375 6.8025 -3.375 7.7925 -3.375 8.8125 C-4.695 9.1425 -6.015 9.4725 -7.375 9.8125 C-7.705 8.1625 -8.035 6.5125 -8.375 4.8125 C-2.95961538 -0.23365385 -2.95961538 -0.23365385 0 0 Z " fill="#FFDD3F" transform="translate(334.375,200.1875)"/>
<path d="M0 0 C6.97096189 5.45553539 6.97096189 5.45553539 8 9 C7.625 11.25 7.625 11.25 7 13 C3.125 10.375 3.125 10.375 2 7 C0.00334686 5.31461399 0.00334686 5.31461399 -2 4 C-1.34 2.68 -0.68 1.36 0 0 Z " fill="#F3D33D" transform="translate(238,160)"/>
<path d="M0 0 C3.81684226 1.55500981 6.19195732 4.03595495 9 7 C8.34 8.32 7.68 9.64 7 11 C5.68 10.67 4.36 10.34 3 10 C3 8.68 3 7.36 3 6 C1.68 5.34 0.36 4.68 -1 4 C-0.67 2.68 -0.34 1.36 0 0 Z " fill="#F9D93E" transform="translate(220,109)"/>
<path d="M0 0 C2.3125 -0.3125 2.3125 -0.3125 5 0 C6.625 2.375 6.625 2.375 8 5 C8.99 5.66 9.98 6.32 11 7 C10.34 8.32 9.68 9.64 9 11 C6 10 6 10 5 8.0625 C4.67 7.381875 4.34 6.70125 4 6 C3.01 5.34 2.02 4.68 1 4 C0.3125 1.875 0.3125 1.875 0 0 Z " fill="#FFDD3F" transform="translate(308,222)"/>
<path d="M0 0 C3.56943715 0.30595176 5.03014419 1.02424641 7.875 3.3125 C10 6 10 6 10 8.25 C9 10 9 10 6 11 C5.62875 9.6078125 5.62875 9.6078125 5.25 8.1875 C3.91303807 4.77824707 2.94881621 3.96587748 0 2 C0 1.34 0 0.68 0 0 Z " fill="#FFDD3F" transform="translate(224,352)"/>
<path d="M0 0 C1.32 0 2.64 0 4 0 C4 1.32 4 2.64 4 4 C3.34 4 2.68 4 2 4 C2 5.32 2 6.64 2 8 C-3.75 8.125 -3.75 8.125 -6 7 C-5.67 6.01 -5.34 5.02 -5 4 C-4.34 4 -3.68 4 -3 4 C-2.67 3.34 -2.34 2.68 -2 2 C-1.34 1.34 -0.68 0.68 0 0 Z " fill="#FFDD3F" transform="translate(393,139)"/>
<path d="M0 0 C2.25 1.9375 2.25 1.9375 4 4 C3.67 4.99 3.34 5.98 3 7 C2.77439324 9.39254576 2.59151405 11.78928123 2.4375 14.1875 C2.35371094 15.45980469 2.26992188 16.73210937 2.18359375 18.04296875 C2.12300781 19.01878906 2.06242187 19.99460937 2 21 C1.67 21 1.34 21 1 21 C0.96132812 19.41058594 0.96132812 19.41058594 0.921875 17.7890625 C0.8656022 16.40099999 0.80825467 15.01298075 0.75 13.625 C0.73582031 12.92632812 0.72164062 12.22765625 0.70703125 11.5078125 C0.63964218 9.22282354 0.63964218 9.22282354 0 6 C-1.91388341 4.43516506 -1.91388341 4.43516506 -4 4 C-4 3.01 -4 2.02 -4 1 C-2.25 0.25 -2.25 0.25 0 0 Z " fill="#D3B62F" transform="translate(254,93)"/>
<path d="M0 0 C-1.5294997 3.44137432 -3.45369552 6.2222133 -6 9 C-6.99 9 -7.98 9 -9 9 C-9.3125 6.75 -9.3125 6.75 -9 4 C-5.79364489 0.70457948 -4.69279787 0 0 0 Z " fill="#FFDE41" transform="translate(212,32)"/>
<path d="M0 0 C0.66 0.33 1.32 0.66 2 1 C1.13375 1.7425 1.13375 1.7425 0.25 2.5 C-2.61672884 5.68525427 -4.23238891 9.1262991 -6 13 C-7.65 13 -9.3 13 -11 13 C-8.36517737 7.73035473 -4.20056089 4.02096446 0 0 Z " fill="#E9C92D" transform="translate(305,190)"/>
<path d="M0 0 C0.66 0 1.32 0 2 0 C1.67 1.65 1.34 3.3 1 5 C0.34 5 -0.32 5 -1 5 C-1.33 6.65 -1.66 8.3 -2 10 C-3.65 10 -5.3 10 -7 10 C-6.1875 8.0625 -6.1875 8.0625 -5 6 C-4.01 5.67 -3.02 5.34 -2 5 C-0.78130071 2.49552484 -0.78130071 2.49552484 0 0 Z " fill="#F9D83E" transform="translate(237,172)"/>
<path d="M0 0 C5.29158974 1.40071493 7.77478044 4.85487245 11 9 C8.625 8.6875 8.625 8.6875 6 8 C5.34 7.01 4.68 6.02 4 5 C1.94074861 4.27617533 1.94074861 4.27617533 0 4 C0 2.68 0 1.36 0 0 Z " fill="#F1D13C" transform="translate(314,218)"/>
<path d="M0 0 C2.475 0.495 2.475 0.495 5 1 C5 1.99 5 2.98 5 4 C6.32 4.66 7.64 5.32 9 6 C8.67 6.66 8.34 7.32 8 8 C7.01 8 6.02 8 5 8 C4.67 6.68 4.34 5.36 4 4 C2.68 4 1.36 4 0 4 C0 2.68 0 1.36 0 0 Z " fill="#FFDD3F" transform="translate(236,353)"/>
<path d="M0 0 C1.32 0.66 2.64 1.32 4 2 C2.8125 4 2.8125 4 1 6 C-1.6875 6.25 -1.6875 6.25 -4 6 C-3.6875 4.125 -3.6875 4.125 -3 2 C-2.01 1.34 -1.02 0.68 0 0 Z " fill="#FBD832" transform="translate(250,345)"/>
<path d="M0 0 C2.46800047 1.15173355 4.04783565 2.04783565 6 4 C6 5.32 6 6.64 6 8 C4.1875 7.875 4.1875 7.875 2 7 C0.25 3.9375 0.25 3.9375 -1 1 C-0.67 0.67 -0.34 0.34 0 0 Z " fill="#FEDD3F" transform="translate(289,213)"/>
<path d="M0 0 C2.3125 0.1875 2.3125 0.1875 5 1 C6.8125 3.5625 6.8125 3.5625 8 6 C4.37 5.34 0.74 4.68 -3 4 C-2.34 3.67 -1.68 3.34 -1 3 C-0.67 2.01 -0.34 1.02 0 0 Z " fill="#E9C82E" transform="translate(304,200)"/>
<path d="M0 0 C2.97 0 5.94 0 9 0 C8.67 1.32 8.34 2.64 8 4 C7.7801777 6.24707241 7.59516013 8.49771238 7.4375 10.75 C7.35371094 11.92046875 7.26992188 13.0909375 7.18359375 14.296875 C7.12300781 15.18890625 7.06242187 16.0809375 7 17 C6.67 17 6.34 17 6 17 C5.67 12.05 5.34 7.1 5 2 C3.35 1.67 1.7 1.34 0 1 C0 0.67 0 0.34 0 0 Z " fill="#BBA126" transform="translate(249,125)"/>
<path d="M0 0 C1.98 0.495 1.98 0.495 4 1 C4.33 3.31 4.66 5.62 5 8 C4.67 7.34 4.34 6.68 4 6 C2.35636866 5.27840576 0.68949614 4.60648579 -1 4 C-0.67 2.68 -0.34 1.36 0 0 Z " fill="#FFDD3F" transform="translate(377,335)"/>
<path d="M0 0 C1.32 0.66 2.64 1.32 4 2 C3.360625 2.226875 2.72125 2.45375 2.0625 2.6875 C-0.27193661 3.85250896 -0.27193661 3.85250896 -0.75 6.625 C-0.8325 7.40875 -0.915 8.1925 -1 9 C-1.99 9 -2.98 9 -4 9 C-3.67 7.68 -3.34 6.36 -3 5 C-2.34 5 -1.68 5 -1 5 C-0.67 3.35 -0.34 1.7 0 0 Z " fill="#F5D53C" transform="translate(162,178)"/>
<path d="M0 0 C3.77001757 0.40978452 5.80106814 0.86737876 9 3 C6.36 3.66 3.72 4.32 1 5 C0.34 3.68 -0.32 2.36 -1 1 C-0.67 0.67 -0.34 0.34 0 0 Z " fill="#FFDD3F" transform="translate(264,166)"/>
<path d="M0 0 C0.66 0 1.32 0 2 0 C2.66 1.98 3.32 3.96 4 6 C3.01 6.33 2.02 6.66 1 7 C0.01 6.34 -0.98 5.68 -2 5 C-1.34 3.35 -0.68 1.7 0 0 Z " fill="#FFDB32" transform="translate(479,350)"/>
<path d="M0 0 C1.65 0.33 3.3 0.66 5 1 C4.625 2.9375 4.625 2.9375 4 5 C3.01 5.495 3.01 5.495 2 6 C1.01 5.34 0.02 4.68 -1 4 C-0.67 2.68 -0.34 1.36 0 0 Z " fill="#F9D83E" transform="translate(113,182)"/>
<path d="M0 0 C0.99 0.33 1.98 0.66 3 1 C2.67 2.32 2.34 3.64 2 5 C0.35 5.33 -1.3 5.66 -3 6 C-2.625 3.5625 -2.625 3.5625 -2 1 C-1.34 0.67 -0.68 0.34 0 0 Z " fill="#FBDA3E" transform="translate(248,149)"/>
<path d="M0 0 C0.99 0 1.98 0 3 0 C3 1.65 3 3.3 3 5 C1.68 5.33 0.36 5.66 -1 6 C-1.625 4.125 -1.625 4.125 -2 2 C-1.34 1.34 -0.68 0.68 0 0 Z " fill="#FFDD3F" transform="translate(322,165)"/>
<path d="M0 0 C0.99 0.66 1.98 1.32 3 2 C3 2.99 3 3.98 3 5 C1.02 5 -0.96 5 -3 5 C-3 3.68 -3 2.36 -3 1 C-2.01 0.67 -1.02 0.34 0 0 Z " fill="#FFDD40" transform="translate(210,391)"/>
<path d="M0 0 C2.4375 0.8125 2.4375 0.8125 5 2 C5.33 2.99 5.66 3.98 6 5 C4.68 5.33 3.36 5.66 2 6 C1.01 4.35 0.02 2.7 -1 1 C-0.67 0.67 -0.34 0.34 0 0 Z " fill="#FFDD40" transform="translate(342,232)"/>
<path d="M0 0 C0.99 0.66 1.98 1.32 3 2 C3 3.32 3 4.64 3 6 C1.35 5.67 -0.3 5.34 -2 5 C-2 3.68 -2 2.36 -2 1 C-1.34 0.67 -0.68 0.34 0 0 Z " fill="#FFDD3F" transform="translate(136,193)"/>
<path d="M0 0 C0.33 0.99 0.66 1.98 1 3 C0.01 3.99 -0.98 4.98 -2 6 C-2.99 5.67 -3.98 5.34 -5 5 C-4.625 3.0625 -4.625 3.0625 -4 1 C-2 0 -2 0 0 0 Z " fill="#FFDD3E" transform="translate(274,171)"/>
<path d="M0 0 C0.625 1.875 0.625 1.875 1 4 C0.34 4.66 -0.32 5.32 -1 6 C-2.65 4.68 -4.3 3.36 -6 2 C-3 0 -3 0 0 0 Z " fill="#FFDD3F" transform="translate(206,430)"/>
<path d="M0 0 C1.32 0 2.64 0 4 0 C4 0.99 4 1.98 4 3 C4.99 3 5.98 3 7 3 C7 3.99 7 4.98 7 6 C4.83125748 5.49396008 3.00032373 5.00016187 1 4 C0.375 1.9375 0.375 1.9375 0 0 Z " fill="#FFDD3F" transform="translate(483,296)"/>
<path d="M0 0 C0.33 0.66 0.66 1.32 1 2 C1.99 2.33 2.98 2.66 4 3 C3.67 4.32 3.34 5.64 3 7 C1.68 6.34 0.36 5.68 -1 5 C-0.67 3.35 -0.34 1.7 0 0 Z " fill="#FFDD3F" transform="translate(393,270)"/>
<path d="M0 0 C1.32 0 2.64 0 4 0 C4 1.65 4 3.3 4 5 C2.35 4.67 0.7 4.34 -1 4 C-0.67 2.68 -0.34 1.36 0 0 Z " fill="#FFDD40" transform="translate(394,261)"/>
<path d="M0 0 C1.65 0 3.3 0 5 0 C5 1.32 5 2.64 5 4 C3.68 4 2.36 4 1 4 C0.67 2.68 0.34 1.36 0 0 Z " fill="#FEDA32" transform="translate(285,251)"/>
<path d="M0 0 C1.32 0 2.64 0 4 0 C3.67 1.65 3.34 3.3 3 5 C1.68 5 0.36 5 -1 5 C-0.67 3.35 -0.34 1.7 0 0 Z " fill="#FFDD3F" transform="translate(315,93)"/>
<path d="M0 0 C1.98 0.495 1.98 0.495 4 1 C4 2.32 4 3.64 4 5 C2.35 5 0.7 5 -1 5 C-0.67 3.35 -0.34 1.7 0 0 Z " fill="#FFDB31" transform="translate(247,469)"/>
<path d="M0 0 C2.475 0.495 2.475 0.495 5 1 C4.67 2.32 4.34 3.64 4 5 C2.68 5 1.36 5 0 5 C0 3.35 0 1.7 0 0 Z " fill="#FFDD3F" transform="translate(443,401)"/>
<path d="M0 0 C2.475 0.495 2.475 0.495 5 1 C4.67 2.32 4.34 3.64 4 5 C2.68 4.67 1.36 4.34 0 4 C0 2.68 0 1.36 0 0 Z " fill="#FFDD3F" transform="translate(269,385)"/>
<path d="M0 0 C2.5 1.125 2.5 1.125 5 3 C5.3125 6.1875 5.3125 6.1875 5 9 C2.5 6.75 2.5 6.75 0 4 C0 2.68 0 1.36 0 0 Z " fill="#FFDD40" transform="translate(485,285)"/>
<path d="M0 0 C3.26954202 0.56371414 4.82575883 1.49962266 7 4 C6.67 4.99 6.34 5.98 6 7 C3 5.1875 3 5.1875 0 3 C0 2.01 0 1.02 0 0 Z " fill="#FFDD3F" transform="translate(434,235)"/>
<path d="M0 0 C2.475 0.495 2.475 0.495 5 1 C4.67 2.32 4.34 3.64 4 5 C2.68 4.67 1.36 4.34 0 4 C0 2.68 0 1.36 0 0 Z " fill="#FFDD3F" transform="translate(393,216)"/>
<path d="M0 0 C1.9375 0.8125 1.9375 0.8125 4 2 C4.33 2.99 4.66 3.98 5 5 C4.01 5.495 4.01 5.495 3 6 C0.375 4.5625 0.375 4.5625 -2 3 C-1.34 2.01 -0.68 1.02 0 0 Z " fill="#FFDD3F" transform="translate(327,161)"/>
<path d="M0 0 C0.33 1.32 0.66 2.64 1 4 C0.01 4.66 -0.98 5.32 -2 6 C-2.99 5.67 -3.98 5.34 -5 5 C-4.1875 3.0625 -4.1875 3.0625 -3 1 C-2.01 0.67 -1.02 0.34 0 0 Z " fill="#FFDD3F" transform="translate(189,98)"/>
<path d="M0 0 C1.32 0 2.64 0 4 0 C3.67 1.65 3.34 3.3 3 5 C1.68 4.67 0.36 4.34 -1 4 C-0.67 2.68 -0.34 1.36 0 0 Z " fill="#FFDD3F" transform="translate(180,59)"/>
<path d="M0 0 C2 3 2 3 2 7 C1.01 7.33 0.02 7.66 -1 8 C-1.625 5.6875 -1.625 5.6875 -2 3 C-1.34 2.01 -0.68 1.02 0 0 Z " fill="#FFDD3F" transform="translate(232,51)"/>
<path d="M0 0 C1.98 0.495 1.98 0.495 4 1 C3.67 2.32 3.34 3.64 3 5 C1.68 4.67 0.36 4.34 -1 4 C-0.67 2.68 -0.34 1.36 0 0 Z " fill="#FFDD3F" transform="translate(293,441)"/>
<path d="M0 0 C1.98 0.495 1.98 0.495 4 1 C3.67 2.32 3.34 3.64 3 5 C1.68 4.67 0.36 4.34 -1 4 C-0.67 2.68 -0.34 1.36 0 0 Z " fill="#FFDD3F" transform="translate(405,430)"/>
<path d="M0 0 C1.32 0.33 2.64 0.66 4 1 C4.33 2.32 4.66 3.64 5 5 C3.35 4.67 1.7 4.34 0 4 C0 2.68 0 1.36 0 0 Z " fill="#FFDD3F" transform="translate(247,385)"/>
<path d="M0 0 C2.475 0.99 2.475 0.99 5 2 C4.67 3.32 4.34 4.64 4 6 C2.68 5.34 1.36 4.68 0 4 C0 2.68 0 1.36 0 0 Z " fill="#FFDD40" transform="translate(280,383)"/>
<path d="M0 0 C1.98 0.495 1.98 0.495 4 1 C4 2.32 4 3.64 4 5 C2.35 4.67 0.7 4.34 -1 4 C-0.67 2.68 -0.34 1.36 0 0 Z " fill="#FFDD3F" transform="translate(411,323)"/>
<path d="M0 0 C1.98 0.99 1.98 0.99 4 2 C3.6875 3.9375 3.6875 3.9375 3 6 C2.01 6.33 1.02 6.66 0 7 C0 4.69 0 2.38 0 0 Z " fill="#FFDD3F" transform="translate(455,279)"/>
<path d="M0 0 C2.475 0.99 2.475 0.99 5 2 C4.67 3.32 4.34 4.64 4 6 C2.68 5.67 1.36 5.34 0 5 C0 3.35 0 1.7 0 0 Z " fill="#FFDD3F" transform="translate(297,176)"/>
<path d="M0 0 C2.97 0.495 2.97 0.495 6 1 C5.67 1.99 5.34 2.98 5 4 C2.9375 4.6875 2.9375 4.6875 1 5 C1 4.34 1 3.68 1 3 C0.34 2.67 -0.32 2.34 -1 2 C-0.67 1.34 -0.34 0.68 0 0 Z " fill="#FFDB31" transform="translate(290,32)"/>
<path d="M0 0 C-1.8125 2 -1.8125 2 -4 4 C-4.99 4 -5.98 4 -7 4 C-6.625 2.0625 -6.625 2.0625 -6 0 C-3.50907189 -1.24546405 -2.58919267 -0.7767578 0 0 Z " fill="#FFDD3F" transform="translate(283,31)"/>
<path d="M0 0 C1.32 0.33 2.64 0.66 4 1 C4 2.32 4 3.64 4 5 C2.68 4.67 1.36 4.34 0 4 C0 2.68 0 1.36 0 0 Z " fill="#FFDD3F" transform="translate(207,447)"/>
<path d="M0 0 C1.32 0 2.64 0 4 0 C4.33 1.32 4.66 2.64 5 4 C3.68 4.33 2.36 4.66 1 5 C0.67 3.35 0.34 1.7 0 0 Z " fill="#FFDD3F" transform="translate(258,441)"/>
<path d="M0 0 C1.32 0.66 2.64 1.32 4 2 C3.34 3.32 2.68 4.64 2 6 C1.01 5.67 0.02 5.34 -1 5 C-0.67 3.35 -0.34 1.7 0 0 Z " fill="#FFDD3F" transform="translate(237,430)"/>
<path d="M0 0 C0.99 0.33 1.98 0.66 3 1 C3 2.65 3 4.3 3 6 C1.68 5.67 0.36 5.34 -1 5 C-0.67 3.35 -0.34 1.7 0 0 Z " fill="#FFDD3F" transform="translate(187,413)"/>
<path d="M0 0 C1.98 0.99 1.98 0.99 4 2 C4 3.32 4 4.64 4 6 C2.68 6 1.36 6 0 6 C0 4.02 0 2.04 0 0 Z " fill="#FFDD3F" transform="translate(426,384)"/>
<path d="M0 0 C0.99 0.33 1.98 0.66 3 1 C3 3.31 3 5.62 3 8 C2.01 8 1.02 8 0 8 C0 5.36 0 2.72 0 0 Z " fill="#FFDD40" transform="translate(120,342)"/>
<path d="M0 0 C0.99 0.33 1.98 0.66 3 1 C3 2.32 3 3.64 3 5 C1.35 5 -0.3 5 -2 5 C-1.125 1.125 -1.125 1.125 0 0 Z " fill="#FFDD40" transform="translate(485,306)"/>
<path d="M0 0 C0.99 0.33 1.98 0.66 3 1 C2.67 2.32 2.34 3.64 2 5 C0.68 4.67 -0.64 4.34 -2 4 C-2 3.01 -2 2.02 -2 1 C-1.34 0.67 -0.68 0.34 0 0 Z " fill="#FFDD3F" transform="translate(468,278)"/>
<path d="M0 0 C0.66 0.33 1.32 0.66 2 1 C1.43628586 4.26954202 0.50037734 5.82575883 -2 8 C-2 5.69 -2 3.38 -2 1 C-1.34 0.67 -0.68 0.34 0 0 Z " fill="#FFDD3F" transform="translate(339,193)"/>
<path d="M0 0 C1.65 0.33 3.3 0.66 5 1 C4.01 2.485 4.01 2.485 3 4 C0.375 4.1875 0.375 4.1875 -2 4 C-1.34 2.68 -0.68 1.36 0 0 Z " fill="#FFDD3E" transform="translate(383,149)"/>
<path d="M0 0 C0.99 0.33 1.98 0.66 3 1 C3.6875 3.0625 3.6875 3.0625 4 5 C2.35 5 0.7 5 -1 5 C-0.67 3.35 -0.34 1.7 0 0 Z " fill="#FFDD3F" transform="translate(197,143)"/>
<path d="M0 0 C0.99 0 1.98 0 3 0 C2.67 1.32 2.34 2.64 2 4 C0.35 4.33 -1.3 4.66 -3 5 C-1.6875 2.5 -1.6875 2.5 0 0 Z " fill="#FFDD40" transform="translate(164,143)"/>
<path d="M0 0 C1.98 0.495 1.98 0.495 4 1 C3.67 2.32 3.34 3.64 3 5 C1.68 5 0.36 5 -1 5 C-0.67 3.35 -0.34 1.7 0 0 Z " fill="#FFDD3F" transform="translate(230,98)"/>
<path d="M0 0 C0.99 0.33 1.98 0.66 3 1 C2.34 2.98 1.68 4.96 1 7 C0.01 6.67 -0.98 6.34 -2 6 C-2 5.01 -2 4.02 -2 3 C-1.34 3 -0.68 3 0 3 C0 2.01 0 1.02 0 0 Z " fill="#FFDD3F" transform="translate(215,79)"/>
<path d="M0 0 C1.98 0.495 1.98 0.495 4 1 C3.34 2.32 2.68 3.64 2 5 C1.01 5 0.02 5 -1 5 C-0.67 3.35 -0.34 1.7 0 0 Z " fill="#FFDE40" transform="translate(214,48)"/>
<path d="M0 0 C0.99 0.33 1.98 0.66 3 1 C2.67 1.99 2.34 2.98 2 4 C0.02 4.33 -1.96 4.66 -4 5 C-3 2 -3 2 0 0 Z " fill="#FFDD3F" transform="translate(170,48)"/>
<path d="M0 0 C0.99 0 1.98 0 3 0 C3.33 0.99 3.66 1.98 4 3 C3.67 3.66 3.34 4.32 3 5 C1.68 4.67 0.36 4.34 -1 4 C-0.67 2.68 -0.34 1.36 0 0 Z " fill="#FFDD3F" transform="translate(248,441)"/>
<path d="M0 0 C2 1 2 1 2 1 Z M-4 1 C-1.525 1.495 -1.525 1.495 1 2 C1 2.99 1 3.98 1 5 C-0.32 5 -1.64 5 -3 5 C-3.33 3.68 -3.66 2.36 -4 1 Z " fill="#FFDD3F" transform="translate(340,429)"/>
<path d="M0 0 C1.65 0 3.3 0 5 0 C4.67 1.32 4.34 2.64 4 4 C2.68 4 1.36 4 0 4 C0 2.68 0 1.36 0 0 Z " fill="#FFDD40" transform="translate(241,425)"/>
<path d="M0 0 C1.98 0.495 1.98 0.495 4 1 C3.34 2.32 2.68 3.64 2 5 C1.01 5 0.02 5 -1 5 C-0.67 3.35 -0.34 1.7 0 0 Z " fill="#FFDD3F" transform="translate(348,386)"/>
<path d="M0 0 C0.99 0.33 1.98 0.66 3 1 C3.33 2.98 3.66 4.96 4 7 C3.67 6.34 3.34 5.68 3 5 C0.98330173 3.86649466 0.98330173 3.86649466 -1 3 C-0.67 2.01 -0.34 1.02 0 0 Z " fill="#FFDD40" transform="translate(378,347)"/>
<path d="M0 0 C1.32 0.33 2.64 0.66 4 1 C4 2.32 4 3.64 4 5 C2.68 5 1.36 5 0 5 C0 3.35 0 1.7 0 0 Z " fill="#FFDD40" transform="translate(174,346)"/>
<path d="M0 0 C0.99 0.33 1.98 0.66 3 1 C3 2.32 3 3.64 3 5 C1.35 4.67 -0.3 4.34 -2 4 C-1.34 2.68 -0.68 1.36 0 0 Z " fill="#FFDD40" transform="translate(445,312)"/>
<path d="M0 0 C0.66 0.33 1.32 0.66 2 1 C1.67 2.65 1.34 4.3 1 6 C-0.32 5.67 -1.64 5.34 -3 5 C-3 4.01 -3 3.02 -3 2 C-2.01 1.34 -1.02 0.68 0 0 Z " fill="#FFDD3F" transform="translate(424,266)"/>
<path d="M0 0 C0.99 0.33 1.98 0.66 3 1 C3 2.32 3 3.64 3 5 C1.35 4.67 -0.3 4.34 -2 4 C-1.34 2.68 -0.68 1.36 0 0 Z " fill="#FFDD3F" transform="translate(35,261)"/>
<path d="M0 0 C1.32 0.33 2.64 0.66 4 1 C4 2.32 4 3.64 4 5 C2.68 5 1.36 5 0 5 C0 3.35 0 1.7 0 0 Z " fill="#FFDD40" transform="translate(258,172)"/>
<path d="M0 0 C0.33 0.66 0.66 1.32 1 2 C1.66 2 2.32 2 3 2 C2.67 3.65 2.34 5.3 2 7 C1.01 6.67 0.02 6.34 -1 6 C-0.67 4.02 -0.34 2.04 0 0 Z " fill="#FFDD3F" transform="translate(153,96)"/>
<path d="M0 0 C0.66 0 1.32 0 2 0 C2 0.66 2 1.32 2 2 C2.99 2.33 3.98 2.66 5 3 C4.01 4.485 4.01 4.485 3 6 C2.01 5.67 1.02 5.34 0 5 C0 3.35 0 1.7 0 0 Z " fill="#FFDD3F" transform="translate(270,68)"/>
<path d="M0 0 C2 0.3125 2 0.3125 4 1 C4.33 1.66 4.66 2.32 5 3 C3.35 3.66 1.7 4.32 0 5 C-0.5625 3.0625 -0.5625 3.0625 -1 1 C-0.67 0.67 -0.34 0.34 0 0 Z " fill="#FFDD3F" transform="translate(270,59)"/>
<path d="M0 0 C1.32 0.33 2.64 0.66 4 1 C4 1.66 4 2.32 4 3 C4.66 3.33 5.32 3.66 6 4 C4.02 4.33 2.04 4.66 0 5 C0 3.35 0 1.7 0 0 Z " fill="#FFDD40" transform="translate(179,47)"/>
<path d="M0 0 C1.32 0.33 2.64 0.66 4 1 C4 2.32 4 3.64 4 5 C2.68 4.67 1.36 4.34 0 4 C0 2.68 0 1.36 0 0 Z " fill="#FFDD40" transform="translate(253,447)"/>
<path d="M0 0 C0.99 0 1.98 0 3 0 C3 1.65 3 3.3 3 5 C1.68 4.67 0.36 4.34 -1 4 C-0.67 2.68 -0.34 1.36 0 0 Z " fill="#FFDD3F" transform="translate(192,441)"/>
<path d="M0 0 C1.98 0 3.96 0 6 0 C5.67 1.32 5.34 2.64 5 4 C4.01 4 3.02 4 2 4 C1.34 2.68 0.68 1.36 0 0 Z " fill="#FFDD40" transform="translate(178,408)"/>
<path d="M0 0 C1.32 0 2.64 0 4 0 C4 1.32 4 2.64 4 4 C2.35 3.67 0.7 3.34 -1 3 C-0.67 2.01 -0.34 1.02 0 0 Z " fill="#FFDD3F" transform="translate(315,396)"/>
<path d="M0 0 C2.0625 0.4375 2.0625 0.4375 4 1 C3.67 2.32 3.34 3.64 3 5 C2.01 4.67 1.02 4.34 0 4 C-0.33 3.01 -0.66 2.02 -1 1 C-0.67 0.67 -0.34 0.34 0 0 Z " fill="#FFDD3F" transform="translate(146,374)"/>
<path d="M0 0 C1.32 0.66 2.64 1.32 4 2 C3.67 2.99 3.34 3.98 3 5 C1.68 4.67 0.36 4.34 -1 4 C-0.67 2.68 -0.34 1.36 0 0 Z " fill="#FFDD3F" transform="translate(411,222)"/>
<path d="M0 0 C2 1.3125 2 1.3125 4 3 C4 3.99 4 4.98 4 6 C3.01 6.33 2.02 6.66 1 7 C0.31292445 4.50935112 0 2.62113708 0 0 Z " fill="#FFDD3F" transform="translate(91,202)"/>
<path d="M0 0 C1.32 0 2.64 0 4 0 C3.67 1.65 3.34 3.3 3 5 C2.01 4.67 1.02 4.34 0 4 C0 2.68 0 1.36 0 0 Z " fill="#F8D73E" transform="translate(287,189)"/>
<path d="M0 0 C0.66 0.33 1.32 0.66 2 1 C2 2.65 2 4.3 2 6 C0.68 5.67 -0.64 5.34 -2 5 C-2 3.68 -2 2.36 -2 1 C-1.34 0.67 -0.68 0.34 0 0 Z " fill="#FFDD3F" transform="translate(294,160)"/>
<path d="M0 0 C1.65 0 3.3 0 5 0 C4.67 1.32 4.34 2.64 4 4 C2.68 3.67 1.36 3.34 0 3 C0 2.01 0 1.02 0 0 Z " fill="#FFDD40" transform="translate(70,154)"/>
<path d="M0 0 C1.9375 0.3125 1.9375 0.3125 4 1 C4.33 1.99 4.66 2.98 5 4 C3.02 4 1.04 4 -1 4 C-0.67 2.68 -0.34 1.36 0 0 Z " fill="#FFDD3F" transform="translate(342,144)"/>
<path d="M0 0 C0.33 1.32 0.66 2.64 1 4 C-0.32 4.33 -1.64 4.66 -3 5 C-3 4.01 -3 3.02 -3 2 C-3.66 1.67 -4.32 1.34 -5 1 C-3.35 0.67 -1.7 0.34 0 0 Z " fill="#FFDD3F" transform="translate(206,126)"/>
<path d="M0 0 C1.9375 0.75 1.9375 0.75 4 2 C4.75 4.125 4.75 4.125 5 6 C3.68 6 2.36 6 1 6 C0.67 4.02 0.34 2.04 0 0 Z " fill="#FFDD3D" transform="translate(404,114)"/>
<path d="M0 0 C1.65 0.33 3.3 0.66 5 1 C3.68 2.32 2.36 3.64 1 5 C0.34 4.67 -0.32 4.34 -1 4 C-0.67 2.68 -0.34 1.36 0 0 Z " fill="#FFDD3F" transform="translate(197,54)"/>
<path d="M0 0 C1.98 0.99 1.98 0.99 4 2 C3.67 3.32 3.34 4.64 3 6 C2.01 5.67 1.02 5.34 0 5 C0 3.35 0 1.7 0 0 Z " fill="#FFDD3F" transform="translate(241,52)"/>
<path d="M0 0 C0.99 0.33 1.98 0.66 3 1 C3 2.32 3 3.64 3 5 C1.68 5 0.36 5 -1 5 C-0.67 3.35 -0.34 1.7 0 0 Z " fill="#FFDD40" transform="translate(226,36)"/>
<path d="M0 0 C0.99 0.33 1.98 0.66 3 1 C2.67 2.32 2.34 3.64 2 5 C0.68 4.34 -0.64 3.68 -2 3 C-1.34 2.01 -0.68 1.02 0 0 Z " fill="#FFDD3F" transform="translate(293,397)"/>
<path d="M0 0 C0.66 0 1.32 0 2 0 C2 1.98 2 3.96 2 6 C-0.475 5.01 -0.475 5.01 -3 4 C-1.625 2 -1.625 2 0 0 Z " fill="#ECCB2E" transform="translate(244,307)"/>
<path d="M0 0 C0.99 0 1.98 0 3 0 C3.66 1.65 4.32 3.3 5 5 C2.69 4.34 0.38 3.68 -2 3 C-1.34 2.01 -0.68 1.02 0 0 Z " fill="#EBCA2D" transform="translate(344,306)"/>
<path d="M0 0 C1.98 0.495 1.98 0.495 4 1 C4 2.32 4 3.64 4 5 C1.525 4.01 1.525 4.01 -1 3 C-0.67 2.01 -0.34 1.02 0 0 Z " fill="#FFDD3F" transform="translate(455,289)"/>
<path d="M0 0 C0.99 0 1.98 0 3 0 C3 1.32 3 2.64 3 4 C2.01 4 1.02 4 0 4 C-0.33 4.66 -0.66 5.32 -1 6 C-1.042721 4.33388095 -1.04063832 2.66617115 -1 1 C-0.67 0.67 -0.34 0.34 0 0 Z " fill="#FFDD3F" transform="translate(433,245)"/>
<path d="M0 0 C1.32 0.33 2.64 0.66 4 1 C3.67 2.32 3.34 3.64 3 5 C2.01 4.67 1.02 4.34 0 4 C0 2.68 0 1.36 0 0 Z " fill="#FFDD3F" transform="translate(444,244)"/>
<path d="M0 0 C0.99 0.99 1.98 1.98 3 3 C2.34 4.32 1.68 5.64 1 7 C0.34 7 -0.32 7 -1 7 C-1.04254356 5.00045254 -1.04080783 2.99958364 -1 1 C-0.67 0.67 -0.34 0.34 0 0 Z " fill="#FFDD3F" transform="translate(87,228)"/>
<path d="M0 0 C1.32 0.33 2.64 0.66 4 1 C4 1.99 4 2.98 4 4 C2.68 4.33 1.36 4.66 0 5 C0 3.35 0 1.7 0 0 Z " fill="#FFDD3D" transform="translate(286,222)"/>
<path d="M0 0 C0.99 0.33 1.98 0.66 3 1 C2.67 2.32 2.34 3.64 2 5 C1.01 5 0.02 5 -1 5 C-0.67 3.35 -0.34 1.7 0 0 Z " fill="#FFDD3F" transform="translate(439,205)"/>
<path d="M0 0 C1.32 0.33 2.64 0.66 4 1 C3.67 2.32 3.34 3.64 3 5 C2.01 4.67 1.02 4.34 0 4 C0 2.68 0 1.36 0 0 Z " fill="#FFDD3F" transform="translate(371,115)"/>
<path d="M0 0 C0.99 0.66 1.98 1.32 3 2 C2.67 2.99 2.34 3.98 2 5 C0.68 4.67 -0.64 4.34 -2 4 C-1.34 2.68 -0.68 1.36 0 0 Z " fill="#FFDD3F" transform="translate(355,76)"/>
<path d="M0 0 C1.32 0.66 2.64 1.32 4 2 C3.01 3.485 3.01 3.485 2 5 C1.01 4.67 0.02 4.34 -1 4 C-0.67 2.68 -0.34 1.36 0 0 Z " fill="#FFDD3F" transform="translate(220,75)"/>
<path d="M0 0 C0.99 0 1.98 0 3 0 C3.33 1.65 3.66 3.3 4 5 C1.525 4.01 1.525 4.01 -1 3 C-0.67 2.01 -0.34 1.02 0 0 Z " fill="#FFDD3F" transform="translate(164,54)"/>
</svg>
